{"glyphs":{"0":{"ha":835,"x_min":39,"x_max":797,"o":"m 39 397 q 88 184 39 279 q 223 35 136 89 q 418 -18 310 -18 q 613 35 526 -18 q 749 185 700 89 q 797 400 797 281 q 749 608 797 515 q 613 752 700 700 q 418 804 526 804 q 223 752 310 804 q 88 607 136 700 q 39 397 39 514 m 185 401 q 215 540 185 479 q 298 636 244 601 q 418 671 351 671 q 538 635 485 671 q 622 537 592 600 q 653 394 653 474 q 623 251 653 314 q 540 151 593 188 q 418 115 486 115 q 298 152 351 115 q 215 254 244 189 q 185 401 185 319 z "},"1":{"ha":481,"x_min":14,"x_max":386,"o":"m 282 786 l 14 663 l 78 542 l 231 613 l 231 0 l 386 0 l 386 786 l 282 786 z "},"2":{"ha":672,"x_min":35,"x_max":644,"o":"m 313 804 q 53 732 174 804 l 85 607 q 190 658 139 639 q 303 678 242 678 q 422 647 378 678 q 465 558 465 617 q 431 465 465 513 q 322 351 396 417 l 35 104 l 35 0 l 644 0 l 624 119 l 246 119 l 401 249 q 558 413 514 342 q 601 571 601 483 q 524 741 601 678 q 313 804 446 804 z "},"3":{"ha":663,"x_min":0,"x_max":617,"o":"m 313 804 q 164 780 235 804 q 24 711 93 756 l 97 606 q 308 678 203 678 q 414 644 374 678 q 454 564 454 611 q 400 470 454 506 q 254 435 346 435 l 174 435 l 196 314 l 246 314 q 416 274 361 314 q 471 161 471 233 q 419 60 471 99 q 296 21 367 21 q 184 35 233 21 q 79 83 135 50 l 0 -22 q 145 -82 68 -58 q 293 -106 222 -106 q 463 -70 389 -106 q 576 26 536 -35 q 617 163 617 88 q 596 264 617 218 q 542 339 575 310 q 475 376 510 368 q 563 449 525 396 q 600 567 600 503 q 567 686 600 632 q 469 772 535 740 q 313 804 404 804 z "},"4":{"ha":761,"x_min":14,"x_max":733,"o":"m 588 793 l 472 793 l 14 215 l 35 88 l 431 88 l 431 -96 l 588 -96 l 588 88 l 717 88 l 733 215 l 588 215 l 588 793 m 182 215 l 431 538 l 431 215 l 182 215 z "},"5":{"ha":703,"x_min":39,"x_max":665,"o":"m 236 294 q 286 340 251 319 q 367 361 321 361 q 477 317 435 361 q 519 197 519 274 q 467 72 519 118 q 333 25 415 25 q 221 40 269 25 q 115 86 172 54 l 39 -24 q 179 -82 103 -58 q 328 -106 256 -106 q 507 -67 431 -106 q 624 41 583 -28 q 665 197 665 110 q 630 343 664 278 q 528 447 596 408 q 360 486 460 486 q 243 457 294 486 l 253 658 l 597 658 l 615 786 l 118 786 l 94 294 l 236 294 z "},"6":{"ha":725,"x_min":39,"x_max":688,"o":"m 383 547 q 540 511 471 547 q 649 410 610 475 q 688 267 688 346 q 649 119 688 185 q 542 18 610 54 q 388 -18 474 -18 q 207 24 286 -18 q 83 149 128 65 q 39 350 39 232 q 121 618 39 503 q 325 799 203 733 q 569 881 447 865 l 594 754 q 363 663 467 725 q 214 497 258 600 q 383 547 292 547 m 382 111 q 499 154 453 111 q 546 260 546 197 q 499 378 546 332 q 379 424 453 424 q 186 350 275 424 q 243 172 189 233 q 382 111 297 111 z "},"7":{"ha":642,"x_min":14,"x_max":614,"o":"m 567 786 l 14 786 l 33 658 l 440 658 l 183 -53 l 329 -96 l 614 722 l 567 786 z "},"8":{"ha":715,"x_min":39,"x_max":676,"o":"m 358 893 q 208 860 272 893 q 109 774 143 828 q 75 654 75 719 q 110 545 75 594 q 203 471 146 496 q 123 425 161 460 q 62 344 85 390 q 39 251 39 297 q 77 115 39 176 q 188 18 115 54 q 358 -18 260 -18 q 528 18 456 -18 q 638 115 600 54 q 676 251 676 176 q 653 346 676 300 q 592 425 631 392 q 513 471 554 458 q 604 547 568 497 q 640 654 640 596 q 606 774 640 719 q 508 860 572 828 q 358 893 444 893 m 356 765 q 458 733 418 765 q 497 654 497 700 q 461 569 497 604 q 358 525 425 535 q 253 569 290 535 q 217 654 217 604 q 256 732 217 699 q 356 765 296 765 m 358 410 q 488 353 442 397 q 533 249 533 308 q 481 147 533 186 q 358 108 429 108 q 233 147 285 108 q 182 249 182 185 q 228 353 182 308 q 358 410 274 397 z "},"9":{"ha":725,"x_min":39,"x_max":688,"o":"m 339 804 q 519 763 440 804 q 643 638 599 721 q 688 436 688 554 q 606 168 688 283 q 401 -13 524 53 q 157 -94 279 -79 l 132 32 q 364 124 260 61 q 513 289 468 186 q 343 239 435 239 q 186 275 256 239 q 78 376 117 311 q 39 519 39 440 q 77 667 39 601 q 184 768 115 732 q 339 804 253 804 m 181 526 q 226 408 181 453 q 347 363 272 363 q 540 436 451 363 q 483 614 538 553 q 344 675 429 675 q 227 632 274 675 q 181 526 181 589 z "},"\r":{"ha":0,"x_min":0,"x_max":0,"o":""}," ":{"ha":317,"x_min":0,"x_max":0,"o":""},"\u0000":{"ha":0,"x_min":0,"x_max":0,"o":""}," ":{"ha":328,"x_min":0,"x_max":0,"o":""},"‌":{"ha":0,"x_min":-42,"x_max":42,"o":"m 42 1718 l -42 1718 l -42 -94 l 42 -94 l 42 1718 z "},"‍":{"ha":0,"x_min":-157,"x_max":158,"o":"m -157 1778 l -54 1675 l -157 1572 l -103 1518 l -42 1578 l -42 -94 l 42 -94 l 42 1579 l 104 1518 l 158 1572 l 56 1675 l 158 1778 l 103 1833 l 0 1731 l -101 1833 l -157 1778 z "},"◌":{"ha":840,"x_min":63,"x_max":778,"o":"m 419 638 q 449 649 438 638 q 460 678 460 660 q 449 708 460 696 q 419 719 438 719 q 390 708 401 719 q 379 678 379 696 q 390 649 379 660 q 419 638 401 638 m 296 697 q 267 686 278 697 q 256 657 256 675 q 267 628 256 639 q 296 617 278 617 q 325 628 314 617 q 336 657 336 639 q 325 686 336 675 q 296 697 314 697 m 544 617 q 574 628 563 617 q 585 657 585 639 q 574 686 585 675 q 544 697 563 697 q 515 686 526 697 q 504 657 504 675 q 515 628 504 639 q 544 617 526 617 m 190 628 q 160 616 172 628 q 149 586 149 604 q 160 557 149 568 q 190 546 172 546 q 219 557 208 546 q 231 586 231 568 q 219 616 231 604 q 190 628 208 628 m 650 546 q 680 557 668 546 q 692 586 692 568 q 680 616 692 604 q 650 628 668 628 q 621 616 632 628 q 610 586 610 604 q 621 557 610 568 q 650 546 632 546 m 124 518 q 94 506 106 518 q 82 476 82 494 q 94 447 82 458 q 124 436 106 436 q 153 447 142 436 q 164 476 164 458 q 153 506 164 494 q 124 518 142 518 m 717 436 q 746 447 735 436 q 757 476 757 458 q 746 506 757 494 q 717 518 735 518 q 688 506 699 518 q 676 476 676 494 q 688 447 676 458 q 717 436 699 436 m 104 399 q 74 387 86 399 q 63 357 63 375 q 74 328 63 339 q 104 318 86 318 q 133 328 122 318 q 144 357 144 339 q 133 387 144 375 q 104 399 122 399 m 736 318 q 766 328 754 318 q 778 357 778 339 q 766 387 778 375 q 736 399 754 399 q 707 387 718 399 q 696 357 696 375 q 707 328 696 339 q 736 318 718 318 m 124 282 q 94 271 106 282 q 82 242 82 260 q 94 213 82 224 q 124 201 106 201 q 153 213 142 201 q 164 242 164 224 q 153 271 164 260 q 124 282 142 282 m 717 201 q 746 213 735 201 q 757 242 757 224 q 746 271 757 260 q 717 282 735 282 q 688 271 699 282 q 676 242 676 260 q 688 213 676 224 q 717 201 699 201 m 189 171 q 159 160 171 171 q 147 131 147 149 q 159 101 147 113 q 189 90 171 90 q 218 101 207 90 q 229 131 229 113 q 218 160 229 149 q 189 171 207 171 m 651 90 q 681 101 669 90 q 693 131 693 113 q 681 160 693 149 q 651 171 669 171 q 622 160 633 171 q 611 131 611 149 q 622 101 611 113 q 651 90 633 90 m 296 103 q 267 91 278 103 q 256 61 256 79 q 267 32 256 43 q 296 21 278 21 q 325 32 314 21 q 336 61 336 43 q 325 91 336 79 q 296 103 314 103 m 544 21 q 574 32 563 21 q 585 61 585 43 q 574 91 585 79 q 544 103 563 103 q 515 91 526 103 q 504 61 504 79 q 515 32 504 43 q 544 21 526 21 m 419 0 q 449 11 438 0 q 460 40 460 22 q 449 70 460 58 q 419 82 438 82 q 390 70 401 82 q 379 40 379 58 q 390 11 379 22 q 419 0 401 0 z "},"A":{"ha":890,"x_min":14,"x_max":876,"o":"m 168 0 l 258 238 l 629 238 l 722 -12 l 876 10 l 513 944 l 375 944 l 14 0 l 168 0 m 440 732 l 582 364 l 303 364 l 440 732 z "},"B":{"ha":856,"x_min":122,"x_max":817,"o":"m 478 0 q 724 71 632 0 q 817 274 817 142 q 774 418 817 360 q 658 510 732 476 q 769 685 769 589 q 685 883 769 821 q 453 944 601 944 l 122 944 l 122 0 l 478 0 m 433 814 q 563 785 519 814 q 607 683 607 757 q 553 583 607 615 q 408 550 499 551 l 278 550 l 278 814 l 433 814 m 482 424 q 609 385 563 424 q 656 271 656 346 q 605 165 656 200 q 468 129 554 129 l 278 129 l 278 424 l 482 424 z "},"C":{"ha":779,"x_min":53,"x_max":756,"o":"m 749 906 q 626 949 699 933 q 504 964 554 964 q 266 900 368 964 q 108 723 164 836 q 53 467 53 610 q 103 220 53 331 q 254 45 154 110 q 496 -19 354 -19 q 631 -3 557 -19 q 756 39 706 14 l 696 156 q 489 113 597 113 q 342 160 404 113 q 248 289 281 208 q 215 468 215 369 q 253 659 215 576 q 355 787 290 742 q 500 832 419 832 q 592 824 557 832 q 701 793 628 817 l 749 906 z "},"D":{"ha":950,"x_min":122,"x_max":899,"o":"m 468 0 q 701 60 604 0 q 849 227 799 119 q 899 478 899 335 q 790 817 899 689 q 471 944 682 944 l 122 944 l 122 0 l 468 0 m 476 811 q 674 723 608 811 q 739 476 739 635 q 666 217 739 304 q 467 131 593 131 l 278 131 l 278 811 l 476 811 z "},"E":{"ha":779,"x_min":122,"x_max":751,"o":"m 278 122 l 278 418 l 615 418 l 592 540 l 278 540 l 278 822 l 692 822 l 669 944 l 122 944 l 122 0 l 751 0 l 728 122 l 278 122 z "},"F":{"ha":694,"x_min":122,"x_max":667,"o":"m 278 822 l 667 822 l 643 944 l 122 944 l 122 0 l 278 0 l 278 413 l 600 413 l 579 532 l 278 532 l 278 822 z "},"G":{"ha":874,"x_min":53,"x_max":807,"o":"m 665 132 q 519 113 593 113 q 362 156 431 113 q 254 281 293 200 q 215 468 215 361 q 260 666 215 583 q 379 790 304 749 q 544 832 454 832 q 635 824 601 832 q 744 793 669 817 l 793 906 q 667 949 742 933 q 542 964 593 964 q 291 901 403 964 q 116 724 179 838 q 53 467 53 610 q 110 219 53 331 q 274 44 167 108 q 524 -19 381 -19 q 678 -1 603 -19 q 807 49 754 18 l 807 506 l 476 506 l 464 386 l 665 386 l 665 132 z "},"H":{"ha":951,"x_min":122,"x_max":829,"o":"m 674 944 l 674 536 l 278 536 l 278 951 l 122 944 l 122 0 l 278 0 l 278 411 l 674 411 l 674 0 l 829 0 l 829 944 l 674 944 z "},"I":{"ha":399,"x_min":122,"x_max":278,"o":"m 122 944 l 122 0 l 278 0 l 278 944 l 122 944 z "},"J":{"ha":390,"x_min":14,"x_max":282,"o":"m 125 111 q 117 44 125 67 q 87 6 110 21 q 14 -28 64 -10 l 76 -142 q 201 -88 157 -117 q 263 -19 244 -60 q 282 85 282 22 l 282 944 l 125 944 l 125 111 z "},"K":{"ha":890,"x_min":122,"x_max":876,"o":"m 278 311 l 278 0 l 122 0 l 122 944 l 278 944 l 278 528 l 699 965 l 811 875 l 482 526 l 876 0 l 685 0 l 375 415 l 278 311 z "},"L":{"ha":735,"x_min":122,"x_max":721,"o":"m 278 944 l 122 944 l 122 0 l 721 0 l 699 122 l 278 122 l 278 944 z "},"M":{"ha":1065,"x_min":122,"x_max":944,"o":"m 786 0 l 944 0 l 944 944 l 849 944 l 544 493 l 219 944 l 122 944 l 122 0 l 278 0 l 278 624 l 521 294 l 581 303 l 786 601 l 786 0 z "},"N":{"ha":1013,"x_min":122,"x_max":890,"o":"m 742 0 l 890 0 l 890 944 l 733 944 l 733 279 l 269 944 l 122 944 l 122 0 l 278 0 l 278 669 l 742 0 z "},"O":{"ha":1018,"x_min":53,"x_max":965,"o":"m 508 967 q 272 899 376 964 q 110 722 168 835 q 53 468 53 610 q 109 218 53 329 q 269 44 165 107 q 507 -19 372 -19 q 744 46 640 -18 q 907 222 849 110 q 965 478 965 335 q 909 728 965 617 q 749 903 853 839 q 508 967 644 967 m 215 469 q 254 658 215 575 q 361 788 293 742 q 511 833 429 833 q 663 788 597 833 q 765 661 729 742 q 801 478 801 581 q 763 284 801 367 q 656 157 724 201 q 506 113 589 113 q 353 158 419 113 q 251 285 288 204 q 215 469 215 367 z "},"P":{"ha":808,"x_min":122,"x_max":769,"o":"m 392 339 q 580 372 494 339 q 717 475 665 406 q 769 646 769 544 q 669 872 769 799 q 404 944 568 944 l 122 944 l 122 0 l 278 0 l 278 339 l 392 339 m 401 814 q 553 774 501 814 q 606 638 606 733 q 547 510 601 551 q 399 468 492 468 l 278 468 l 278 814 l 401 814 z "},"Q":{"ha":1018,"x_min":53,"x_max":965,"o":"m 965 478 q 935 287 965 375 q 846 133 904 199 l 943 38 l 853 -42 l 753 51 q 507 -19 646 -18 q 269 44 372 -19 q 109 218 165 107 q 53 468 53 329 q 110 722 53 610 q 272 899 168 835 q 508 967 376 964 q 749 903 644 967 q 909 728 853 839 q 965 478 965 617 m 506 113 q 646 150 583 113 l 528 260 l 635 342 l 739 239 q 801 478 801 338 q 765 661 801 581 q 663 788 729 742 q 511 833 597 833 q 361 788 429 833 q 254 658 293 742 q 215 469 215 575 q 251 285 215 367 q 353 158 288 204 q 506 113 419 113 z "},"R":{"ha":856,"x_min":122,"x_max":842,"o":"m 278 0 l 278 368 l 392 368 q 468 372 440 368 l 674 0 l 842 0 l 607 411 q 725 508 681 444 q 769 660 769 572 q 668 873 769 801 q 404 944 567 944 l 122 944 l 122 0 l 278 0 m 401 814 q 553 776 500 814 q 606 653 606 739 q 549 533 606 571 q 399 496 492 496 l 278 496 l 278 814 l 401 814 z "},"S":{"ha":725,"x_min":53,"x_max":688,"o":"m 69 57 q 193 6 106 31 q 340 -18 281 -18 q 528 15 450 -18 q 647 106 607 47 q 688 239 688 164 q 653 360 688 308 q 566 449 619 413 q 424 532 513 486 q 299 598 339 575 q 235 651 260 621 q 211 719 211 681 q 257 801 211 774 q 375 829 303 829 q 477 815 432 829 q 575 776 522 801 l 628 900 q 502 948 569 929 q 369 967 435 967 q 201 934 272 967 q 91 845 129 901 q 53 718 53 789 q 119 553 53 619 q 315 421 185 488 q 434 358 393 382 q 501 305 475 335 q 528 239 528 275 q 479 151 528 182 q 339 119 431 119 q 217 139 282 119 q 104 182 151 158 l 69 57 z "},"T":{"ha":807,"x_min":14,"x_max":793,"o":"m 14 821 l 311 821 l 311 0 l 469 0 l 469 821 l 793 821 l 769 944 l 14 944 l 14 821 z "},"U":{"ha":972,"x_min":108,"x_max":864,"o":"m 108 340 q 155 158 108 239 q 287 31 201 76 q 486 -15 372 -15 q 685 31 600 -15 q 817 158 771 76 q 864 340 864 239 l 864 944 l 707 944 l 707 353 q 647 176 707 239 q 486 113 588 113 q 325 175 385 113 q 265 353 265 238 l 265 944 l 108 944 l 108 340 z "},"V":{"ha":890,"x_min":14,"x_max":876,"o":"m 379 0 l 515 0 l 876 944 l 722 944 l 450 213 l 169 957 l 14 935 l 379 0 z "},"W":{"ha":1263,"x_min":14,"x_max":1249,"o":"m 833 0 l 631 722 l 432 0 l 296 0 l 14 935 l 169 957 l 367 213 l 556 944 l 710 944 l 904 213 l 1093 944 l 1249 944 l 969 0 l 833 0 z "},"X":{"ha":861,"x_min":14,"x_max":847,"o":"m 664 0 l 829 0 l 524 468 l 847 944 l 685 944 l 444 576 l 174 972 l 42 914 l 349 478 l 14 0 l 175 0 l 428 369 l 664 0 z "},"Y":{"ha":824,"x_min":14,"x_max":810,"o":"m 810 944 l 644 944 l 401 529 l 167 967 l 14 917 l 325 372 l 325 0 l 481 0 l 482 369 l 810 944 z "},"Z":{"ha":792,"x_min":25,"x_max":765,"o":"m 763 821 l 744 944 l 64 944 l 83 821 l 582 821 l 25 122 l 43 0 l 765 0 l 749 122 l 194 122 l 763 821 z "},"a":{"ha":692,"x_min":63,"x_max":617,"o":"m 143 504 q 338 550 246 550 q 460 410 457 550 l 313 410 q 131 354 200 410 q 63 197 63 299 q 123 42 63 100 q 300 -17 183 -17 q 400 7 350 -17 q 489 68 450 31 l 513 0 l 617 0 l 617 450 q 579 573 617 518 q 477 660 542 628 q 335 692 413 692 q 212 674 288 692 q 100 632 136 656 l 143 504 m 199 197 q 228 274 199 243 q 310 306 258 306 l 461 306 l 461 185 q 383 128 426 149 q 297 107 340 107 q 225 134 251 107 q 199 197 199 161 z "},"b":{"ha":757,"x_min":94,"x_max":719,"o":"m 382 692 q 561 648 485 692 q 678 524 638 604 q 719 335 719 443 q 678 151 719 231 q 559 26 636 71 q 379 -18 482 -18 q 295 -1 342 -18 q 208 43 249 15 l 176 0 l 94 0 l 94 965 l 250 981 l 250 656 q 382 692 318 692 m 379 117 q 510 178 463 117 q 558 335 558 239 q 511 497 558 435 q 379 558 464 558 q 312 547 343 558 q 250 514 281 536 l 250 158 q 379 117 307 117 z "},"c":{"ha":650,"x_min":39,"x_max":617,"o":"m 569 163 q 478 128 519 139 q 385 117 436 117 q 249 178 300 117 q 199 338 199 239 q 252 496 200 433 q 388 558 304 558 q 477 547 436 558 q 572 513 518 536 l 617 624 q 504 673 574 654 q 388 692 435 692 q 203 647 282 692 q 81 523 124 603 q 39 338 39 443 q 81 151 39 231 q 201 26 124 71 q 385 -18 279 -18 q 503 0 433 -18 q 615 49 572 18 l 569 163 z "},"d":{"ha":775,"x_min":39,"x_max":681,"o":"m 681 0 l 596 0 l 563 56 q 470 1 519 21 q 375 -18 421 -18 q 197 26 272 -18 q 80 151 121 71 q 39 339 39 232 q 80 524 39 444 q 198 648 121 604 q 378 692 275 692 q 449 680 410 692 q 524 646 488 668 l 524 965 l 681 979 l 681 0 m 199 340 q 247 178 199 239 q 378 117 294 117 q 454 130 419 117 q 524 172 489 143 l 524 503 q 456 545 490 532 q 378 558 421 558 q 247 497 294 558 q 199 340 199 436 z "},"e":{"ha":707,"x_min":39,"x_max":669,"o":"m 669 342 q 593 593 669 494 q 368 692 517 692 q 192 647 267 692 q 78 523 118 603 q 39 338 39 443 q 135 78 39 174 q 415 -17 232 -17 q 664 61 551 -17 l 617 175 q 515 130 557 144 q 418 115 472 115 q 203 296 224 115 l 669 296 l 669 342 m 206 400 q 256 517 215 475 q 364 558 297 558 q 468 518 429 558 q 519 400 507 478 l 206 400 z "},"f":{"ha":483,"x_min":19,"x_max":483,"o":"m 122 0 l 279 0 l 279 549 l 454 549 l 404 668 l 279 668 l 279 719 q 301 807 279 775 q 371 839 324 839 q 440 822 396 839 l 483 939 q 427 965 464 954 q 360 975 390 975 q 185 912 249 975 q 122 739 122 849 l 122 668 l 19 668 l 19 549 l 122 549 l 122 0 z "},"g":{"ha":769,"x_min":39,"x_max":681,"o":"m 681 -46 q 590 -246 681 -172 q 340 -319 499 -319 q 210 -300 290 -319 q 85 -249 131 -281 l 132 -136 q 240 -179 194 -165 q 336 -193 285 -193 q 472 -153 419 -193 q 524 -44 524 -114 l 524 28 q 449 -6 488 6 q 375 -18 410 -18 q 197 26 272 -18 q 80 151 121 71 q 39 339 39 232 q 80 524 39 444 q 198 648 121 604 q 378 692 275 692 q 471 672 419 692 q 563 619 522 653 l 596 674 l 681 674 l 681 -46 m 378 117 q 454 130 419 117 q 524 172 489 143 l 524 503 q 456 545 490 532 q 378 558 421 558 q 247 497 294 558 q 199 340 199 436 q 247 178 199 239 q 378 117 294 117 z "},"h":{"ha":782,"x_min":94,"x_max":707,"o":"m 483 696 q 707 433 707 696 l 707 0 l 551 0 l 551 424 q 446 564 551 564 q 250 471 363 564 l 250 0 l 94 0 l 94 965 l 250 981 l 250 611 q 368 673 307 650 q 483 696 429 696 z "},"i":{"ha":317,"x_min":67,"x_max":250,"o":"m 157 782 q 223 809 196 782 q 250 875 250 836 q 223 940 250 913 q 157 967 196 967 q 93 940 119 967 q 67 875 67 913 q 92 809 67 836 q 157 782 118 782 m 81 674 l 81 0 l 238 0 l 238 674 l 81 674 z "},"j":{"ha":347,"x_min":-3,"x_max":274,"o":"m 179 782 q 114 809 140 782 q 88 875 88 836 q 114 940 88 913 q 179 967 140 967 q 246 940 218 967 q 274 875 274 913 q 246 809 274 836 q 179 782 218 782 m 260 -6 q 245 -133 260 -85 q 187 -215 231 -181 q 57 -278 143 -250 l -3 -161 q 67 -123 44 -144 q 95 -74 89 -101 q 101 4 101 -46 l 101 674 l 260 674 l 260 -6 z "},"k":{"ha":697,"x_min":94,"x_max":697,"o":"m 329 306 l 517 0 l 697 0 l 439 406 l 633 585 l 544 692 l 250 413 l 250 981 l 94 965 l 94 0 l 250 0 l 250 232 l 329 306 z "},"l":{"ha":343,"x_min":94,"x_max":250,"o":"m 94 965 l 94 0 l 250 0 l 250 981 l 94 965 z "},"m":{"ha":1178,"x_min":81,"x_max":1104,"o":"m 890 696 q 1052 631 1000 696 q 1104 447 1104 565 l 1104 0 l 947 0 l 947 424 q 926 528 947 493 q 853 564 904 564 q 768 540 813 564 q 672 476 724 517 l 674 447 l 674 0 l 517 0 l 517 424 q 495 528 517 493 q 422 564 474 564 q 236 471 349 564 l 236 0 l 81 0 l 81 674 l 185 674 l 213 593 q 338 667 271 639 q 460 696 404 696 q 644 594 596 696 q 769 668 703 640 q 890 696 835 696 z "},"n":{"ha":768,"x_min":81,"x_max":694,"o":"m 236 471 q 433 564 349 564 q 538 424 538 564 l 538 0 l 694 0 l 694 433 q 642 626 694 556 q 471 696 589 696 q 340 668 410 696 q 213 593 271 640 l 185 674 l 81 674 l 81 0 l 236 0 l 236 471 z "},"o":{"ha":772,"x_min":39,"x_max":735,"o":"m 735 338 q 692 151 735 232 q 569 26 649 71 q 385 -18 490 -18 q 201 26 279 -18 q 81 151 124 71 q 39 338 39 231 q 81 523 39 443 q 203 647 124 603 q 388 692 282 692 q 572 648 493 692 q 692 524 650 604 q 735 338 735 443 m 385 117 q 522 179 469 117 q 574 336 574 242 q 523 497 574 435 q 388 558 472 558 q 252 496 304 558 q 199 338 200 433 q 249 178 199 239 q 385 117 300 117 z "},"p":{"ha":751,"x_min":89,"x_max":714,"o":"m 376 692 q 556 648 479 692 q 673 524 632 604 q 714 335 714 443 q 672 151 714 231 q 553 26 631 71 q 374 -18 476 -18 q 244 18 313 -18 l 244 -289 l 89 -304 l 89 674 l 171 674 l 204 629 q 290 676 244 660 q 376 692 336 692 m 374 117 q 505 178 457 117 q 553 335 553 239 q 506 497 553 435 q 374 558 458 558 q 306 547 338 558 q 244 514 275 536 l 244 158 q 374 117 301 117 z "},"q":{"ha":769,"x_min":39,"x_max":681,"o":"m 681 -290 l 524 -304 l 524 28 q 449 -6 488 6 q 375 -18 410 -18 q 197 26 272 -18 q 80 151 121 71 q 39 339 39 232 q 80 524 39 444 q 198 648 121 604 q 378 692 275 692 q 469 672 418 692 q 561 621 521 653 l 596 674 l 681 674 l 681 -290 m 378 117 q 454 130 419 117 q 524 172 489 143 l 524 503 q 456 545 490 532 q 378 558 421 558 q 247 497 294 558 q 199 340 199 436 q 247 178 199 239 q 378 117 294 117 z "},"r":{"ha":489,"x_min":81,"x_max":475,"o":"m 236 429 q 358 514 292 479 q 475 549 425 549 l 443 674 q 330 639 394 674 q 215 563 265 604 l 164 674 l 81 674 l 81 0 l 236 0 l 236 429 z "},"s":{"ha":585,"x_min":42,"x_max":547,"o":"m 43 47 q 152 -1 85 17 q 269 -18 219 -18 q 476 36 404 -18 q 547 189 547 90 q 318 411 547 329 q 229 450 261 431 q 196 493 197 469 q 225 544 196 524 q 297 565 254 565 q 385 553 344 565 q 475 519 426 542 l 524 625 q 413 674 479 656 q 300 692 347 692 q 111 638 181 692 q 42 492 42 585 q 264 286 42 358 q 397 182 397 243 q 360 129 397 149 q 269 110 322 110 q 90 156 186 110 l 43 47 z "},"t":{"ha":500,"x_min":18,"x_max":476,"o":"m 267 864 l 111 833 l 111 668 l 18 668 l 18 549 l 111 549 l 111 201 q 175 33 111 92 q 351 -25 239 -25 q 419 -15 382 -25 q 476 10 456 -4 l 433 125 q 364 108 396 108 q 291 141 315 108 q 267 228 267 174 l 267 549 l 436 549 l 389 668 l 267 668 l 267 864 z "},"u":{"ha":768,"x_min":75,"x_max":689,"o":"m 532 203 q 335 110 419 110 q 231 250 231 110 l 231 674 l 75 674 l 75 240 q 297 -22 75 -22 q 428 6 358 -22 q 556 81 497 33 l 583 0 l 689 0 l 689 674 l 532 674 l 532 203 z "},"v":{"ha":676,"x_min":14,"x_max":663,"o":"m 500 674 l 336 225 l 165 699 l 14 649 l 264 0 l 403 0 l 663 674 l 500 674 z "},"w":{"ha":985,"x_min":14,"x_max":971,"o":"m 808 674 l 693 239 l 572 674 l 403 674 l 288 239 l 165 697 l 14 649 l 217 0 l 354 0 l 485 447 l 622 0 l 758 0 l 971 674 l 808 674 z "},"x":{"ha":679,"x_min":14,"x_max":665,"o":"m 472 0 l 644 0 l 435 319 l 665 674 l 494 674 l 344 442 l 181 697 l 39 647 l 242 343 l 14 0 l 188 0 l 332 222 l 472 0 z "},"y":{"ha":678,"x_min":14,"x_max":664,"o":"m 218 -60 q 162 -127 203 -101 q 53 -182 121 -153 l 107 -307 q 265 -233 193 -287 q 364 -106 336 -179 l 664 674 l 500 674 l 338 226 l 165 699 l 14 649 l 253 32 l 218 -60 z "},"z":{"ha":608,"x_min":22,"x_max":588,"o":"m 76 546 l 379 546 l 22 82 l 42 0 l 588 0 l 574 125 l 217 125 l 579 586 l 571 674 l 44 674 l 76 546 z "},"ﬁ":{"ha":800,"x_min":19,"x_max":733,"o":"m 122 0 l 279 0 l 279 549 l 454 549 l 404 668 l 279 668 l 279 719 q 301 807 279 775 q 371 839 324 839 q 440 822 396 839 l 483 939 q 427 965 464 954 q 360 975 390 975 q 185 912 249 975 q 122 739 122 849 l 122 668 l 19 668 l 19 549 l 122 549 l 122 0 m 640 782 q 706 809 679 782 q 733 875 733 836 q 706 940 733 913 q 640 967 679 967 q 576 940 603 967 q 550 875 550 913 q 576 809 550 836 q 640 782 601 782 m 564 674 l 564 0 l 721 0 l 721 674 l 564 674 z "},"ﬂ":{"ha":826,"x_min":19,"x_max":733,"o":"m 122 0 l 279 0 l 279 549 l 454 549 l 404 668 l 279 668 l 279 719 q 301 807 279 775 q 371 839 324 839 q 440 822 396 839 l 483 939 q 427 965 464 954 q 360 975 390 975 q 185 912 249 975 q 122 739 122 849 l 122 668 l 19 668 l 19 549 l 122 549 l 122 0 m 578 965 l 578 0 l 733 0 l 733 981 l 578 965 z "},"`":{"ha":264,"x_min":14,"x_max":250,"o":"m 178 1042 l 14 1042 l 142 818 l 250 847 l 178 1042 z "},"¨":{"ha":446,"x_min":14,"x_max":432,"o":"m 97 843 q 155 867 132 843 q 178 924 178 890 q 155 983 178 958 q 97 1007 132 1007 q 38 983 63 1007 q 14 924 14 958 q 38 867 14 890 q 97 843 63 843 m 350 843 q 408 867 385 843 q 432 924 432 890 q 408 983 432 958 q 350 1007 385 1007 q 292 983 317 1007 q 267 924 267 958 q 292 867 267 890 q 350 843 317 843 z "},"¯":{"ha":383,"x_min":14,"x_max":369,"o":"m 357 985 l 14 985 l 14 861 l 369 861 l 357 985 z "},"´":{"ha":264,"x_min":14,"x_max":250,"o":"m 88 1042 l 14 847 l 122 818 l 250 1042 l 88 1042 z "},"ˆ":{"ha":511,"x_min":14,"x_max":497,"o":"m 497 836 l 303 1042 l 208 1042 l 14 836 l 158 818 l 258 924 l 356 818 l 497 836 z "},"ˇ":{"ha":511,"x_min":14,"x_max":497,"o":"m 14 1024 l 208 818 l 304 818 l 497 1024 l 356 1042 l 257 936 l 158 1042 l 14 1024 z "},"˘":{"ha":424,"x_min":14,"x_max":410,"o":"m 304 1038 q 280 966 304 997 q 211 935 256 935 q 144 965 167 935 q 122 1038 122 996 l 14 1038 q 65 885 14 947 q 211 822 115 824 q 359 885 308 824 q 410 1038 410 947 l 304 1038 z "},"˙":{"ha":213,"x_min":14,"x_max":199,"o":"m 107 833 q 172 860 146 833 q 199 925 199 888 q 172 992 199 964 q 107 1019 146 1019 q 41 992 68 1019 q 14 925 14 964 q 41 860 14 888 q 107 833 68 833 z "},"˚":{"ha":311,"x_min":14,"x_max":297,"o":"m 156 1089 q 56 1050 97 1089 q 14 954 14 1011 q 56 862 14 899 q 156 825 97 825 q 256 862 214 825 q 297 954 297 899 q 256 1050 297 1011 q 156 1089 214 1089 m 156 899 q 116 915 133 899 q 99 954 99 932 q 115 994 99 978 q 156 1011 132 1011 q 195 994 179 1011 q 211 954 211 978 q 194 915 211 932 q 156 899 178 899 z "},"˜":{"ha":465,"x_min":14,"x_max":451,"o":"m 351 988 q 338 954 350 968 q 310 940 326 940 q 274 947 289 940 q 239 965 258 953 q 200 986 218 979 q 154 993 182 993 q 53 956 93 993 q 14 838 14 919 l 118 838 q 133 870 119 856 q 161 885 146 885 q 195 878 182 885 q 229 860 208 872 q 267 838 249 846 q 311 831 285 831 q 412 868 372 831 q 451 988 451 906 l 351 988 z "},"˝":{"ha":518,"x_min":14,"x_max":504,"o":"m 88 1042 l 14 847 l 122 818 l 250 1042 l 88 1042 m 340 1042 l 267 847 l 375 818 l 504 1042 l 340 1042 z "},"˛":{"ha":318,"x_min":14,"x_max":304,"o":"m 74 6 q 33 -62 51 -18 q 14 -137 14 -106 q 58 -244 14 -201 q 171 -287 101 -287 q 304 -243 247 -287 l 258 -147 q 226 -165 243 -158 q 196 -172 208 -172 q 159 -159 172 -172 q 146 -124 146 -146 q 169 -56 146 -96 q 217 6 192 -15 l 74 6 z "},"¸":{"ha":322,"x_min":14,"x_max":308,"o":"m 71 -107 q 160 -130 125 -112 q 194 -172 194 -147 q 177 -196 194 -187 q 138 -204 160 -204 q 95 -196 121 -204 q 50 -178 69 -187 l 14 -272 q 72 -297 33 -287 q 138 -307 110 -307 q 258 -272 208 -307 q 308 -169 308 -236 q 279 -98 308 -132 q 207 -50 250 -64 l 235 18 l 121 18 l 71 -107 z "},"":{"ha":0,"x_min":17,"x_max":204,"o":"m 111 -29 q 46 -58 74 -29 q 18 -122 18 -87 q 42 -185 18 -156 q 90 -214 65 -214 q 63 -266 83 -243 q 17 -300 42 -289 l 51 -374 q 160 -278 117 -343 q 204 -142 204 -214 q 177 -60 204 -92 q 111 -29 150 -29 z "},"Þ":{"ha":818,"x_min":122,"x_max":769,"o":"m 404 833 q 669 760 568 833 q 769 535 769 688 q 717 364 769 433 q 580 261 665 294 q 392 228 494 228 l 278 228 l 278 0 l 122 0 l 122 944 l 278 944 l 278 833 l 404 833 m 399 357 q 547 399 492 357 q 606 526 601 440 q 553 663 606 622 q 401 703 501 703 l 278 703 l 278 357 l 399 357 z "},"Ð":{"ha":950,"x_min":26,"x_max":899,"o":"m 471 944 q 790 817 682 944 q 899 478 899 689 q 848 227 899 335 q 701 60 797 119 q 468 0 604 0 l 122 0 l 122 411 l 40 411 l 26 532 l 122 532 l 122 944 l 471 944 m 467 131 q 666 217 593 131 q 739 476 739 304 q 674 723 739 635 q 476 811 608 811 l 278 811 l 278 532 l 390 532 l 403 411 l 278 411 l 278 131 l 467 131 z "},"Æ":{"ha":1297,"x_min":7,"x_max":1269,"o":"m 639 238 l 639 0 l 1269 0 l 1247 122 l 797 122 l 797 418 l 1135 418 l 1111 540 l 797 540 l 797 822 l 1211 822 l 1189 944 l 622 944 l 7 8 l 156 -14 l 314 238 l 639 238 m 397 364 l 639 731 l 639 364 l 397 364 z "},"Đ":{"ha":950,"x_min":26,"x_max":899,"o":"m 471 944 q 790 817 682 944 q 899 478 899 689 q 849 227 899 335 q 701 60 799 119 q 468 0 604 0 l 122 0 l 122 411 l 40 411 l 26 532 l 122 532 l 122 944 l 471 944 m 467 131 q 666 217 593 131 q 739 476 739 304 q 674 723 739 635 q 476 811 608 811 l 278 811 l 278 532 l 390 532 l 403 411 l 278 411 l 278 131 l 467 131 z "},"Ł":{"ha":743,"x_min":14,"x_max":721,"o":"m 76 268 l 14 375 l 122 460 l 122 944 l 278 944 l 278 581 l 428 699 l 490 592 l 278 425 l 278 122 l 699 122 l 721 0 l 122 0 l 122 304 l 76 268 z "},"Œ":{"ha":1344,"x_min":53,"x_max":1317,"o":"m 688 13 q 496 -19 585 -19 q 254 45 354 -19 q 103 220 154 110 q 53 467 53 331 q 108 723 53 610 q 266 900 164 836 q 504 964 368 964 q 590 956 539 964 q 688 932 640 947 l 688 944 l 1235 944 l 1258 822 l 843 822 l 843 540 l 1158 540 l 1182 418 l 843 418 l 843 122 l 1294 122 l 1317 0 l 688 0 l 688 13 m 489 113 q 688 151 589 113 l 688 797 q 589 824 624 817 q 500 832 554 832 q 355 787 419 832 q 253 659 290 742 q 215 468 215 576 q 248 289 215 369 q 342 160 281 208 q 489 113 404 113 z "},"Ø":{"ha":1018,"x_min":53,"x_max":965,"o":"m 508 967 q 749 903 644 967 q 909 728 853 839 q 965 478 965 617 q 907 222 965 335 q 744 46 849 110 q 507 -19 640 -18 q 269 44 372 -19 q 109 218 165 107 q 53 468 53 329 q 110 722 53 610 q 272 899 168 835 q 508 967 376 964 m 511 833 q 361 788 429 833 q 254 658 293 742 q 215 469 215 575 q 241 310 215 382 q 315 190 267 239 l 582 825 q 511 833 549 833 m 506 113 q 656 157 589 113 q 763 284 724 201 q 801 478 801 367 q 778 626 801 558 q 714 743 756 694 l 446 118 q 506 113 485 113 z "},"ß":{"ha":844,"x_min":94,"x_max":800,"o":"m 250 656 q 296 784 250 736 q 418 832 342 832 q 530 795 485 832 q 575 694 575 758 q 528 590 575 629 q 396 550 482 550 l 350 550 l 350 425 l 463 425 q 587 383 538 425 q 636 271 636 342 q 583 167 636 204 q 450 129 531 129 l 338 129 l 338 0 l 458 0 q 706 70 613 0 q 800 268 800 140 q 748 422 800 356 q 622 511 696 489 q 706 589 674 535 q 738 703 738 643 q 647 898 738 829 q 413 967 556 967 q 180 883 265 967 q 94 657 94 799 l 94 0 l 250 0 l 250 656 z "},"ð":{"ha":772,"x_min":39,"x_max":735,"o":"m 465 876 q 663 640 592 774 q 735 361 735 506 q 693 162 735 247 q 572 29 651 76 q 385 -18 493 -18 q 201 26 279 -18 q 81 151 124 71 q 39 338 39 231 q 81 522 39 442 q 201 647 124 603 q 381 692 278 692 q 456 682 411 692 q 328 806 407 743 l 150 713 l 92 819 l 208 879 q 106 928 172 900 l 160 1042 q 353 954 254 1011 l 503 1031 l 561 926 l 465 876 m 385 117 q 522 179 469 117 q 574 336 574 242 q 547 511 574 431 q 388 558 479 558 q 252 496 304 558 q 199 338 200 433 q 249 178 199 239 q 385 117 300 117 z "},"þ":{"ha":751,"x_min":89,"x_max":714,"o":"m 376 692 q 556 648 479 692 q 673 524 632 604 q 714 335 714 443 q 672 151 714 231 q 553 26 631 71 q 374 -18 476 -18 q 313 -8 349 -18 q 244 19 278 1 l 244 -289 l 89 -304 l 89 965 l 244 981 l 244 654 q 376 692 314 692 m 374 117 q 505 178 457 117 q 553 335 553 239 q 506 497 553 435 q 374 558 458 558 q 244 514 304 558 l 244 158 q 374 117 300 117 z "},"ƒ":{"ha":565,"x_min":0,"x_max":565,"o":"m 204 546 l 204 103 q 182 16 204 47 q 113 -15 160 -15 q 42 1 89 -15 l 0 -114 q 57 -140 19 -129 q 125 -150 94 -150 q 299 -87 236 -150 q 361 85 361 -24 l 361 546 l 538 546 l 488 665 l 361 665 l 361 719 q 383 807 361 775 q 453 839 406 839 q 524 822 476 839 l 565 939 q 509 965 546 954 q 442 975 472 975 q 267 911 331 975 q 204 739 204 847 l 204 665 l 101 665 l 101 546 l 204 546 z "},"æ":{"ha":1128,"x_min":63,"x_max":1090,"o":"m 624 296 q 839 115 647 115 q 935 130 893 115 q 1038 175 978 144 l 1085 61 q 836 -17 972 -17 q 544 90 643 -17 q 440 13 497 43 q 300 -17 382 -17 q 123 42 183 -17 q 63 197 63 100 q 131 354 63 299 q 313 410 200 410 l 460 410 q 429 513 458 475 q 338 550 400 550 q 143 504 246 550 l 100 632 q 212 674 136 656 q 335 692 288 692 q 459 668 401 692 q 556 601 517 644 q 790 692 646 692 q 1015 591 939 692 q 1090 336 1090 490 l 1090 296 l 624 296 m 940 400 q 889 517 928 476 q 786 558 850 558 q 678 517 719 558 q 626 400 638 476 l 940 400 m 297 107 q 406 130 364 107 q 482 194 447 153 q 461 306 465 244 l 310 306 q 228 274 258 306 q 199 197 199 243 q 225 134 199 161 q 297 107 251 107 z "},"đ":{"ha":775,"x_min":39,"x_max":782,"o":"m 681 764 l 681 0 l 596 0 l 561 57 q 467 2 518 22 q 375 -18 417 -18 q 197 26 272 -18 q 80 151 121 71 q 39 339 39 232 q 80 524 39 444 q 198 648 121 604 q 378 692 275 692 q 447 679 407 692 q 524 646 488 667 l 524 764 l 424 764 l 408 878 l 524 878 l 524 965 l 681 979 l 681 878 l 768 878 l 782 764 l 681 764 m 199 340 q 247 178 199 239 q 378 117 294 117 q 454 130 419 117 q 524 172 489 143 l 524 503 q 456 545 490 532 q 378 558 421 558 q 247 497 294 558 q 199 340 199 436 z "},"œ":{"ha":1147,"x_min":39,"x_max":1108,"o":"m 643 296 q 857 115 664 115 q 954 130 911 115 q 1057 175 997 144 l 1104 61 q 856 -17 990 -17 q 614 47 706 -17 q 501 0 571 18 q 385 -18 432 -18 q 201 26 279 -18 q 81 151 124 71 q 39 338 39 231 q 81 523 39 443 q 203 647 124 603 q 388 692 282 692 q 497 675 432 692 q 607 631 563 658 q 808 692 690 692 q 1033 593 957 692 q 1108 342 1108 494 l 1108 296 l 643 296 m 199 338 q 249 178 199 239 q 385 117 300 117 q 525 143 457 117 q 478 338 478 224 q 522 532 478 450 q 388 558 457 558 q 252 496 304 558 q 199 338 200 433 m 960 400 q 804 558 932 558 q 697 517 738 558 q 644 400 656 475 l 960 400 z "},"ĺ":{"ha":343,"x_min":94,"x_max":358,"o":"m 194 1250 l 122 1056 l 229 1026 l 358 1250 l 194 1250 m 94 935 l 94 0 l 250 0 l 250 951 l 94 935 z "},"ł":{"ha":476,"x_min":0,"x_max":476,"o":"m 317 981 l 161 965 l 161 531 l 0 404 l 63 297 l 161 374 l 161 0 l 317 0 l 317 496 l 476 622 l 413 728 l 317 651 l 317 981 z "},"ı":{"ha":317,"x_min":81,"x_max":238,"o":"m 81 674 l 81 0 l 238 0 l 238 674 l 81 674 z "},"ø":{"ha":782,"x_min":39,"x_max":735,"o":"m 388 692 q 572 648 493 692 q 692 524 650 604 q 735 338 735 443 q 692 151 735 232 q 569 26 649 71 q 385 -18 490 -18 q 201 26 279 -18 q 81 151 124 71 q 39 338 39 231 q 81 523 39 443 q 203 647 124 603 q 388 692 282 692 m 388 558 q 252 496 304 558 q 199 338 200 433 q 239 192 199 249 l 438 551 q 388 558 413 558 m 385 117 q 522 179 469 117 q 574 336 574 242 q 543 467 574 410 l 349 119 q 385 117 371 117 z "},"À":{"ha":890,"x_min":14,"x_max":876,"o":"m 168 0 l 258 238 l 629 238 l 722 -12 l 876 10 l 513 944 l 375 944 l 14 0 l 168 0 m 440 732 l 582 364 l 303 364 l 440 732 m 443 1250 l 279 1250 l 407 1026 l 515 1056 l 443 1250 z "},"Á":{"ha":890,"x_min":14,"x_max":876,"o":"m 168 0 l 258 238 l 629 238 l 722 -12 l 876 10 l 513 944 l 375 944 l 14 0 l 168 0 m 440 732 l 582 364 l 303 364 l 440 732 m 419 1250 l 346 1056 l 454 1026 l 582 1250 l 419 1250 z "},"Â":{"ha":890,"x_min":14,"x_max":876,"o":"m 168 0 l 258 238 l 629 238 l 722 -12 l 876 10 l 513 944 l 375 944 l 14 0 l 168 0 m 440 732 l 582 364 l 303 364 l 440 732 m 678 1044 l 483 1250 l 389 1250 l 194 1044 l 339 1026 l 439 1132 l 536 1026 l 678 1044 z "},"Ã":{"ha":890,"x_min":14,"x_max":876,"o":"m 168 0 l 258 238 l 629 238 l 722 -12 l 876 10 l 513 944 l 375 944 l 14 0 l 168 0 m 440 732 l 582 364 l 303 364 l 440 732 m 550 1196 q 537 1163 549 1176 q 508 1149 525 1149 q 469 1155 485 1149 q 433 1174 453 1161 q 397 1194 414 1188 q 353 1201 379 1201 q 252 1165 292 1201 q 213 1046 213 1128 l 317 1046 q 331 1078 318 1064 q 360 1093 344 1093 q 400 1086 385 1093 q 432 1067 415 1079 q 467 1046 450 1053 q 510 1039 483 1039 q 610 1076 571 1039 q 650 1196 650 1114 l 550 1196 z "},"Ä":{"ha":890,"x_min":14,"x_max":876,"o":"m 168 0 l 258 238 l 629 238 l 722 -12 l 876 10 l 513 944 l 375 944 l 14 0 l 168 0 m 440 732 l 582 364 l 303 364 l 440 732 m 311 1051 q 369 1075 346 1051 q 392 1132 392 1099 q 369 1191 392 1167 q 311 1215 346 1215 q 252 1191 276 1215 q 228 1132 228 1167 q 252 1075 228 1099 q 311 1051 276 1051 m 564 1051 q 622 1075 599 1051 q 646 1132 646 1099 q 622 1191 646 1167 q 564 1215 599 1215 q 506 1191 531 1215 q 481 1132 481 1167 q 506 1075 481 1099 q 564 1051 531 1051 z "},"Å":{"ha":890,"x_min":14,"x_max":876,"o":"m 168 0 l 258 238 l 629 238 l 722 -12 l 876 10 l 513 944 l 375 944 l 14 0 l 168 0 m 440 732 l 582 364 l 303 364 l 440 732 m 438 1297 q 338 1258 379 1297 q 296 1163 296 1219 q 338 1070 296 1107 q 438 1033 379 1033 q 538 1070 496 1033 q 579 1163 579 1107 q 538 1258 579 1219 q 438 1297 496 1297 m 438 1107 q 398 1124 415 1107 q 381 1163 381 1140 q 397 1203 381 1186 q 438 1219 414 1219 q 477 1203 461 1219 q 493 1163 493 1186 q 476 1124 493 1140 q 438 1107 460 1107 z "},"Ă":{"ha":890,"x_min":14,"x_max":876,"o":"m 168 0 l 258 238 l 629 238 l 722 -12 l 876 10 l 513 944 l 375 944 l 14 0 l 168 0 m 440 732 l 582 364 l 303 364 l 440 732 m 533 1246 q 509 1174 533 1206 q 440 1143 485 1143 q 374 1174 396 1143 q 351 1246 351 1204 l 243 1246 q 294 1094 243 1156 q 440 1031 344 1032 q 588 1094 538 1032 q 639 1246 639 1156 l 533 1246 z "},"Ą":{"ha":890,"x_min":14,"x_max":972,"o":"m 972 -243 q 839 -287 915 -287 q 726 -244 769 -287 q 682 -137 682 -201 q 696 -75 682 -111 q 728 -11 710 -39 l 722 -12 l 629 238 l 258 238 l 168 0 l 14 0 l 375 944 l 513 944 l 876 10 l 847 6 l 885 6 q 837 -56 860 -15 q 814 -124 814 -96 q 827 -159 814 -146 q 864 -172 840 -172 q 894 -165 876 -172 q 926 -147 911 -158 l 972 -243 m 440 732 l 303 364 l 582 364 l 440 732 z "},"Ā":{"ha":890,"x_min":14,"x_max":876,"o":"m 168 0 l 258 238 l 629 238 l 722 -12 l 876 10 l 513 944 l 375 944 l 14 0 l 168 0 m 440 732 l 582 364 l 303 364 l 440 732 m 596 1193 l 254 1193 l 254 1069 l 610 1069 l 596 1193 z "},"Ç":{"ha":779,"x_min":53,"x_max":756,"o":"m 532 -50 q 604 -98 575 -64 q 633 -169 633 -132 q 583 -272 633 -236 q 463 -307 533 -307 q 397 -297 435 -307 q 339 -272 358 -287 l 375 -178 q 420 -196 394 -187 q 463 -204 446 -204 q 502 -196 485 -204 q 519 -172 519 -187 q 485 -130 519 -147 q 396 -107 450 -112 l 432 -15 q 226 65 311 -1 q 97 236 140 132 q 53 467 53 340 q 108 723 53 610 q 266 900 164 836 q 504 964 368 964 q 626 949 554 964 q 749 906 699 933 l 701 793 q 592 824 628 817 q 500 832 557 832 q 355 787 419 832 q 253 659 290 742 q 215 468 215 576 q 248 289 215 369 q 342 160 281 208 q 489 113 404 113 q 696 156 597 113 l 756 39 q 659 3 717 18 q 546 -17 601 -11 l 532 -50 z "},"Ć":{"ha":779,"x_min":53,"x_max":756,"o":"m 749 906 q 626 949 699 933 q 504 964 554 964 q 266 900 368 964 q 108 723 164 836 q 53 467 53 610 q 103 220 53 331 q 254 45 154 110 q 496 -19 354 -19 q 631 -3 557 -19 q 756 39 706 14 l 696 156 q 489 113 597 113 q 342 160 404 113 q 248 289 281 208 q 215 468 215 369 q 253 659 215 576 q 355 787 290 742 q 500 832 419 832 q 592 824 557 832 q 701 793 628 817 l 749 906 m 485 1250 l 411 1056 l 519 1026 l 647 1250 l 485 1250 z "},"Č":{"ha":779,"x_min":53,"x_max":756,"o":"m 749 906 q 626 949 699 933 q 504 964 554 964 q 266 900 368 964 q 108 723 164 836 q 53 467 53 610 q 103 220 53 331 q 254 45 154 110 q 496 -19 354 -19 q 631 -3 557 -19 q 756 39 706 14 l 696 156 q 489 113 597 113 q 342 160 404 113 q 248 289 281 208 q 215 468 215 369 q 253 659 215 576 q 355 787 290 742 q 500 832 419 832 q 592 824 557 832 q 701 793 628 817 l 749 906 m 264 1232 l 458 1026 l 554 1026 l 747 1232 l 606 1250 l 507 1144 l 408 1250 l 264 1232 z "},"Ď":{"ha":950,"x_min":122,"x_max":899,"o":"m 468 0 q 701 60 604 0 q 849 227 799 119 q 899 478 899 335 q 790 817 899 689 q 471 944 682 944 l 122 944 l 122 0 l 468 0 m 476 811 q 674 723 608 811 q 739 476 739 635 q 666 217 739 304 q 467 131 593 131 l 278 131 l 278 811 l 476 811 m 213 1232 l 407 1026 l 503 1026 l 696 1232 l 554 1250 l 456 1144 l 357 1250 l 213 1232 z "},"È":{"ha":779,"x_min":122,"x_max":751,"o":"m 278 122 l 278 418 l 615 418 l 592 540 l 278 540 l 278 822 l 692 822 l 669 944 l 122 944 l 122 0 l 751 0 l 728 122 l 278 122 m 417 1250 l 253 1250 l 381 1026 l 489 1056 l 417 1250 z "},"É":{"ha":779,"x_min":122,"x_max":751,"o":"m 278 122 l 278 418 l 615 418 l 592 540 l 278 540 l 278 822 l 692 822 l 669 944 l 122 944 l 122 0 l 751 0 l 728 122 l 278 122 m 393 1250 l 319 1056 l 428 1026 l 556 1250 l 393 1250 z "},"Ê":{"ha":779,"x_min":122,"x_max":751,"o":"m 278 122 l 278 418 l 615 418 l 592 540 l 278 540 l 278 822 l 692 822 l 669 944 l 122 944 l 122 0 l 751 0 l 728 122 l 278 122 m 651 1044 l 457 1250 l 363 1250 l 168 1044 l 313 1026 l 413 1132 l 510 1026 l 651 1044 z "},"Ë":{"ha":779,"x_min":122,"x_max":751,"o":"m 278 122 l 278 418 l 615 418 l 592 540 l 278 540 l 278 822 l 692 822 l 669 944 l 122 944 l 122 0 l 751 0 l 728 122 l 278 122 m 286 1051 q 344 1075 321 1051 q 367 1132 367 1099 q 344 1191 367 1167 q 286 1215 321 1215 q 227 1191 251 1215 q 203 1132 203 1167 q 227 1075 203 1099 q 286 1051 251 1051 m 539 1051 q 597 1075 574 1051 q 621 1132 621 1099 q 597 1191 621 1167 q 539 1215 574 1215 q 481 1191 506 1215 q 456 1132 456 1167 q 481 1075 456 1099 q 539 1051 506 1051 z "},"Ē":{"ha":779,"x_min":122,"x_max":751,"o":"m 278 122 l 278 418 l 615 418 l 592 540 l 278 540 l 278 822 l 692 822 l 669 944 l 122 944 l 122 0 l 751 0 l 728 122 l 278 122 m 569 1193 l 228 1193 l 228 1069 l 583 1069 l 569 1193 z "},"Ė":{"ha":779,"x_min":122,"x_max":751,"o":"m 278 122 l 278 418 l 615 418 l 592 540 l 278 540 l 278 822 l 692 822 l 669 944 l 122 944 l 122 0 l 751 0 l 728 122 l 278 122 m 414 1042 q 479 1069 453 1042 q 506 1133 506 1096 q 479 1200 506 1172 q 414 1228 453 1228 q 348 1200 375 1228 q 321 1133 321 1172 q 348 1069 321 1096 q 414 1042 375 1042 z "},"Ę":{"ha":779,"x_min":122,"x_max":757,"o":"m 757 -243 q 624 -287 700 -287 q 510 -244 554 -287 q 467 -137 467 -201 q 483 -67 467 -107 q 521 0 500 -26 l 122 0 l 122 944 l 669 944 l 692 822 l 278 822 l 278 540 l 592 540 l 615 418 l 278 418 l 278 122 l 728 122 l 751 0 l 663 0 q 619 -61 639 -24 q 599 -124 599 -99 q 612 -159 599 -146 q 649 -172 625 -172 q 678 -165 661 -172 q 711 -147 696 -158 l 757 -243 z "},"Ě":{"ha":779,"x_min":122,"x_max":751,"o":"m 278 122 l 278 418 l 615 418 l 592 540 l 278 540 l 278 822 l 692 822 l 669 944 l 122 944 l 122 0 l 751 0 l 728 122 l 278 122 m 174 1232 l 368 1026 l 464 1026 l 657 1232 l 515 1250 l 417 1144 l 318 1250 l 174 1232 z "},"Ğ":{"ha":874,"x_min":53,"x_max":807,"o":"m 665 132 q 519 113 593 113 q 362 156 431 113 q 254 281 293 200 q 215 468 215 361 q 260 666 215 583 q 379 790 304 749 q 544 832 454 832 q 635 824 601 832 q 744 793 669 817 l 793 906 q 667 949 742 933 q 542 964 593 964 q 291 901 403 964 q 116 724 179 838 q 53 467 53 610 q 110 219 53 331 q 274 44 167 108 q 524 -19 381 -19 q 678 -1 603 -19 q 807 49 754 18 l 807 506 l 476 506 l 464 386 l 665 386 l 665 132 m 615 1246 q 591 1174 615 1206 q 522 1143 567 1143 q 456 1174 478 1143 q 433 1246 433 1204 l 325 1246 q 376 1094 325 1156 q 522 1031 426 1032 q 670 1094 619 1032 q 721 1246 721 1156 l 615 1246 z "},"Ì":{"ha":399,"x_min":42,"x_max":278,"o":"m 122 944 l 122 0 l 278 0 l 278 944 l 122 944 m 206 1250 l 42 1250 l 169 1026 l 278 1056 l 206 1250 z "},"Í":{"ha":399,"x_min":108,"x_max":344,"o":"m 122 944 l 122 0 l 278 0 l 278 944 l 122 944 m 182 1250 l 108 1056 l 217 1026 l 344 1250 l 182 1250 z "},"Î":{"ha":399,"x_min":-44,"x_max":439,"o":"m 122 944 l 122 0 l 278 0 l 278 944 l 122 944 m 439 1044 l 244 1250 l 150 1250 l -44 1044 l 100 1026 l 200 1132 l 297 1026 l 439 1044 z "},"Ï":{"ha":399,"x_min":-10,"x_max":408,"o":"m 122 944 l 122 0 l 278 0 l 278 944 l 122 944 m 74 1051 q 131 1075 108 1051 q 154 1132 154 1099 q 131 1191 154 1167 q 74 1215 108 1215 q 15 1191 39 1215 q -10 1132 -10 1167 q 15 1075 -10 1099 q 74 1051 39 1051 m 326 1051 q 385 1075 361 1051 q 408 1132 408 1099 q 385 1191 408 1167 q 326 1215 361 1215 q 268 1191 293 1215 q 243 1132 243 1167 q 268 1075 243 1099 q 326 1051 293 1051 z "},"Ī":{"ha":399,"x_min":15,"x_max":371,"o":"m 122 944 l 122 0 l 278 0 l 278 944 l 122 944 m 357 1193 l 15 1193 l 15 1069 l 371 1069 l 357 1193 z "},"Į":{"ha":399,"x_min":79,"x_max":369,"o":"m 369 -243 q 236 -287 313 -287 q 123 -244 167 -287 q 79 -137 79 -201 q 96 -67 79 -107 q 133 0 113 -26 l 122 0 l 122 944 l 278 944 l 278 6 l 282 6 l 278 1 l 278 0 l 275 0 q 231 -61 251 -24 q 211 -124 211 -99 q 224 -159 211 -146 q 261 -172 238 -172 q 291 -165 274 -172 q 324 -147 308 -158 l 369 -243 z "},"İ":{"ha":399,"x_min":108,"x_max":293,"o":"m 122 944 l 122 0 l 278 0 l 278 944 l 122 944 m 201 1042 q 267 1069 240 1042 q 293 1133 293 1096 q 267 1200 293 1172 q 201 1228 240 1228 q 135 1200 163 1228 q 108 1133 108 1172 q 135 1069 108 1096 q 201 1042 163 1042 z "},"Ĺ":{"ha":735,"x_min":122,"x_max":721,"o":"m 278 944 l 122 944 l 122 0 l 721 0 l 699 122 l 278 122 l 278 944 m 299 1250 l 225 1056 l 333 1026 l 461 1250 l 299 1250 z "},"Ľ":{"ha":735,"x_min":122,"x_max":721,"o":"m 278 944 l 122 944 l 122 0 l 721 0 l 699 122 l 278 122 l 278 944 m 582 1017 q 517 987 544 1017 q 490 922 490 957 q 514 861 490 889 q 563 832 538 833 q 535 769 556 793 q 474 708 515 744 l 508 635 q 629 751 581 674 q 678 904 678 829 q 649 985 678 953 q 582 1017 621 1017 z "},"Ñ":{"ha":1013,"x_min":122,"x_max":890,"o":"m 742 0 l 890 0 l 890 944 l 733 944 l 733 279 l 269 944 l 122 944 l 122 0 l 278 0 l 278 669 l 742 0 m 622 1196 q 609 1163 621 1176 q 581 1149 597 1149 q 541 1155 557 1149 q 506 1174 525 1161 q 469 1194 486 1188 q 425 1201 451 1201 q 324 1165 364 1201 q 285 1046 285 1128 l 389 1046 q 403 1078 390 1064 q 432 1093 417 1093 q 472 1086 457 1093 q 504 1067 488 1079 q 539 1046 522 1053 q 582 1039 556 1039 q 683 1076 643 1039 q 722 1196 722 1114 l 622 1196 z "},"Ń":{"ha":1013,"x_min":122,"x_max":890,"o":"m 742 0 l 890 0 l 890 944 l 733 944 l 733 279 l 269 944 l 122 944 l 122 0 l 278 0 l 278 669 l 742 0 m 493 1250 l 419 1056 l 528 1026 l 656 1250 l 493 1250 z "},"Ň":{"ha":1013,"x_min":122,"x_max":890,"o":"m 742 0 l 890 0 l 890 944 l 733 944 l 733 279 l 269 944 l 122 944 l 122 0 l 278 0 l 278 669 l 742 0 m 274 1232 l 468 1026 l 564 1026 l 757 1232 l 615 1250 l 517 1144 l 418 1250 l 274 1232 z "},"Ò":{"ha":1018,"x_min":53,"x_max":965,"o":"m 508 967 q 272 899 376 964 q 110 722 168 835 q 53 468 53 610 q 109 218 53 329 q 269 44 165 107 q 507 -19 372 -19 q 744 46 640 -18 q 907 222 849 110 q 965 478 965 335 q 909 728 965 617 q 749 903 853 839 q 508 967 644 967 m 215 469 q 254 658 215 575 q 361 788 293 742 q 511 833 429 833 q 663 788 597 833 q 765 661 729 742 q 801 478 801 581 q 763 284 801 367 q 656 157 724 201 q 506 113 589 113 q 353 158 419 113 q 251 285 288 204 q 215 469 215 367 m 511 1250 l 347 1250 l 475 1026 l 583 1056 l 511 1250 z "},"Ó":{"ha":1018,"x_min":53,"x_max":965,"o":"m 508 967 q 272 899 376 964 q 110 722 168 835 q 53 468 53 610 q 109 218 53 329 q 269 44 165 107 q 507 -19 372 -19 q 744 46 640 -18 q 907 222 849 110 q 965 478 965 335 q 909 728 965 617 q 749 903 853 839 q 508 967 644 967 m 215 469 q 254 658 215 575 q 361 788 293 742 q 511 833 429 833 q 663 788 597 833 q 765 661 729 742 q 801 478 801 581 q 763 284 801 367 q 656 157 724 201 q 506 113 589 113 q 353 158 419 113 q 251 285 288 204 q 215 469 215 367 m 488 1250 l 414 1056 l 522 1026 l 650 1250 l 488 1250 z "},"Ô":{"ha":1018,"x_min":53,"x_max":965,"o":"m 508 967 q 272 899 376 964 q 110 722 168 835 q 53 468 53 610 q 109 218 53 329 q 269 44 165 107 q 507 -19 372 -19 q 744 46 640 -18 q 907 222 849 110 q 965 478 965 335 q 909 728 965 617 q 749 903 853 839 q 508 967 644 967 m 215 469 q 254 658 215 575 q 361 788 293 742 q 511 833 429 833 q 663 788 597 833 q 765 661 729 742 q 801 478 801 581 q 763 284 801 367 q 656 157 724 201 q 506 113 589 113 q 353 158 419 113 q 251 285 288 204 q 215 469 215 367 m 744 1044 l 550 1250 l 456 1250 l 261 1044 l 406 1026 l 506 1132 l 603 1026 l 744 1044 z "},"Õ":{"ha":1018,"x_min":53,"x_max":965,"o":"m 508 967 q 272 899 376 964 q 110 722 168 835 q 53 468 53 610 q 109 218 53 329 q 269 44 165 107 q 507 -19 372 -19 q 744 46 640 -18 q 907 222 849 110 q 965 478 965 335 q 909 728 965 617 q 749 903 853 839 q 508 967 644 967 m 215 469 q 254 658 215 575 q 361 788 293 742 q 511 833 429 833 q 663 788 597 833 q 765 661 729 742 q 801 478 801 581 q 763 284 801 367 q 656 157 724 201 q 506 113 589 113 q 353 158 419 113 q 251 285 288 204 q 215 469 215 367 m 618 1196 q 605 1163 617 1176 q 576 1149 593 1149 q 537 1155 553 1149 q 501 1174 521 1161 q 465 1194 482 1188 q 421 1201 447 1201 q 320 1165 360 1201 q 281 1046 281 1128 l 385 1046 q 399 1078 386 1064 q 428 1093 413 1093 q 468 1086 453 1093 q 500 1067 483 1079 q 535 1046 518 1053 q 578 1039 551 1039 q 678 1076 639 1039 q 718 1196 718 1114 l 618 1196 z "},"Ö":{"ha":1018,"x_min":53,"x_max":965,"o":"m 508 967 q 272 899 376 964 q 110 722 168 835 q 53 468 53 610 q 109 218 53 329 q 269 44 165 107 q 507 -19 372 -19 q 744 46 640 -18 q 907 222 849 110 q 965 478 965 335 q 909 728 965 617 q 749 903 853 839 q 508 967 644 967 m 215 469 q 254 658 215 575 q 361 788 293 742 q 511 833 429 833 q 663 788 597 833 q 765 661 729 742 q 801 478 801 581 q 763 284 801 367 q 656 157 724 201 q 506 113 589 113 q 353 158 419 113 q 251 285 288 204 q 215 469 215 367 m 379 1051 q 437 1075 414 1051 q 460 1132 460 1099 q 437 1191 460 1167 q 379 1215 414 1215 q 320 1191 344 1215 q 296 1132 296 1167 q 320 1075 296 1099 q 379 1051 344 1051 m 632 1051 q 690 1075 667 1051 q 714 1132 714 1099 q 690 1191 714 1167 q 632 1215 667 1215 q 574 1191 599 1215 q 549 1132 549 1167 q 574 1075 549 1099 q 632 1051 599 1051 z "},"Ō":{"ha":1018,"x_min":53,"x_max":965,"o":"m 508 967 q 272 899 376 964 q 110 722 168 835 q 53 468 53 610 q 109 218 53 329 q 269 44 165 107 q 507 -19 372 -19 q 744 46 640 -18 q 907 222 849 110 q 965 478 965 335 q 909 728 965 617 q 749 903 853 839 q 508 967 644 967 m 215 469 q 254 658 215 575 q 361 788 293 742 q 511 833 429 833 q 663 788 597 833 q 765 661 729 742 q 801 478 801 581 q 763 284 801 367 q 656 157 724 201 q 506 113 589 113 q 353 158 419 113 q 251 285 288 204 q 215 469 215 367 m 663 1193 l 321 1193 l 321 1069 l 676 1069 l 663 1193 z "},"Ő":{"ha":1018,"x_min":53,"x_max":965,"o":"m 508 967 q 272 899 376 964 q 110 722 168 835 q 53 468 53 610 q 109 218 53 329 q 269 44 165 107 q 507 -19 372 -19 q 744 46 640 -18 q 907 222 849 110 q 965 478 965 335 q 909 728 965 617 q 749 903 853 839 q 508 967 644 967 m 215 469 q 254 658 215 575 q 361 788 293 742 q 511 833 429 833 q 663 788 597 833 q 765 661 729 742 q 801 478 801 581 q 763 284 801 367 q 656 157 724 201 q 506 113 589 113 q 353 158 419 113 q 251 285 288 204 q 215 469 215 367 m 385 1250 l 311 1056 l 419 1026 l 547 1250 l 385 1250 m 638 1250 l 564 1056 l 672 1026 l 801 1250 l 638 1250 z "},"Ŕ":{"ha":856,"x_min":122,"x_max":842,"o":"m 278 0 l 278 368 l 392 368 q 468 372 440 368 l 674 0 l 842 0 l 607 411 q 725 508 681 444 q 769 660 769 572 q 668 873 769 801 q 404 944 567 944 l 122 944 l 122 0 l 278 0 m 401 814 q 553 776 500 814 q 606 653 606 739 q 549 533 606 571 q 399 496 492 496 l 278 496 l 278 814 l 401 814 m 386 1250 l 313 1056 l 421 1026 l 549 1250 l 386 1250 z "},"Ř":{"ha":856,"x_min":122,"x_max":842,"o":"m 278 0 l 278 368 l 392 368 q 468 372 440 368 l 674 0 l 842 0 l 607 411 q 725 508 681 444 q 769 660 769 572 q 668 873 769 801 q 404 944 567 944 l 122 944 l 122 0 l 278 0 m 401 814 q 553 776 500 814 q 606 653 606 739 q 549 533 606 571 q 399 496 492 496 l 278 496 l 278 814 l 401 814 m 167 1232 l 361 1026 l 457 1026 l 650 1232 l 508 1250 l 410 1144 l 311 1250 l 167 1232 z "},"Ś":{"ha":725,"x_min":53,"x_max":688,"o":"m 69 57 q 193 6 106 31 q 340 -18 281 -18 q 528 15 450 -18 q 647 106 607 47 q 688 239 688 164 q 653 360 688 308 q 566 449 619 413 q 424 532 513 486 q 299 598 339 575 q 235 651 260 621 q 211 719 211 681 q 257 801 211 774 q 375 829 303 829 q 477 815 432 829 q 575 776 522 801 l 628 900 q 502 948 569 929 q 369 967 435 967 q 201 934 272 967 q 91 845 129 901 q 53 718 53 789 q 119 553 53 619 q 315 421 185 488 q 434 358 393 382 q 501 305 475 335 q 528 239 528 275 q 479 151 528 182 q 339 119 431 119 q 217 139 282 119 q 104 182 151 158 l 69 57 m 349 1250 l 275 1056 l 383 1026 l 511 1250 l 349 1250 z "},"Š":{"ha":725,"x_min":53,"x_max":688,"o":"m 69 57 q 193 6 106 31 q 340 -18 281 -18 q 528 15 450 -18 q 647 106 607 47 q 688 239 688 164 q 653 360 688 308 q 566 449 619 413 q 424 532 513 486 q 299 598 339 575 q 235 651 260 621 q 211 719 211 681 q 257 801 211 774 q 375 829 303 829 q 477 815 432 829 q 575 776 522 801 l 628 900 q 502 948 569 929 q 369 967 435 967 q 201 934 272 967 q 91 845 129 901 q 53 718 53 789 q 119 553 53 619 q 315 421 185 488 q 434 358 393 382 q 501 305 475 335 q 528 239 528 275 q 479 151 528 182 q 339 119 431 119 q 217 139 282 119 q 104 182 151 158 l 69 57 m 129 1232 l 324 1026 l 419 1026 l 613 1232 l 471 1250 l 372 1144 l 274 1250 l 129 1232 z "},"Ť":{"ha":807,"x_min":14,"x_max":793,"o":"m 14 821 l 311 821 l 311 0 l 469 0 l 469 821 l 793 821 l 769 944 l 14 944 l 14 821 m 151 1232 l 346 1026 l 442 1026 l 635 1232 l 493 1250 l 394 1144 l 296 1250 l 151 1232 z "},"Ù":{"ha":972,"x_min":108,"x_max":864,"o":"m 108 340 q 155 158 108 239 q 287 31 201 76 q 486 -15 372 -15 q 685 31 600 -15 q 817 158 771 76 q 864 340 864 239 l 864 944 l 707 944 l 707 353 q 647 176 707 239 q 486 113 588 113 q 325 175 385 113 q 265 353 265 238 l 265 944 l 108 944 l 108 340 m 489 1250 l 325 1250 l 453 1026 l 561 1056 l 489 1250 z "},"Ú":{"ha":972,"x_min":108,"x_max":864,"o":"m 108 340 q 155 158 108 239 q 287 31 201 76 q 486 -15 372 -15 q 685 31 600 -15 q 817 158 771 76 q 864 340 864 239 l 864 944 l 707 944 l 707 353 q 647 176 707 239 q 486 113 588 113 q 325 175 385 113 q 265 353 265 238 l 265 944 l 108 944 l 108 340 m 465 1250 l 392 1056 l 500 1026 l 628 1250 l 465 1250 z "},"Û":{"ha":972,"x_min":108,"x_max":864,"o":"m 108 340 q 155 158 108 239 q 287 31 201 76 q 486 -15 372 -15 q 685 31 600 -15 q 817 158 771 76 q 864 340 864 239 l 864 944 l 707 944 l 707 353 q 647 176 707 239 q 486 113 588 113 q 325 175 385 113 q 265 353 265 238 l 265 944 l 108 944 l 108 340 m 722 1044 l 528 1250 l 433 1250 l 239 1044 l 383 1026 l 483 1132 l 581 1026 l 722 1044 z "},"Ü":{"ha":972,"x_min":108,"x_max":864,"o":"m 108 340 q 155 158 108 239 q 287 31 201 76 q 486 -15 372 -15 q 685 31 600 -15 q 817 158 771 76 q 864 340 864 239 l 864 944 l 707 944 l 707 353 q 647 176 707 239 q 486 113 588 113 q 325 175 385 113 q 265 353 265 238 l 265 944 l 108 944 l 108 340 m 357 1051 q 415 1075 392 1051 q 438 1132 438 1099 q 415 1191 438 1167 q 357 1215 392 1215 q 298 1191 322 1215 q 274 1132 274 1167 q 298 1075 274 1099 q 357 1051 322 1051 m 610 1051 q 668 1075 644 1051 q 692 1132 692 1099 q 668 1191 692 1167 q 610 1215 644 1215 q 551 1191 576 1215 q 526 1132 526 1167 q 551 1075 526 1099 q 610 1051 576 1051 z "},"Ū":{"ha":972,"x_min":108,"x_max":864,"o":"m 108 340 q 155 158 108 239 q 287 31 201 76 q 486 -15 372 -15 q 685 31 600 -15 q 817 158 771 76 q 864 340 864 239 l 864 944 l 707 944 l 707 353 q 647 176 707 239 q 486 113 588 113 q 325 175 385 113 q 265 353 265 238 l 265 944 l 108 944 l 108 340 m 640 1193 l 299 1193 l 299 1069 l 654 1069 l 640 1193 z "},"Ů":{"ha":972,"x_min":108,"x_max":864,"o":"m 108 340 q 155 158 108 239 q 287 31 201 76 q 486 -15 372 -15 q 685 31 600 -15 q 817 158 771 76 q 864 340 864 239 l 864 944 l 707 944 l 707 353 q 647 176 707 239 q 486 113 588 113 q 325 175 385 113 q 265 353 265 238 l 265 944 l 108 944 l 108 340 m 482 1297 q 382 1258 424 1297 q 340 1163 340 1219 q 382 1070 340 1107 q 482 1033 424 1033 q 582 1070 540 1033 q 624 1163 624 1107 q 582 1258 624 1219 q 482 1297 540 1297 m 482 1107 q 442 1124 460 1107 q 425 1163 425 1140 q 442 1203 425 1186 q 482 1219 458 1219 q 522 1203 506 1219 q 538 1163 538 1186 q 521 1124 538 1140 q 482 1107 504 1107 z "},"Ű":{"ha":972,"x_min":108,"x_max":864,"o":"m 108 340 q 155 158 108 239 q 287 31 201 76 q 486 -15 372 -15 q 685 31 600 -15 q 817 158 771 76 q 864 340 864 239 l 864 944 l 707 944 l 707 353 q 647 176 707 239 q 486 113 588 113 q 325 175 385 113 q 265 353 265 238 l 265 944 l 108 944 l 108 340 m 363 1250 l 289 1056 l 397 1026 l 525 1250 l 363 1250 m 615 1250 l 542 1056 l 650 1026 l 779 1250 l 615 1250 z "},"Ų":{"ha":972,"x_min":108,"x_max":864,"o":"m 864 340 q 826 173 864 249 q 716 49 788 97 q 549 -11 644 1 q 510 -69 526 -36 q 494 -124 494 -101 q 508 -159 494 -146 q 544 -172 521 -172 q 574 -165 557 -172 q 607 -147 592 -158 l 653 -243 q 519 -287 596 -287 q 406 -244 450 -287 q 363 -137 363 -201 q 376 -73 363 -110 q 410 -10 390 -36 q 190 108 271 13 q 108 340 108 203 l 108 944 l 265 944 l 265 353 q 325 175 265 238 q 486 113 385 113 q 647 176 588 113 q 707 353 707 239 l 707 944 l 864 944 l 864 340 z "},"Ý":{"ha":824,"x_min":14,"x_max":810,"o":"m 810 944 l 644 944 l 401 529 l 167 967 l 14 917 l 325 372 l 325 0 l 481 0 l 482 369 l 810 944 m 381 1250 l 307 1056 l 415 1026 l 543 1250 l 381 1250 z "},"Ÿ":{"ha":824,"x_min":14,"x_max":810,"o":"m 810 944 l 644 944 l 401 529 l 167 967 l 14 917 l 325 372 l 325 0 l 481 0 l 482 369 l 810 944 m 274 1051 q 331 1075 308 1051 q 354 1132 354 1099 q 331 1191 354 1167 q 274 1215 308 1215 q 215 1191 239 1215 q 190 1132 190 1167 q 215 1075 190 1099 q 274 1051 239 1051 m 526 1051 q 585 1075 561 1051 q 608 1132 608 1099 q 585 1191 608 1167 q 526 1215 561 1215 q 468 1191 493 1215 q 443 1132 443 1167 q 468 1075 443 1099 q 526 1051 493 1051 z "},"Ź":{"ha":792,"x_min":25,"x_max":765,"o":"m 763 821 l 744 944 l 64 944 l 83 821 l 582 821 l 25 122 l 43 0 l 765 0 l 749 122 l 194 122 l 763 821 m 389 1250 l 315 1056 l 424 1026 l 551 1250 l 389 1250 z "},"Ż":{"ha":792,"x_min":25,"x_max":765,"o":"m 763 821 l 744 944 l 64 944 l 83 821 l 582 821 l 25 122 l 43 0 l 765 0 l 749 122 l 194 122 l 763 821 m 408 1042 q 474 1069 447 1042 q 500 1133 500 1096 q 474 1200 500 1172 q 408 1228 447 1228 q 342 1200 369 1228 q 315 1133 315 1172 q 342 1069 315 1096 q 408 1042 369 1042 z "},"Ž":{"ha":792,"x_min":25,"x_max":765,"o":"m 763 821 l 744 944 l 64 944 l 83 821 l 582 821 l 25 122 l 43 0 l 765 0 l 749 122 l 194 122 l 763 821 m 169 1232 l 364 1026 l 460 1026 l 653 1232 l 511 1250 l 413 1144 l 314 1250 l 169 1232 z "},"Ş":{"ha":725,"x_min":53,"x_max":688,"o":"m 688 239 q 610 64 688 133 q 392 -17 532 -6 l 378 -50 q 450 -98 421 -64 q 479 -169 479 -132 q 429 -272 479 -236 q 308 -307 379 -307 q 242 -297 281 -307 q 185 -272 204 -287 l 221 -178 q 266 -196 240 -187 q 308 -204 292 -204 q 348 -196 331 -204 q 365 -172 365 -187 q 331 -130 365 -147 q 242 -107 296 -112 l 279 -12 q 159 16 221 -4 q 69 57 97 36 l 104 182 q 217 139 151 158 q 339 119 282 119 q 479 151 431 119 q 528 239 528 182 q 501 305 528 275 q 434 358 475 335 q 315 421 393 382 q 119 553 185 488 q 53 718 53 619 q 91 845 53 789 q 201 934 129 901 q 369 967 272 967 q 502 948 435 967 q 628 900 569 929 l 575 776 q 477 815 522 801 q 375 829 432 829 q 257 801 303 829 q 211 719 211 774 q 235 651 211 681 q 299 598 260 621 q 424 532 339 575 q 566 449 513 486 q 653 360 619 413 q 688 239 688 308 z "},"Ţ":{"ha":807,"x_min":14,"x_max":793,"o":"m 429 -50 q 501 -98 472 -64 q 531 -169 531 -132 q 481 -272 531 -236 q 360 -307 431 -307 q 294 -297 332 -307 q 236 -272 256 -287 l 272 -178 q 317 -196 292 -187 q 360 -204 343 -204 q 399 -196 382 -204 q 417 -172 417 -187 q 382 -130 417 -147 q 293 -107 347 -112 l 336 0 l 311 0 l 311 821 l 14 821 l 14 944 l 769 944 l 793 821 l 469 821 l 469 0 l 450 0 l 429 -50 z "},"Ș":{"ha":725,"x_min":53,"x_max":688,"o":"m 69 57 q 193 6 106 31 q 340 -18 281 -18 q 528 15 450 -18 q 647 106 607 47 q 688 239 688 164 q 653 360 688 308 q 566 449 619 413 q 424 532 513 486 q 299 598 339 575 q 235 651 260 621 q 211 719 211 681 q 257 801 211 774 q 375 829 303 829 q 477 815 432 829 q 575 776 522 801 l 628 900 q 502 948 569 929 q 369 967 435 967 q 201 934 272 967 q 91 845 129 901 q 53 718 53 789 q 119 553 53 619 q 315 421 185 488 q 434 358 393 382 q 501 305 475 335 q 528 239 528 275 q 479 151 528 182 q 339 119 431 119 q 217 139 282 119 q 104 182 151 158 l 69 57 m 344 -29 q 279 -58 307 -29 q 251 -122 251 -87 q 275 -185 251 -156 q 324 -214 299 -214 q 296 -266 317 -243 q 250 -300 275 -289 l 285 -374 q 394 -278 350 -343 q 438 -142 438 -214 q 410 -60 438 -92 q 344 -29 383 -29 z "},"à":{"ha":692,"x_min":63,"x_max":617,"o":"m 143 504 q 338 550 246 550 q 460 410 457 550 l 313 410 q 131 354 200 410 q 63 197 63 299 q 123 42 63 100 q 300 -17 183 -17 q 400 7 350 -17 q 489 68 450 31 l 513 0 l 617 0 l 617 450 q 579 573 617 518 q 477 660 542 628 q 335 692 413 692 q 212 674 288 692 q 100 632 136 656 l 143 504 m 199 197 q 228 274 199 243 q 310 306 258 306 l 461 306 l 461 185 q 383 128 426 149 q 297 107 340 107 q 225 134 251 107 q 199 197 199 161 m 358 1042 l 194 1042 l 322 818 l 431 847 l 358 1042 z "},"á":{"ha":692,"x_min":63,"x_max":617,"o":"m 143 504 q 338 550 246 550 q 460 410 457 550 l 313 410 q 131 354 200 410 q 63 197 63 299 q 123 42 63 100 q 300 -17 183 -17 q 400 7 350 -17 q 489 68 450 31 l 513 0 l 617 0 l 617 450 q 579 573 617 518 q 477 660 542 628 q 335 692 413 692 q 212 674 288 692 q 100 632 136 656 l 143 504 m 199 197 q 228 274 199 243 q 310 306 258 306 l 461 306 l 461 185 q 383 128 426 149 q 297 107 340 107 q 225 134 251 107 q 199 197 199 161 m 317 1042 l 243 847 l 351 818 l 479 1042 l 317 1042 z "},"â":{"ha":692,"x_min":63,"x_max":617,"o":"m 143 504 q 338 550 246 550 q 460 410 457 550 l 313 410 q 131 354 200 410 q 63 197 63 299 q 123 42 63 100 q 300 -17 183 -17 q 400 7 350 -17 q 489 68 450 31 l 513 0 l 617 0 l 617 450 q 579 573 617 518 q 477 660 542 628 q 335 692 413 692 q 212 674 288 692 q 100 632 136 656 l 143 504 m 199 197 q 228 274 199 243 q 310 306 258 306 l 461 306 l 461 185 q 383 128 426 149 q 297 107 340 107 q 225 134 251 107 q 199 197 199 161 m 578 836 l 383 1042 l 289 1042 l 94 836 l 239 818 l 339 924 l 436 818 l 578 836 z "},"ã":{"ha":692,"x_min":63,"x_max":617,"o":"m 143 504 q 338 550 246 550 q 460 410 457 550 l 313 410 q 131 354 200 410 q 63 197 63 299 q 123 42 63 100 q 300 -17 183 -17 q 400 7 350 -17 q 489 68 450 31 l 513 0 l 617 0 l 617 450 q 579 573 617 518 q 477 660 542 628 q 335 692 413 692 q 212 674 288 692 q 100 632 136 656 l 143 504 m 199 197 q 228 274 199 243 q 310 306 258 306 l 461 306 l 461 185 q 383 128 426 149 q 297 107 340 107 q 225 134 251 107 q 199 197 199 161 m 460 988 q 447 954 458 968 q 418 940 435 940 q 382 947 397 940 q 347 965 367 953 q 308 986 326 979 q 263 993 290 993 q 162 956 201 993 q 122 838 122 919 l 226 838 q 241 870 228 856 q 269 885 254 885 q 303 878 290 885 q 338 860 317 872 q 375 838 357 846 q 419 831 393 831 q 520 868 481 831 q 560 988 560 906 l 460 988 z "},"ä":{"ha":692,"x_min":63,"x_max":617,"o":"m 143 504 q 338 550 246 550 q 460 410 457 550 l 313 410 q 131 354 200 410 q 63 197 63 299 q 123 42 63 100 q 300 -17 183 -17 q 400 7 350 -17 q 489 68 450 31 l 513 0 l 617 0 l 617 450 q 579 573 617 518 q 477 660 542 628 q 335 692 413 692 q 212 674 288 692 q 100 632 136 656 l 143 504 m 199 197 q 228 274 199 243 q 310 306 258 306 l 461 306 l 461 185 q 383 128 426 149 q 297 107 340 107 q 225 134 251 107 q 199 197 199 161 m 201 843 q 259 867 236 843 q 282 924 282 890 q 259 983 282 958 q 201 1007 236 1007 q 142 983 167 1007 q 118 924 118 958 q 142 867 118 890 q 201 843 167 843 m 454 843 q 513 867 489 843 q 536 924 536 890 q 513 983 536 958 q 454 1007 489 1007 q 396 983 421 1007 q 371 924 371 958 q 396 867 371 890 q 454 843 421 843 z "},"å":{"ha":692,"x_min":63,"x_max":617,"o":"m 143 504 q 338 550 246 550 q 460 410 457 550 l 313 410 q 131 354 200 410 q 63 197 63 299 q 123 42 63 100 q 300 -17 183 -17 q 400 7 350 -17 q 489 68 450 31 l 513 0 l 617 0 l 617 450 q 579 573 617 518 q 477 660 542 628 q 335 692 413 692 q 212 674 288 692 q 100 632 136 656 l 143 504 m 199 197 q 228 274 199 243 q 310 306 258 306 l 461 306 l 461 185 q 383 128 426 149 q 297 107 340 107 q 225 134 251 107 q 199 197 199 161 m 336 1089 q 236 1050 278 1089 q 194 954 194 1011 q 236 862 194 899 q 336 825 278 825 q 436 862 394 825 q 478 954 478 899 q 436 1050 478 1011 q 336 1089 394 1089 m 336 899 q 297 915 314 899 q 279 954 279 932 q 296 994 279 978 q 336 1011 313 1011 q 376 994 360 1011 q 392 954 392 978 q 375 915 392 932 q 336 899 358 899 z "},"ā":{"ha":692,"x_min":63,"x_max":617,"o":"m 143 504 q 338 550 246 550 q 460 410 457 550 l 313 410 q 131 354 200 410 q 63 197 63 299 q 123 42 63 100 q 300 -17 183 -17 q 400 7 350 -17 q 489 68 450 31 l 513 0 l 617 0 l 617 450 q 579 573 617 518 q 477 660 542 628 q 335 692 413 692 q 212 674 288 692 q 100 632 136 656 l 143 504 m 199 197 q 228 274 199 243 q 310 306 258 306 l 461 306 l 461 185 q 383 128 426 149 q 297 107 340 107 q 225 134 251 107 q 199 197 199 161 m 500 985 l 157 985 l 157 861 l 513 861 l 500 985 z "},"ă":{"ha":692,"x_min":63,"x_max":617,"o":"m 143 504 q 338 550 246 550 q 460 410 457 550 l 313 410 q 131 354 200 410 q 63 197 63 299 q 123 42 63 100 q 300 -17 183 -17 q 400 7 350 -17 q 489 68 450 31 l 513 0 l 617 0 l 617 450 q 579 573 617 518 q 477 660 542 628 q 335 692 413 692 q 212 674 288 692 q 100 632 136 656 l 143 504 m 199 197 q 228 274 199 243 q 310 306 258 306 l 461 306 l 461 185 q 383 128 426 149 q 297 107 340 107 q 225 134 251 107 q 199 197 199 161 m 433 1038 q 409 966 433 997 q 340 935 385 935 q 274 965 296 935 q 251 1038 251 996 l 143 1038 q 194 885 143 947 q 340 822 244 824 q 488 885 438 824 q 539 1038 539 947 l 433 1038 z "},"ą":{"ha":692,"x_min":63,"x_max":744,"o":"m 744 -243 q 611 -287 688 -287 q 498 -244 542 -287 q 454 -137 454 -201 q 472 -65 454 -107 q 511 3 489 -22 l 489 68 q 400 7 450 31 q 300 -17 350 -17 q 123 42 183 -17 q 63 197 63 100 q 131 354 63 299 q 313 410 200 410 l 460 410 q 338 550 457 550 q 143 504 246 550 l 100 632 q 212 674 136 656 q 335 692 288 692 q 477 660 413 692 q 579 573 542 628 q 617 450 617 518 l 617 6 l 657 6 q 609 -56 632 -15 q 586 -124 586 -96 q 599 -159 586 -146 q 636 -172 613 -172 q 666 -165 649 -172 q 699 -147 683 -158 l 744 -243 m 310 306 q 228 274 258 306 q 199 197 199 243 q 225 134 199 161 q 297 107 251 107 q 383 128 340 107 q 461 185 426 149 l 461 306 l 310 306 z "},"ç":{"ha":650,"x_min":39,"x_max":617,"o":"m 615 49 q 528 7 581 24 q 425 -15 475 -10 l 411 -50 q 483 -98 454 -64 q 513 -169 513 -132 q 463 -272 513 -236 q 342 -307 413 -307 q 276 -297 314 -307 q 218 -272 238 -287 l 254 -178 q 299 -196 274 -187 q 342 -204 325 -204 q 381 -196 364 -204 q 399 -172 399 -187 q 364 -130 399 -147 q 275 -107 329 -112 l 313 -12 q 112 103 185 10 q 39 338 39 196 q 81 523 39 443 q 203 647 124 603 q 388 692 282 692 q 504 673 435 692 q 617 624 574 654 l 572 513 q 477 547 518 536 q 388 558 436 558 q 252 496 304 558 q 199 338 200 433 q 249 178 199 239 q 385 117 300 117 q 478 128 436 117 q 569 163 519 139 l 615 49 z "},"ć":{"ha":650,"x_min":39,"x_max":617,"o":"m 569 163 q 478 128 519 139 q 385 117 436 117 q 249 178 300 117 q 199 338 199 239 q 252 496 200 433 q 388 558 304 558 q 477 547 436 558 q 572 513 518 536 l 617 624 q 504 673 574 654 q 388 692 435 692 q 203 647 282 692 q 81 523 124 603 q 39 338 39 443 q 81 151 39 231 q 201 26 124 71 q 385 -18 279 -18 q 503 0 433 -18 q 615 49 572 18 l 569 163 m 325 1042 l 251 847 l 360 818 l 488 1042 l 325 1042 z "},"č":{"ha":650,"x_min":39,"x_max":617,"o":"m 569 163 q 478 128 519 139 q 385 117 436 117 q 249 178 300 117 q 199 338 199 239 q 252 496 200 433 q 388 558 304 558 q 477 547 436 558 q 572 513 518 536 l 617 624 q 504 673 574 654 q 388 692 435 692 q 203 647 282 692 q 81 523 124 603 q 39 338 39 443 q 81 151 39 231 q 201 26 124 71 q 385 -18 279 -18 q 503 0 433 -18 q 615 49 572 18 l 569 163 m 111 1024 l 306 818 l 401 818 l 594 1024 l 453 1042 l 354 936 l 256 1042 l 111 1024 z "},"ď":{"ha":1022,"x_min":39,"x_max":981,"o":"m 885 1017 q 952 985 924 1017 q 981 904 981 953 q 932 752 981 831 q 811 635 883 674 l 775 708 q 837 768 817 743 q 864 832 857 793 q 815 862 839 833 q 792 922 792 890 q 819 987 792 957 q 885 1017 847 1017 m 681 979 l 681 0 l 596 0 l 563 56 q 470 1 519 21 q 375 -18 421 -18 q 197 26 272 -18 q 80 151 121 71 q 39 339 39 232 q 80 524 39 444 q 198 648 121 604 q 378 692 275 692 q 449 680 410 692 q 524 646 488 668 l 524 965 l 681 979 m 199 340 q 247 178 199 239 q 378 117 294 117 q 454 130 419 117 q 524 172 489 143 l 524 503 q 456 545 490 532 q 378 558 421 558 q 247 497 294 558 q 199 340 199 436 z "},"è":{"ha":707,"x_min":39,"x_max":669,"o":"m 669 342 q 593 593 669 494 q 368 692 517 692 q 192 647 267 692 q 78 523 118 603 q 39 338 39 443 q 135 78 39 174 q 415 -17 232 -17 q 664 61 551 -17 l 617 175 q 515 130 557 144 q 418 115 472 115 q 203 296 224 115 l 669 296 l 669 342 m 206 400 q 256 517 215 475 q 364 558 297 558 q 468 518 429 558 q 519 400 507 478 l 206 400 m 382 1042 l 218 1042 l 346 818 l 454 847 l 382 1042 z "},"é":{"ha":707,"x_min":39,"x_max":669,"o":"m 669 342 q 593 593 669 494 q 368 692 517 692 q 192 647 267 692 q 78 523 118 603 q 39 338 39 443 q 135 78 39 174 q 415 -17 232 -17 q 664 61 551 -17 l 617 175 q 515 130 557 144 q 418 115 472 115 q 203 296 224 115 l 669 296 l 669 342 m 206 400 q 256 517 215 475 q 364 558 297 558 q 468 518 429 558 q 519 400 507 478 l 206 400 m 340 1042 l 267 847 l 375 818 l 503 1042 l 340 1042 z "},"ê":{"ha":707,"x_min":39,"x_max":669,"o":"m 669 342 q 593 593 669 494 q 368 692 517 692 q 192 647 267 692 q 78 523 118 603 q 39 338 39 443 q 135 78 39 174 q 415 -17 232 -17 q 664 61 551 -17 l 617 175 q 515 130 557 144 q 418 115 472 115 q 203 296 224 115 l 669 296 l 669 342 m 206 400 q 256 517 215 475 q 364 558 297 558 q 468 518 429 558 q 519 400 507 478 l 206 400 m 601 836 l 407 1042 l 313 1042 l 118 836 l 263 818 l 363 924 l 460 818 l 601 836 z "},"ë":{"ha":707,"x_min":39,"x_max":669,"o":"m 669 342 q 593 593 669 494 q 368 692 517 692 q 192 647 267 692 q 78 523 118 603 q 39 338 39 443 q 135 78 39 174 q 415 -17 232 -17 q 664 61 551 -17 l 617 175 q 515 130 557 144 q 418 115 472 115 q 203 296 224 115 l 669 296 l 669 342 m 206 400 q 256 517 215 475 q 364 558 297 558 q 468 518 429 558 q 519 400 507 478 l 206 400 m 225 843 q 283 867 260 843 q 306 924 306 890 q 283 983 306 958 q 225 1007 260 1007 q 166 983 190 1007 q 142 924 142 958 q 166 867 142 890 q 225 843 190 843 m 478 843 q 536 867 513 843 q 560 924 560 890 q 536 983 560 958 q 478 1007 513 1007 q 419 983 444 1007 q 394 924 394 958 q 419 867 394 890 q 478 843 444 843 z "},"ē":{"ha":707,"x_min":39,"x_max":669,"o":"m 669 342 q 593 593 669 494 q 368 692 517 692 q 192 647 267 692 q 78 523 118 603 q 39 338 39 443 q 135 78 39 174 q 415 -17 232 -17 q 664 61 551 -17 l 617 175 q 515 130 557 144 q 418 115 472 115 q 203 296 224 115 l 669 296 l 669 342 m 206 400 q 256 517 215 475 q 364 558 297 558 q 468 518 429 558 q 519 400 507 478 l 206 400 m 524 985 l 181 985 l 181 861 l 536 861 l 524 985 z "},"ė":{"ha":707,"x_min":39,"x_max":669,"o":"m 669 342 q 593 593 669 494 q 368 692 517 692 q 192 647 267 692 q 78 523 118 603 q 39 338 39 443 q 135 78 39 174 q 415 -17 232 -17 q 664 61 551 -17 l 617 175 q 515 130 557 144 q 418 115 472 115 q 203 296 224 115 l 669 296 l 669 342 m 206 400 q 256 517 215 475 q 364 558 297 558 q 468 518 429 558 q 519 400 507 478 l 206 400 m 364 833 q 429 860 403 833 q 456 925 456 888 q 429 992 456 964 q 364 1019 403 1019 q 298 992 325 1019 q 271 925 271 964 q 298 860 271 888 q 364 833 325 833 z "},"ę":{"ha":707,"x_min":39,"x_max":669,"o":"m 203 296 q 418 115 224 115 q 515 130 472 115 q 617 175 557 144 l 664 61 q 556 6 613 25 l 564 6 q 516 -56 539 -15 q 493 -124 493 -96 q 506 -159 493 -146 q 543 -172 519 -172 q 573 -165 556 -172 q 606 -147 590 -158 l 651 -243 q 518 -287 594 -287 q 405 -244 449 -287 q 361 -137 361 -201 q 374 -77 361 -111 q 404 -17 386 -43 q 133 81 226 -14 q 39 338 39 175 q 78 523 39 443 q 192 647 118 603 q 368 692 267 692 q 593 593 517 692 q 669 342 669 494 l 669 296 l 203 296 m 519 400 q 468 518 507 478 q 364 558 429 558 q 256 517 297 558 q 206 400 215 475 l 519 400 z "},"ě":{"ha":707,"x_min":39,"x_max":669,"o":"m 669 342 q 593 593 669 494 q 368 692 517 692 q 192 647 267 692 q 78 523 118 603 q 39 338 39 443 q 135 78 39 174 q 415 -17 232 -17 q 664 61 551 -17 l 617 175 q 515 130 557 144 q 418 115 472 115 q 203 296 224 115 l 669 296 l 669 342 m 206 400 q 256 517 215 475 q 364 558 297 558 q 468 518 429 558 q 519 400 507 478 l 206 400 m 126 1024 l 321 818 l 417 818 l 610 1024 l 468 1042 l 369 936 l 271 1042 l 126 1024 z "},"ğ":{"ha":769,"x_min":39,"x_max":681,"o":"m 681 -46 q 590 -246 681 -172 q 340 -319 499 -319 q 210 -300 290 -319 q 85 -249 131 -281 l 132 -136 q 240 -179 194 -165 q 336 -193 285 -193 q 472 -153 419 -193 q 524 -44 524 -114 l 524 28 q 449 -6 488 6 q 375 -18 410 -18 q 197 26 272 -18 q 80 151 121 71 q 39 339 39 232 q 80 524 39 444 q 198 648 121 604 q 378 692 275 692 q 471 672 419 692 q 563 619 522 653 l 596 674 l 681 674 l 681 -46 m 378 117 q 454 130 419 117 q 524 172 489 143 l 524 503 q 456 545 490 532 q 378 558 421 558 q 247 497 294 558 q 199 340 199 436 q 247 178 199 239 q 378 117 294 117 m 453 1038 q 428 966 453 997 q 360 935 404 935 q 293 965 315 935 q 271 1038 271 996 l 163 1038 q 213 885 163 947 q 360 822 264 824 q 508 885 457 824 q 558 1038 558 947 l 453 1038 z "},"ì":{"ha":317,"x_min":10,"x_max":246,"o":"m 81 674 l 81 0 l 238 0 l 238 674 l 81 674 m 174 1042 l 10 1042 l 138 818 l 246 847 l 174 1042 z "},"í":{"ha":317,"x_min":58,"x_max":294,"o":"m 81 674 l 81 0 l 238 0 l 238 674 l 81 674 m 132 1042 l 58 847 l 167 818 l 294 1042 l 132 1042 z "},"î":{"ha":317,"x_min":-90,"x_max":393,"o":"m 81 674 l 81 0 l 238 0 l 238 674 l 81 674 m 393 836 l 199 1042 l 104 1042 l -90 836 l 54 818 l 154 924 l 251 818 l 393 836 z "},"ï":{"ha":317,"x_min":-67,"x_max":351,"o":"m 81 674 l 81 0 l 238 0 l 238 674 l 81 674 m 17 843 q 74 867 51 843 q 97 924 97 890 q 74 983 97 958 q 17 1007 51 1007 q -42 983 -18 1007 q -67 924 -67 958 q -42 867 -67 890 q 17 843 -18 843 m 269 843 q 328 867 304 843 q 351 924 351 890 q 328 983 351 958 q 269 1007 304 1007 q 211 983 236 1007 q 186 924 186 958 q 211 867 186 890 q 269 843 236 843 z "},"ī":{"ha":317,"x_min":-28,"x_max":328,"o":"m 81 674 l 81 0 l 238 0 l 238 674 l 81 674 m 315 985 l -28 985 l -28 861 l 328 861 l 315 985 z "},"į":{"ha":317,"x_min":14,"x_max":304,"o":"m 156 833 q 90 860 117 833 q 63 925 63 888 q 90 992 63 964 q 156 1019 117 1019 q 221 992 194 1019 q 247 925 247 964 q 221 860 247 888 q 156 833 194 833 m 304 -243 q 171 -287 247 -287 q 58 -244 101 -287 q 14 -137 14 -201 q 33 -62 14 -106 q 74 6 51 -18 l 81 6 l 81 674 l 238 674 l 238 0 l 210 0 q 166 -61 186 -24 q 146 -124 146 -99 q 159 -159 146 -146 q 196 -172 172 -172 q 226 -165 208 -172 q 258 -147 243 -158 l 304 -243 z "},"ľ":{"ha":589,"x_min":94,"x_max":547,"o":"m 451 1017 q 388 987 415 1017 q 360 922 360 957 q 383 861 360 889 q 432 832 407 833 q 405 768 425 793 q 343 708 385 743 l 378 635 q 499 751 450 674 q 547 904 547 829 q 519 985 547 953 q 451 1017 490 1017 m 94 965 l 94 0 l 250 0 l 250 981 l 94 965 z "},"ñ":{"ha":768,"x_min":81,"x_max":694,"o":"m 236 471 q 433 564 349 564 q 538 424 538 564 l 538 0 l 694 0 l 694 433 q 642 626 694 556 q 471 696 589 696 q 340 668 410 696 q 213 593 271 640 l 185 674 l 81 674 l 81 0 l 236 0 l 236 471 m 517 988 q 503 954 515 968 q 475 940 492 940 q 439 947 454 940 q 404 965 424 953 q 365 986 383 979 q 319 993 347 993 q 219 956 258 993 q 179 838 179 919 l 283 838 q 298 870 285 856 q 326 885 311 885 q 360 878 347 885 q 394 860 374 872 q 432 838 414 846 q 476 831 450 831 q 577 868 538 831 q 617 988 617 906 l 517 988 z "},"ń":{"ha":768,"x_min":81,"x_max":694,"o":"m 236 471 q 433 564 349 564 q 538 424 538 564 l 538 0 l 694 0 l 694 433 q 642 626 694 556 q 471 696 589 696 q 340 668 410 696 q 213 593 271 640 l 185 674 l 81 674 l 81 0 l 236 0 l 236 471 m 374 1042 l 300 847 l 408 818 l 536 1042 l 374 1042 z "},"ň":{"ha":768,"x_min":81,"x_max":694,"o":"m 236 471 q 433 564 349 564 q 538 424 538 564 l 538 0 l 694 0 l 694 433 q 642 626 694 556 q 471 696 589 696 q 340 668 410 696 q 213 593 271 640 l 185 674 l 81 674 l 81 0 l 236 0 l 236 471 m 160 1024 l 354 818 l 450 818 l 643 1024 l 501 1042 l 403 936 l 304 1042 l 160 1024 z "},"ò":{"ha":772,"x_min":39,"x_max":735,"o":"m 735 338 q 692 151 735 232 q 569 26 649 71 q 385 -18 490 -18 q 201 26 279 -18 q 81 151 124 71 q 39 338 39 231 q 81 523 39 443 q 203 647 124 603 q 388 692 282 692 q 572 648 493 692 q 692 524 650 604 q 735 338 735 443 m 385 117 q 522 179 469 117 q 574 336 574 242 q 523 497 574 435 q 388 558 472 558 q 252 496 304 558 q 199 338 200 433 q 249 178 199 239 q 385 117 300 117 m 401 1042 l 238 1042 l 365 818 l 474 847 l 401 1042 z "},"ó":{"ha":772,"x_min":39,"x_max":735,"o":"m 735 338 q 692 151 735 232 q 569 26 649 71 q 385 -18 490 -18 q 201 26 279 -18 q 81 151 124 71 q 39 338 39 231 q 81 523 39 443 q 203 647 124 603 q 388 692 282 692 q 572 648 493 692 q 692 524 650 604 q 735 338 735 443 m 385 117 q 522 179 469 117 q 574 336 574 242 q 523 497 574 435 q 388 558 472 558 q 252 496 304 558 q 199 338 200 433 q 249 178 199 239 q 385 117 300 117 m 360 1042 l 286 847 l 394 818 l 522 1042 l 360 1042 z "},"ô":{"ha":772,"x_min":39,"x_max":735,"o":"m 735 338 q 692 151 735 232 q 569 26 649 71 q 385 -18 490 -18 q 201 26 279 -18 q 81 151 124 71 q 39 338 39 231 q 81 523 39 443 q 203 647 124 603 q 388 692 282 692 q 572 648 493 692 q 692 524 650 604 q 735 338 735 443 m 385 117 q 522 179 469 117 q 574 336 574 242 q 523 497 574 435 q 388 558 472 558 q 252 496 304 558 q 199 338 200 433 q 249 178 199 239 q 385 117 300 117 m 621 836 l 426 1042 l 332 1042 l 138 836 l 282 818 l 382 924 l 479 818 l 621 836 z "},"õ":{"ha":772,"x_min":39,"x_max":735,"o":"m 735 338 q 692 151 735 232 q 569 26 649 71 q 385 -18 490 -18 q 201 26 279 -18 q 81 151 124 71 q 39 338 39 231 q 81 523 39 443 q 203 647 124 603 q 388 692 282 692 q 572 648 493 692 q 692 524 650 604 q 735 338 735 443 m 385 117 q 522 179 469 117 q 574 336 574 242 q 523 497 574 435 q 388 558 472 558 q 252 496 304 558 q 199 338 200 433 q 249 178 199 239 q 385 117 300 117 m 503 988 q 490 954 501 968 q 461 940 478 940 q 425 947 440 940 q 390 965 410 953 q 351 986 369 979 q 306 993 333 993 q 205 956 244 993 q 165 838 165 919 l 269 838 q 284 870 271 856 q 313 885 297 885 q 347 878 333 885 q 381 860 360 872 q 418 838 400 846 q 463 831 436 831 q 563 868 524 831 q 603 988 603 906 l 503 988 z "},"ö":{"ha":772,"x_min":39,"x_max":735,"o":"m 735 338 q 692 151 735 232 q 569 26 649 71 q 385 -18 490 -18 q 201 26 279 -18 q 81 151 124 71 q 39 338 39 231 q 81 523 39 443 q 203 647 124 603 q 388 692 282 692 q 572 648 493 692 q 692 524 650 604 q 735 338 735 443 m 385 117 q 522 179 469 117 q 574 336 574 242 q 523 497 574 435 q 388 558 472 558 q 252 496 304 558 q 199 338 200 433 q 249 178 199 239 q 385 117 300 117 m 244 843 q 302 867 279 843 q 325 924 325 890 q 302 983 325 958 q 244 1007 279 1007 q 185 983 210 1007 q 161 924 161 958 q 185 867 161 890 q 244 843 210 843 m 497 843 q 556 867 532 843 q 579 924 579 890 q 556 983 579 958 q 497 1007 532 1007 q 439 983 464 1007 q 414 924 414 958 q 439 867 414 890 q 497 843 464 843 z "},"ō":{"ha":772,"x_min":39,"x_max":735,"o":"m 735 338 q 692 151 735 232 q 569 26 649 71 q 385 -18 490 -18 q 201 26 279 -18 q 81 151 124 71 q 39 338 39 231 q 81 523 39 443 q 203 647 124 603 q 388 692 282 692 q 572 648 493 692 q 692 524 650 604 q 735 338 735 443 m 385 117 q 522 179 469 117 q 574 336 574 242 q 523 497 574 435 q 388 558 472 558 q 252 496 304 558 q 199 338 200 433 q 249 178 199 239 q 385 117 300 117 m 543 985 l 200 985 l 200 861 l 556 861 l 543 985 z "},"ő":{"ha":772,"x_min":39,"x_max":735,"o":"m 735 338 q 692 151 735 232 q 569 26 649 71 q 385 -18 490 -18 q 201 26 279 -18 q 81 151 124 71 q 39 338 39 231 q 81 523 39 443 q 203 647 124 603 q 388 692 282 692 q 572 648 493 692 q 692 524 650 604 q 735 338 735 443 m 385 117 q 522 179 469 117 q 574 336 574 242 q 523 497 574 435 q 388 558 472 558 q 252 496 304 558 q 199 338 200 433 q 249 178 199 239 q 385 117 300 117 m 265 1042 l 192 847 l 300 818 l 428 1042 l 265 1042 m 518 1042 l 444 847 l 553 818 l 682 1042 l 518 1042 z "},"ŕ":{"ha":489,"x_min":81,"x_max":475,"o":"m 236 429 q 358 514 292 479 q 475 549 425 549 l 443 674 q 330 639 394 674 q 215 563 265 604 l 164 674 l 81 674 l 81 0 l 236 0 l 236 429 m 229 1042 l 156 847 l 264 818 l 392 1042 l 229 1042 z "},"ř":{"ha":489,"x_min":17,"x_max":500,"o":"m 236 429 q 358 514 292 479 q 475 549 425 549 l 443 674 q 330 639 394 674 q 215 563 265 604 l 164 674 l 81 674 l 81 0 l 236 0 l 236 429 m 17 1024 l 211 818 l 307 818 l 500 1024 l 358 1042 l 260 936 l 161 1042 l 17 1024 z "},"ś":{"ha":585,"x_min":42,"x_max":547,"o":"m 43 47 q 152 -1 85 17 q 269 -18 219 -18 q 476 36 404 -18 q 547 189 547 90 q 318 411 547 329 q 229 450 261 431 q 196 493 197 469 q 225 544 196 524 q 297 565 254 565 q 385 553 344 565 q 475 519 426 542 l 524 625 q 413 674 479 656 q 300 692 347 692 q 111 638 181 692 q 42 492 42 585 q 264 286 42 358 q 397 182 397 243 q 360 129 397 149 q 269 110 322 110 q 90 156 186 110 l 43 47 m 272 1042 l 199 847 l 307 818 l 435 1042 l 272 1042 z "},"š":{"ha":585,"x_min":42,"x_max":547,"o":"m 43 47 q 152 -1 85 17 q 269 -18 219 -18 q 476 36 404 -18 q 547 189 547 90 q 318 411 547 329 q 229 450 261 431 q 196 493 197 469 q 225 544 196 524 q 297 565 254 565 q 385 553 344 565 q 475 519 426 542 l 524 625 q 413 674 479 656 q 300 692 347 692 q 111 638 181 692 q 42 492 42 585 q 264 286 42 358 q 397 182 397 243 q 360 129 397 149 q 269 110 322 110 q 90 156 186 110 l 43 47 m 58 1024 l 253 818 l 349 818 l 542 1024 l 400 1042 l 301 936 l 203 1042 l 58 1024 z "},"ť":{"ha":708,"x_min":18,"x_max":667,"o":"m 572 1017 q 507 987 535 1017 q 479 922 479 957 q 503 862 479 890 q 551 832 526 833 q 524 768 544 793 q 463 708 504 743 l 499 635 q 618 751 569 674 q 667 904 667 829 q 639 985 667 953 q 572 1017 611 1017 m 267 864 l 111 833 l 111 668 l 18 668 l 18 549 l 111 549 l 111 201 q 175 33 111 92 q 351 -25 239 -25 q 419 -15 382 -25 q 476 10 456 -4 l 433 125 q 364 108 396 108 q 291 141 315 108 q 267 228 267 174 l 267 549 l 436 549 l 389 668 l 267 668 l 267 864 z "},"ù":{"ha":768,"x_min":75,"x_max":689,"o":"m 532 203 q 335 110 419 110 q 231 250 231 110 l 231 674 l 75 674 l 75 240 q 297 -22 75 -22 q 428 6 358 -22 q 556 81 497 33 l 583 0 l 689 0 l 689 674 l 532 674 l 532 203 m 400 1042 l 236 1042 l 364 818 l 472 847 l 400 1042 z "},"ú":{"ha":768,"x_min":75,"x_max":689,"o":"m 532 203 q 335 110 419 110 q 231 250 231 110 l 231 674 l 75 674 l 75 240 q 297 -22 75 -22 q 428 6 358 -22 q 556 81 497 33 l 583 0 l 689 0 l 689 674 l 532 674 l 532 203 m 357 1042 l 283 847 l 392 818 l 519 1042 l 357 1042 z "},"û":{"ha":768,"x_min":75,"x_max":689,"o":"m 532 203 q 335 110 419 110 q 231 250 231 110 l 231 674 l 75 674 l 75 240 q 297 -22 75 -22 q 428 6 358 -22 q 556 81 497 33 l 583 0 l 689 0 l 689 674 l 532 674 l 532 203 m 619 836 l 425 1042 l 331 1042 l 136 836 l 281 818 l 381 924 l 478 818 l 619 836 z "},"ü":{"ha":768,"x_min":75,"x_max":689,"o":"m 532 203 q 335 110 419 110 q 231 250 231 110 l 231 674 l 75 674 l 75 240 q 297 -22 75 -22 q 428 6 358 -22 q 556 81 497 33 l 583 0 l 689 0 l 689 674 l 532 674 l 532 203 m 242 843 q 299 867 276 843 q 322 924 322 890 q 299 983 322 958 q 242 1007 276 1007 q 183 983 207 1007 q 158 924 158 958 q 183 867 158 890 q 242 843 207 843 m 494 843 q 553 867 529 843 q 576 924 576 890 q 553 983 576 958 q 494 1007 529 1007 q 436 983 461 1007 q 411 924 411 958 q 436 867 411 890 q 494 843 461 843 z "},"ū":{"ha":768,"x_min":75,"x_max":689,"o":"m 532 203 q 335 110 419 110 q 231 250 231 110 l 231 674 l 75 674 l 75 240 q 297 -22 75 -22 q 428 6 358 -22 q 556 81 497 33 l 583 0 l 689 0 l 689 674 l 532 674 l 532 203 m 542 985 l 199 985 l 199 861 l 554 861 l 542 985 z "},"ů":{"ha":768,"x_min":75,"x_max":689,"o":"m 532 203 q 335 110 419 110 q 231 250 231 110 l 231 674 l 75 674 l 75 240 q 297 -22 75 -22 q 428 6 358 -22 q 556 81 497 33 l 583 0 l 689 0 l 689 674 l 532 674 l 532 203 m 376 1089 q 276 1050 318 1089 q 235 954 235 1011 q 276 862 235 899 q 376 825 318 825 q 476 862 435 825 q 518 954 518 899 q 476 1050 518 1011 q 376 1089 435 1089 m 376 899 q 337 915 354 899 q 319 954 319 932 q 336 994 319 978 q 376 1011 353 1011 q 416 994 400 1011 q 432 954 432 978 q 415 915 432 932 q 376 899 399 899 z "},"ű":{"ha":768,"x_min":75,"x_max":689,"o":"m 532 203 q 335 110 419 110 q 231 250 231 110 l 231 674 l 75 674 l 75 240 q 297 -22 75 -22 q 428 6 358 -22 q 556 81 497 33 l 583 0 l 689 0 l 689 674 l 532 674 l 532 203 m 264 1042 l 190 847 l 299 818 l 426 1042 l 264 1042 m 517 1042 l 443 847 l 551 818 l 681 1042 l 517 1042 z "},"ų":{"ha":768,"x_min":75,"x_max":800,"o":"m 800 -243 q 667 -287 743 -287 q 553 -244 597 -287 q 510 -137 510 -201 q 528 -62 510 -106 q 569 6 547 -18 l 582 6 l 556 81 q 428 6 497 33 q 297 -22 358 -22 q 75 240 75 -22 l 75 674 l 231 674 l 231 250 q 335 110 231 110 q 532 203 419 110 l 532 674 l 689 674 l 689 6 l 713 6 q 665 -56 688 -15 q 642 -124 642 -96 q 655 -159 642 -146 q 692 -172 668 -172 q 722 -165 704 -172 q 754 -147 739 -158 l 800 -243 z "},"ý":{"ha":678,"x_min":14,"x_max":664,"o":"m 218 -60 q 162 -127 203 -101 q 53 -182 121 -153 l 107 -307 q 265 -233 193 -287 q 364 -106 336 -179 l 664 674 l 500 674 l 338 226 l 165 699 l 14 649 l 253 32 l 218 -60 m 304 1042 l 231 847 l 339 818 l 467 1042 l 304 1042 z "},"ÿ":{"ha":678,"x_min":14,"x_max":664,"o":"m 218 -60 q 162 -127 203 -101 q 53 -182 121 -153 l 107 -307 q 265 -233 193 -287 q 364 -106 336 -179 l 664 674 l 500 674 l 338 226 l 165 699 l 14 649 l 253 32 l 218 -60 m 189 843 q 247 867 224 843 q 269 924 269 890 q 247 983 269 958 q 189 1007 224 1007 q 130 983 154 1007 q 106 924 106 958 q 130 867 106 890 q 189 843 154 843 m 442 843 q 500 867 476 843 q 524 924 524 890 q 500 983 524 958 q 442 1007 476 1007 q 383 983 408 1007 q 358 924 358 958 q 383 867 358 890 q 442 843 408 843 z "},"ź":{"ha":608,"x_min":22,"x_max":588,"o":"m 76 546 l 379 546 l 22 82 l 42 0 l 588 0 l 574 125 l 217 125 l 579 586 l 571 674 l 44 674 l 76 546 m 278 1042 l 204 847 l 313 818 l 440 1042 l 278 1042 z "},"ż":{"ha":608,"x_min":22,"x_max":588,"o":"m 76 546 l 379 546 l 22 82 l 42 0 l 588 0 l 574 125 l 217 125 l 579 586 l 571 674 l 44 674 l 76 546 m 301 833 q 367 860 340 833 q 393 925 393 888 q 367 992 393 964 q 301 1019 340 1019 q 235 992 263 1019 q 208 925 208 964 q 235 860 208 888 q 301 833 263 833 z "},"ž":{"ha":608,"x_min":22,"x_max":588,"o":"m 76 546 l 379 546 l 22 82 l 42 0 l 588 0 l 574 125 l 217 125 l 579 586 l 571 674 l 44 674 l 76 546 m 64 1024 l 258 818 l 354 818 l 547 1024 l 406 1042 l 307 936 l 208 1042 l 64 1024 z "},"ş":{"ha":585,"x_min":42,"x_max":547,"o":"m 547 189 q 489 47 547 100 q 319 -15 431 -6 l 306 -50 q 378 -98 349 -64 q 407 -169 407 -132 q 357 -272 407 -236 q 236 -307 307 -307 q 170 -297 208 -307 q 113 -272 132 -287 l 149 -178 q 194 -196 168 -187 q 236 -204 219 -204 q 276 -196 258 -204 q 293 -172 293 -187 q 258 -130 293 -147 q 169 -107 224 -112 l 207 -12 q 117 10 163 -6 q 43 47 72 25 l 90 156 q 269 110 186 110 q 360 129 322 110 q 397 182 397 149 q 264 286 397 243 q 42 492 42 358 q 111 638 42 585 q 300 692 181 692 q 413 674 347 692 q 524 625 479 656 l 475 519 q 385 553 426 542 q 297 565 344 565 q 225 544 254 565 q 196 493 196 524 q 229 450 197 469 q 318 411 261 431 q 547 189 547 329 z "},"ţ":{"ha":500,"x_min":18,"x_max":476,"o":"m 339 -50 q 411 -98 382 -64 q 440 -169 440 -132 q 390 -272 440 -236 q 269 -307 340 -307 q 203 -297 242 -307 q 146 -272 165 -287 l 182 -178 q 227 -196 201 -187 q 269 -204 253 -204 q 309 -196 292 -204 q 326 -172 326 -187 q 292 -130 326 -147 q 203 -107 257 -112 l 243 -7 q 145 69 179 17 q 111 201 111 122 l 111 549 l 18 549 l 18 668 l 111 668 l 111 833 l 267 864 l 267 668 l 389 668 l 436 549 l 267 549 l 267 228 q 291 141 267 174 q 364 108 315 108 q 433 125 396 108 l 476 10 q 419 -15 456 -4 q 351 -25 382 -25 l 349 -25 l 339 -50 z "},"ș":{"ha":585,"x_min":42,"x_max":547,"o":"m 43 47 q 152 -1 85 17 q 269 -18 219 -18 q 476 36 404 -18 q 547 189 547 90 q 318 411 547 329 q 229 450 261 431 q 196 493 197 469 q 225 544 196 524 q 297 565 254 565 q 385 553 344 565 q 475 519 426 542 l 524 625 q 413 674 479 656 q 300 692 347 692 q 111 638 181 692 q 42 492 42 585 q 264 286 42 358 q 397 182 397 243 q 360 129 397 149 q 269 110 322 110 q 90 156 186 110 l 43 47 m 272 -29 q 207 -58 235 -29 q 179 -122 179 -87 q 203 -185 179 -156 q 251 -214 226 -214 q 224 -266 244 -243 q 178 -300 203 -289 l 213 -374 q 322 -278 278 -343 q 365 -142 365 -214 q 338 -60 365 -92 q 272 -29 311 -29 z "},"­":{"ha":167,"x_min":0,"x_max":0,"o":""},"µ":{"ha":782,"x_min":89,"x_max":703,"o":"m 703 0 l 597 0 l 569 81 q 442 6 511 33 q 311 -22 372 -22 q 244 -15 276 -22 l 244 -289 l 89 -304 l 89 674 l 244 674 l 244 250 q 349 110 244 110 q 546 203 433 110 l 546 674 l 703 674 l 703 0 z "},"ˉ":{"ha":383,"x_min":14,"x_max":369,"o":"m 356 985 l 14 985 l 14 861 l 369 861 l 356 985 z "},"ℓ":{"ha":553,"x_min":14,"x_max":511,"o":"m 51 224 q 108 258 79 236 l 108 225 q 325 -15 108 -15 q 409 1 367 -15 q 488 50 451 18 l 433 149 q 342 119 393 119 q 283 151 299 119 q 267 242 267 183 l 267 379 q 443 581 375 475 q 511 778 511 686 q 456 922 511 868 q 318 975 401 975 q 169 919 229 975 q 108 768 108 863 l 108 429 q 14 363 76 404 l 51 224 m 357 769 q 267 571 357 681 l 267 761 q 279 819 267 800 q 313 839 292 838 q 344 822 332 839 q 357 769 357 804 z "},"Ω":{"ha":986,"x_min":53,"x_max":935,"o":"m 765 475 q 723 261 765 360 q 610 126 681 163 l 608 0 l 926 0 l 935 126 l 803 126 q 895 281 861 183 q 929 479 929 378 q 878 733 929 624 q 728 903 826 842 q 493 967 629 964 q 259 903 357 964 q 110 733 161 842 q 58 479 58 624 q 92 280 58 376 q 183 126 125 183 l 53 126 l 60 0 l 378 0 l 375 126 q 263 261 304 163 q 221 475 221 360 q 255 665 221 583 q 351 790 289 746 q 493 833 413 833 q 635 790 574 833 q 731 665 697 746 q 765 475 765 583 z "},"∆":{"ha":890,"x_min":14,"x_max":876,"o":"m 876 0 l 876 22 l 513 944 l 375 944 l 14 0 l 876 0 m 440 732 l 674 125 l 214 125 l 440 732 z "},"∕":{"ha":606,"x_min":14,"x_max":592,"o":"m 172 -6 l 592 981 l 432 986 l 14 0 l 172 -6 z "},"∙":{"ha":365,"x_min":42,"x_max":324,"o":"m 182 318 q 283 358 242 318 q 324 457 324 399 q 283 556 324 515 q 182 597 242 597 q 83 556 124 597 q 42 457 42 514 q 83 358 42 399 q 182 318 124 318 z "},"₺":{"ha":735,"x_min":0,"x_max":707,"o":"m 260 0 q 485 55 383 0 q 647 210 588 110 q 707 443 707 311 l 547 443 q 511 292 547 360 q 413 184 475 224 q 275 144 350 144 l 275 493 l 519 581 l 497 699 l 275 622 l 275 683 l 519 769 l 497 889 l 275 811 l 275 981 l 119 965 l 119 754 l 0 713 l 22 593 l 119 628 l 119 567 l 0 524 l 22 404 l 119 439 l 119 0 l 260 0 z "},"₽":{"ha":808,"x_min":38,"x_max":769,"o":"m 278 279 l 653 279 l 667 157 l 278 157 l 278 0 l 122 0 l 122 157 l 51 157 l 38 279 l 122 279 l 122 342 l 51 342 l 38 464 l 122 464 l 122 944 l 404 944 q 669 872 568 944 q 769 646 769 799 q 717 475 769 544 q 580 372 665 406 q 392 339 494 339 l 278 339 l 278 279 m 399 468 q 547 510 492 468 q 606 638 601 551 q 553 774 606 733 q 401 814 501 814 l 278 814 l 278 468 l 399 468 z "},"¢":{"ha":650,"x_min":39,"x_max":617,"o":"m 615 49 q 476 -6 561 11 l 476 -158 l 326 -158 l 326 -14 q 116 99 193 4 q 39 338 39 193 q 115 574 39 479 q 324 688 192 668 l 324 831 l 475 846 l 475 681 q 617 624 565 658 l 572 513 q 477 547 518 536 q 388 558 436 558 q 252 496 304 558 q 199 338 200 433 q 249 178 199 239 q 385 117 300 117 q 478 128 436 117 q 569 163 519 139 l 615 49 z "},"£":{"ha":675,"x_min":67,"x_max":661,"o":"m 639 122 l 293 122 q 328 286 328 174 l 328 418 l 550 418 l 497 536 l 328 536 l 328 696 q 350 782 328 750 q 419 814 372 814 q 489 799 449 814 l 532 913 q 476 939 513 928 q 408 950 440 950 q 231 884 293 950 q 169 701 169 818 l 169 536 l 67 536 l 67 418 l 169 418 l 169 240 q 147 153 169 183 q 69 122 124 122 l 82 0 l 661 0 l 639 122 z "},"¤":{"ha":960,"x_min":42,"x_max":918,"o":"m 782 143 q 838 336 836 228 q 783 529 835 447 l 918 667 l 824 781 l 678 633 q 483 692 588 690 q 285 632 378 690 l 136 781 l 42 667 l 182 525 q 142 438 157 488 q 128 336 128 389 q 179 146 128 231 l 42 4 l 136 -108 l 283 40 q 479 -18 374 -17 q 676 39 589 -18 l 824 -108 l 918 4 l 782 143 m 676 335 q 649 231 676 278 q 577 156 622 183 q 479 128 532 128 q 383 156 426 128 q 315 233 340 185 q 289 338 289 281 q 315 440 289 393 q 386 515 342 488 q 482 543 431 543 q 579 516 535 543 q 650 441 624 489 q 676 335 676 393 z "},"¥":{"ha":824,"x_min":14,"x_max":810,"o":"m 810 944 l 644 944 l 401 529 l 167 967 l 14 917 l 325 372 l 325 0 l 481 0 l 482 369 l 810 944 m 406 369 l 406 382 l 418 382 l 418 369 l 406 369 m 418 161 l 418 147 l 406 147 l 406 161 l 418 161 z "},"€":{"ha":850,"x_min":0,"x_max":826,"o":"m 826 39 q 702 -3 776 14 q 567 -19 628 -19 q 297 64 406 -19 q 147 288 189 147 l 15 288 l 0 404 l 125 404 q 122 467 122 446 q 126 536 122 503 l 15 536 l 0 651 l 150 651 q 306 880 194 796 q 575 964 418 964 q 697 949 625 964 q 819 906 768 933 l 771 793 q 662 824 696 817 q 571 832 628 832 q 422 784 489 832 q 319 651 354 736 l 614 651 l 626 536 l 289 536 q 285 468 285 503 q 289 404 285 436 l 614 404 l 626 288 l 318 288 q 414 160 351 207 q 560 113 476 113 q 767 156 668 113 l 826 39 z "},"$":{"ha":725,"x_min":53,"x_max":688,"o":"m 522 942 q 628 900 574 926 l 575 776 q 477 815 522 801 q 375 829 432 829 q 257 801 303 829 q 211 719 211 774 q 235 651 211 681 q 299 598 260 621 q 424 532 339 575 q 566 449 513 486 q 653 360 619 413 q 688 239 688 308 q 643 100 688 160 q 515 10 599 40 l 515 -171 l 407 -171 l 407 -14 q 346 -18 376 -18 l 324 -18 l 324 -171 l 217 -171 l 217 0 q 69 57 118 25 l 104 182 q 217 139 151 158 q 339 119 282 119 q 479 151 431 119 q 528 239 528 182 q 501 305 528 275 q 434 358 475 335 q 315 421 393 382 q 119 553 185 488 q 53 718 53 619 q 97 854 53 794 q 224 943 142 914 l 224 1103 l 331 1119 l 331 967 l 360 967 q 413 964 385 967 l 413 1103 l 522 1119 l 522 942 z "},",":{"ha":275,"x_min":28,"x_max":233,"o":"m 138 185 q 73 156 100 185 q 46 92 46 128 q 69 30 46 58 q 118 0 93 1 q 90 -65 111 -39 q 28 -124 69 -90 l 64 -197 q 185 -80 136 -158 q 233 72 233 -1 q 206 153 233 121 q 138 185 178 185 z "},".":{"ha":268,"x_min":42,"x_max":226,"o":"m 135 0 q 200 26 174 0 q 226 92 226 53 q 200 158 226 131 q 135 185 174 185 q 69 158 96 185 q 42 92 42 131 q 69 26 42 53 q 135 0 96 0 z "},"!":{"ha":269,"x_min":42,"x_max":228,"o":"m 218 975 l 51 975 l 75 329 l 197 272 l 218 975 m 135 185 q 69 158 96 185 q 42 92 42 131 q 69 26 42 53 q 135 0 96 0 q 201 26 174 0 q 228 92 228 53 q 201 158 228 131 q 135 185 174 185 z "},"¡":{"ha":269,"x_min":42,"x_max":228,"o":"m 135 789 q 201 816 174 789 q 228 882 228 843 q 201 948 228 921 q 135 975 174 975 q 69 948 96 975 q 42 882 42 921 q 69 816 42 843 q 135 789 96 789 m 51 0 l 217 0 l 197 646 l 74 701 l 51 0 z "},":":{"ha":268,"x_min":42,"x_max":226,"o":"m 135 464 q 200 491 174 464 q 226 557 226 518 q 199 622 226 594 q 135 650 172 650 q 69 622 96 650 q 42 557 42 594 q 69 491 42 518 q 135 464 96 464 m 135 13 q 200 40 174 13 q 226 106 226 67 q 200 171 226 144 q 135 197 174 197 q 69 171 96 197 q 42 106 42 144 q 69 40 42 67 q 135 13 96 13 z "},";":{"ha":276,"x_min":28,"x_max":235,"o":"m 142 650 q 75 622 103 650 q 47 557 47 594 q 75 491 47 518 q 142 464 103 464 q 208 491 181 464 q 235 557 235 518 q 208 622 235 594 q 142 650 181 650 m 138 197 q 73 169 100 197 q 46 104 46 140 q 69 42 46 71 q 118 13 93 14 q 90 -52 111 -26 q 28 -111 69 -78 l 64 -185 q 185 -67 136 -146 q 233 85 233 11 q 206 166 233 135 q 138 197 178 197 z "},"?":{"ha":593,"x_min":14,"x_max":551,"o":"m 276 974 q 140 954 201 974 q 14 894 78 935 l 33 756 q 272 843 164 843 q 369 813 333 843 q 406 728 406 783 q 342 613 406 667 q 174 525 278 558 l 185 281 l 296 235 l 317 444 q 485 576 419 496 q 551 731 551 656 q 481 908 551 843 q 276 974 411 974 m 232 185 q 167 158 194 185 q 140 92 140 131 q 167 26 140 53 q 232 0 194 0 q 298 26 271 0 q 325 92 325 53 q 298 158 325 131 q 232 185 271 185 z "},"¿":{"ha":592,"x_min":42,"x_max":578,"o":"m 360 721 q 426 748 399 721 q 453 814 453 775 q 426 880 453 853 q 360 907 399 907 q 294 880 321 907 q 267 814 267 853 q 294 748 267 775 q 360 721 321 721 m 314 -67 q 453 -47 390 -67 q 578 13 515 -28 l 558 153 q 319 64 432 64 q 223 94 258 64 q 188 178 188 124 q 251 294 188 240 q 419 383 314 349 l 407 626 l 296 672 l 276 464 q 108 332 174 411 q 42 176 42 253 q 111 -1 42 65 q 314 -67 181 -67 z "},"*":{"ha":521,"x_min":14,"x_max":507,"o":"m 197 924 l 49 956 l 14 849 l 163 818 l 60 674 l 154 601 l 261 746 l 368 601 l 461 674 l 358 819 l 507 849 l 472 956 l 324 924 l 322 1068 l 200 1068 l 197 924 z "},"\"":{"ha":515,"x_min":28,"x_max":474,"o":"m 136 1017 q 72 987 99 1017 q 44 922 44 957 q 68 861 44 889 q 117 832 92 833 q 90 769 110 793 q 28 708 69 744 l 63 635 q 183 751 135 674 q 232 904 232 829 q 203 985 232 953 q 136 1017 175 1017 m 381 1017 q 315 987 343 1017 q 288 922 288 957 q 311 861 288 889 q 361 832 335 833 q 333 768 354 793 q 269 708 313 743 l 307 635 q 426 751 378 674 q 474 904 474 829 q 447 985 474 953 q 381 1017 419 1017 z "},"'":{"ha":274,"x_min":28,"x_max":232,"o":"m 136 1017 q 72 987 99 1017 q 44 922 44 957 q 68 861 44 889 q 117 832 92 833 q 90 769 110 793 q 28 708 69 744 l 63 635 q 183 751 135 674 q 232 904 232 829 q 203 985 232 953 q 136 1017 175 1017 z "},"‘":{"ha":275,"x_min":35,"x_max":240,"o":"m 129 635 q 194 663 167 635 q 221 728 221 692 q 197 790 221 761 q 149 819 174 819 q 176 883 156 858 q 240 943 197 908 l 203 1017 q 83 900 132 978 q 35 747 35 822 q 62 667 35 699 q 129 635 89 635 z "},"’":{"ha":274,"x_min":28,"x_max":232,"o":"m 136 1017 q 72 987 99 1017 q 44 922 44 957 q 68 861 44 889 q 117 832 92 833 q 90 769 110 793 q 28 708 69 744 l 63 635 q 183 751 135 674 q 232 904 232 829 q 203 985 232 953 q 136 1017 175 1017 z "},"‚":{"ha":274,"x_min":28,"x_max":232,"o":"m 136 185 q 72 156 99 185 q 44 92 44 128 q 68 30 44 58 q 117 0 92 1 q 90 -63 110 -39 q 28 -124 69 -87 l 63 -197 q 183 -80 135 -158 q 232 72 232 -1 q 203 153 232 121 q 136 185 175 185 z "},"“":{"ha":518,"x_min":42,"x_max":490,"o":"m 136 635 q 201 663 174 635 q 228 728 228 692 q 204 790 228 761 q 156 819 181 819 q 183 883 163 858 q 247 943 204 908 l 210 1017 q 90 900 139 978 q 42 747 42 822 q 69 667 42 699 q 136 635 96 635 m 378 635 q 444 664 415 635 q 472 728 472 693 q 448 790 472 761 q 400 819 424 819 q 428 884 407 858 q 490 943 449 910 l 453 1017 q 333 900 382 978 q 285 747 285 822 q 312 667 285 699 q 378 635 339 635 z "},"”":{"ha":515,"x_min":28,"x_max":474,"o":"m 136 1017 q 72 987 99 1017 q 44 922 44 957 q 68 861 44 889 q 117 832 92 833 q 90 769 110 793 q 28 708 69 744 l 63 635 q 183 751 135 674 q 232 904 232 829 q 203 985 232 953 q 136 1017 175 1017 m 381 1017 q 315 987 343 1017 q 288 922 288 957 q 311 861 288 889 q 361 832 335 833 q 333 768 354 793 q 269 708 313 743 l 307 635 q 426 751 378 674 q 474 904 474 829 q 447 985 474 953 q 381 1017 419 1017 z "},"„":{"ha":515,"x_min":28,"x_max":474,"o":"m 136 185 q 72 156 99 185 q 44 92 44 128 q 68 30 44 58 q 117 0 92 1 q 90 -62 110 -37 q 28 -122 71 -86 l 63 -197 q 183 -80 135 -158 q 232 72 232 -1 q 203 153 232 121 q 136 185 175 185 m 381 185 q 315 156 343 185 q 288 92 288 126 q 311 30 288 58 q 361 0 335 1 q 333 -64 354 -39 q 269 -124 313 -89 l 307 -197 q 426 -80 378 -158 q 474 72 474 -1 q 447 153 474 121 q 381 185 419 185 z "},"·":{"ha":268,"x_min":42,"x_max":226,"o":"m 135 271 q 200 298 174 271 q 226 364 226 325 q 200 429 226 403 q 135 456 174 456 q 69 429 96 456 q 42 364 42 403 q 69 298 42 325 q 135 271 96 271 z "},"(":{"ha":407,"x_min":69,"x_max":365,"o":"m 365 -8 q 261 200 307 61 q 215 446 215 339 q 260 685 215 549 q 365 900 306 822 l 243 944 q 114 699 158 826 q 69 444 69 572 q 115 185 69 314 q 243 -53 160 56 l 365 -8 z "},")":{"ha":407,"x_min":42,"x_max":338,"o":"m 42 899 q 145 690 100 829 q 190 444 190 550 q 146 205 190 342 q 42 -10 101 68 l 164 -53 q 293 193 249 67 q 338 444 338 319 q 292 705 338 575 q 164 944 247 835 l 42 899 z "},"[":{"ha":471,"x_min":139,"x_max":457,"o":"m 433 -1 l 292 -1 l 292 844 l 433 844 l 457 967 l 139 967 l 139 -122 l 457 -122 l 433 -1 z "},"]":{"ha":471,"x_min":14,"x_max":332,"o":"m 35 844 l 176 844 l 176 -1 l 35 -1 l 14 -122 l 332 -122 l 332 967 l 14 967 l 35 844 z "},"{":{"ha":397,"x_min":42,"x_max":383,"o":"m 244 431 q 289 485 275 451 q 303 571 303 519 q 296 619 303 597 q 276 668 289 640 q 260 713 265 696 q 254 750 254 729 q 271 781 254 767 q 319 796 288 796 l 368 796 l 383 915 l 325 915 q 176 874 226 915 q 125 754 125 832 q 147 649 125 715 q 167 558 167 588 q 147 501 167 524 q 100 479 128 479 l 42 479 l 42 376 l 100 376 q 149 355 128 376 q 171 301 171 333 q 147 208 171 271 q 131 156 139 183 q 124 110 124 129 q 325 -58 124 -58 l 383 -58 l 368 61 l 319 61 q 272 75 289 61 q 254 107 254 89 q 260 147 254 128 q 278 196 265 165 q 297 243 290 222 q 303 286 303 264 q 244 431 303 383 z "},"}":{"ha":396,"x_min":13,"x_max":354,"o":"m 151 431 q 93 286 93 383 q 99 243 93 264 q 118 196 106 222 q 136 147 131 165 q 142 107 142 128 q 124 75 142 89 q 76 61 107 61 l 26 61 l 13 -58 l 71 -58 q 272 110 272 -58 q 265 156 272 129 q 249 208 257 183 q 225 301 225 271 q 247 355 225 333 q 296 376 268 376 l 354 376 l 354 479 l 296 479 q 249 501 268 479 q 229 558 229 524 q 249 649 229 588 q 271 754 271 715 q 220 874 271 832 q 71 915 169 915 l 13 915 l 26 796 l 76 796 q 125 781 108 796 q 142 750 142 767 q 136 713 142 729 q 119 668 131 696 q 100 619 107 640 q 93 571 93 597 q 107 485 93 519 q 151 431 121 451 z "},"/":{"ha":606,"x_min":14,"x_max":592,"o":"m 172 -6 l 592 981 l 432 986 l 14 0 l 172 -6 z "},"\\":{"ha":606,"x_min":14,"x_max":592,"o":"m 14 981 l 432 -6 l 592 0 l 174 986 l 14 981 z "},"|":{"ha":399,"x_min":122,"x_max":276,"o":"m 276 -11 l 276 978 l 122 989 l 122 0 l 276 -11 z "},"¦":{"ha":399,"x_min":122,"x_max":276,"o":"m 276 564 l 276 978 l 122 989 l 122 576 l 276 564 m 276 -11 l 276 400 l 122 410 l 122 0 l 276 -11 z "},"«":{"ha":543,"x_min":42,"x_max":515,"o":"m 288 219 l 160 340 l 288 461 l 257 565 l 42 372 l 42 308 l 257 115 l 288 219 m 515 219 l 388 340 l 515 461 l 486 565 l 269 372 l 269 308 l 486 115 l 515 219 z "},"»":{"ha":546,"x_min":28,"x_max":504,"o":"m 28 461 l 156 340 l 28 219 l 60 115 l 274 308 l 274 372 l 60 565 l 28 461 m 257 461 l 386 340 l 257 219 l 288 115 l 504 308 l 504 372 l 288 565 l 257 461 z "},"π":{"ha":886,"x_min":14,"x_max":872,"o":"m 575 551 l 575 0 l 732 0 l 732 551 l 872 551 l 872 674 l 14 674 l 14 551 l 154 551 l 154 0 l 310 0 l 310 551 l 575 551 z "},"†":{"ha":593,"x_min":42,"x_max":551,"o":"m 42 868 l 68 725 l 215 725 l 229 0 l 368 -6 l 383 725 l 551 725 l 526 868 l 383 868 l 383 1083 l 215 1088 l 215 868 l 42 868 z "},"‡":{"ha":607,"x_min":42,"x_max":565,"o":"m 565 225 l 540 368 l 390 368 l 392 710 l 565 710 l 540 853 l 390 853 l 396 1083 l 215 1088 l 222 853 l 42 853 l 68 710 l 219 710 l 215 368 l 42 368 l 68 225 l 219 225 l 213 -8 l 393 1 l 386 225 l 565 225 z "},"•":{"ha":365,"x_min":42,"x_max":324,"o":"m 182 318 q 283 358 242 318 q 324 457 324 399 q 283 556 324 515 q 182 597 242 597 q 83 556 124 597 q 42 457 42 514 q 83 358 42 399 q 182 318 124 318 z "},"…":{"ha":713,"x_min":42,"x_max":671,"o":"m 128 0 q 188 24 164 0 q 213 83 213 49 q 188 145 213 119 q 128 171 163 171 q 67 145 92 171 q 42 83 42 119 q 67 24 42 49 q 128 0 92 0 m 360 0 q 419 24 394 0 q 443 83 443 49 q 419 145 443 119 q 360 171 394 171 q 299 145 324 171 q 274 83 274 119 q 299 24 274 49 q 360 0 324 0 m 586 0 q 647 24 622 0 q 671 83 671 49 q 646 145 671 119 q 586 171 621 171 q 526 145 551 171 q 501 83 501 119 q 526 24 501 49 q 586 0 550 0 z "},"‹":{"ha":315,"x_min":42,"x_max":288,"o":"m 288 225 l 165 340 l 288 456 l 257 567 l 42 374 l 42 307 l 257 115 l 288 225 z "},"›":{"ha":315,"x_min":28,"x_max":274,"o":"m 28 456 l 149 340 l 28 225 l 58 115 l 274 307 l 274 374 l 58 567 l 28 456 z "},"-":{"ha":456,"x_min":42,"x_max":414,"o":"m 56 318 l 414 318 l 400 442 l 42 442 l 56 318 z "},"_":{"ha":613,"x_min":42,"x_max":571,"o":"m 56 0 l 571 0 l 557 122 l 42 122 l 56 0 z "},"–":{"ha":613,"x_min":42,"x_max":571,"o":"m 56 318 l 571 318 l 557 442 l 42 442 l 56 318 z "},"—":{"ha":757,"x_min":42,"x_max":715,"o":"m 56 318 l 715 318 l 703 442 l 42 442 l 56 318 z "},"#":{"ha":779,"x_min":42,"x_max":738,"o":"m 350 553 l 388 713 l 256 715 l 217 553 l 42 553 l 56 436 l 189 436 l 151 272 l 42 272 l 56 156 l 125 156 l 88 -8 l 219 -15 l 258 156 l 431 156 l 394 -8 l 526 -15 l 564 156 l 738 156 l 725 272 l 592 272 l 629 436 l 738 436 l 725 553 l 657 553 l 693 713 l 558 715 l 522 553 l 350 553 m 286 272 l 324 436 l 494 436 l 457 272 l 286 272 z "},"%":{"ha":1261,"x_min":39,"x_max":1222,"o":"m 497 -6 l 914 981 l 758 986 l 340 0 l 497 -6 m 39 739 q 70 614 39 667 q 153 533 101 561 q 265 504 204 504 q 377 533 325 504 q 460 616 429 563 q 492 739 492 669 q 461 865 492 811 q 378 947 431 918 q 265 975 326 975 q 153 946 206 975 q 70 863 101 917 q 39 739 39 808 m 174 740 q 201 828 174 797 q 265 860 228 860 q 332 828 306 860 q 358 739 358 797 q 331 649 358 681 q 265 618 303 618 q 199 649 225 618 q 174 740 174 681 m 771 235 q 802 109 771 163 q 885 28 833 56 q 999 0 938 0 q 1108 29 1057 0 q 1191 112 1160 58 q 1222 235 1222 165 q 1192 360 1222 307 q 1110 442 1161 414 q 999 469 1060 469 q 885 441 938 469 q 802 359 833 413 q 771 235 771 306 m 906 236 q 933 324 906 293 q 999 356 961 356 q 1064 324 1038 356 q 1090 235 1090 292 q 1063 144 1090 176 q 999 113 1036 113 q 932 144 958 113 q 906 236 906 176 z "},"+":{"ha":746,"x_min":42,"x_max":704,"o":"m 451 738 l 306 742 l 306 440 l 42 440 l 53 321 l 306 321 l 306 11 l 451 6 l 451 321 l 704 321 l 690 440 l 451 440 l 451 738 z "},"÷":{"ha":703,"x_min":42,"x_max":661,"o":"m 350 500 q 421 529 392 500 q 450 599 450 558 q 421 669 450 640 q 350 699 392 699 q 279 669 308 699 q 250 599 250 640 q 279 529 250 558 q 350 500 308 500 m 54 318 l 661 318 l 647 442 l 42 442 l 54 318 m 350 44 q 422 74 392 44 q 451 144 451 104 q 422 215 451 186 q 350 244 392 244 q 281 215 310 244 q 251 144 251 186 q 281 74 251 104 q 350 44 310 44 z "},"×":{"ha":761,"x_min":42,"x_max":719,"o":"m 538 42 l 379 244 l 201 42 l 42 42 l 306 354 l 64 665 l 224 665 l 382 463 l 558 665 l 719 665 l 454 351 l 697 42 l 538 42 z "},"±":{"ha":660,"x_min":42,"x_max":618,"o":"m 400 738 l 265 742 l 265 524 l 42 524 l 54 415 l 265 415 l 265 190 l 400 183 l 400 415 l 618 415 l 606 524 l 400 524 l 400 738 m 54 0 l 618 0 l 611 110 l 44 110 l 54 0 z "},"<":{"ha":474,"x_min":42,"x_max":446,"o":"m 446 526 l 414 653 l 42 378 l 42 301 l 414 26 l 446 154 l 196 340 l 446 526 z "},"=":{"ha":710,"x_min":42,"x_max":668,"o":"m 56 436 l 668 436 l 656 553 l 42 553 l 56 436 m 56 156 l 668 156 l 656 272 l 42 272 l 56 156 z "},">":{"ha":474,"x_min":28,"x_max":432,"o":"m 28 526 l 278 340 l 28 154 l 60 26 l 432 301 l 432 378 l 60 653 l 28 526 z "},"°":{"ha":350,"x_min":14,"x_max":336,"o":"m 175 997 q 61 952 108 997 q 14 843 14 907 q 61 734 14 778 q 175 690 108 690 q 288 734 240 690 q 336 843 336 778 q 288 952 336 907 q 175 997 240 997 m 201 804 q 176 796 192 796 q 140 815 153 796 q 131 842 131 825 q 149 878 131 864 q 176 885 160 885 q 211 868 199 885 q 219 840 219 856 q 201 804 219 817 z "},"¹":{"ha":407,"x_min":14,"x_max":313,"o":"m 221 1061 l 14 967 l 69 867 l 171 917 l 171 467 l 313 467 l 313 1061 l 221 1061 z "},"²":{"ha":510,"x_min":21,"x_max":482,"o":"m 242 1071 q 121 1053 174 1071 q 21 1008 68 1035 l 74 907 q 155 942 115 928 q 235 956 194 956 q 297 935 274 956 q 319 888 319 915 q 299 808 319 843 q 232 732 279 772 l 35 568 l 35 467 l 482 467 l 465 576 l 221 576 l 318 657 q 430 776 396 724 q 464 888 464 828 q 440 975 464 933 q 365 1044 415 1017 q 242 1071 315 1071 z "},"³":{"ha":508,"x_min":0,"x_max":464,"o":"m 235 1071 q 124 1053 175 1071 q 18 1000 72 1035 l 75 901 q 140 940 107 926 q 215 954 172 954 q 285 937 261 954 q 308 890 308 919 q 281 826 308 851 q 190 801 254 801 l 132 801 l 147 693 l 183 693 q 319 588 319 693 q 288 525 319 549 q 207 501 257 501 q 136 512 167 501 q 60 549 106 522 l 0 450 q 105 404 46 422 q 219 386 164 386 q 349 413 293 386 q 434 485 404 439 q 464 589 464 532 q 431 695 464 650 q 358 749 399 740 q 424 803 396 763 q 453 892 453 844 q 396 1020 453 969 q 235 1071 339 1071 z "},"¼":{"ha":1204,"x_min":14,"x_max":1176,"o":"m 221 1061 l 14 967 l 69 867 l 171 917 l 171 467 l 313 467 l 313 1061 l 221 1061 m 229 -186 l 994 972 l 826 972 l 63 -186 l 229 -186 m 1176 4 l 1056 4 l 1056 446 l 957 446 l 613 4 l 626 -110 l 914 -110 l 914 -228 l 1056 -228 l 1056 -110 l 1164 -110 l 1176 4 m 757 4 l 914 204 l 914 4 l 757 4 z "},"½":{"ha":1228,"x_min":14,"x_max":1200,"o":"m 221 1061 l 14 967 l 69 867 l 171 917 l 171 467 l 313 467 l 313 1061 l 221 1061 m 222 -186 l 986 972 l 819 972 l 56 -186 l 222 -186 m 960 451 q 840 433 892 451 q 739 389 789 415 l 792 286 q 953 335 882 335 q 1016 313 993 335 q 1039 261 1039 290 q 1019 186 1039 218 q 950 111 999 154 l 753 -53 l 753 -153 l 1200 -153 l 1183 -44 l 939 -44 l 1036 36 q 1149 156 1114 103 q 1183 267 1183 208 q 1159 355 1183 313 q 1084 424 1135 397 q 960 451 1033 451 z "},"¾":{"ha":1200,"x_min":0,"x_max":1172,"o":"m 235 1071 q 124 1053 175 1071 q 18 1000 72 1035 l 75 901 q 140 940 107 926 q 215 954 172 954 q 285 936 261 954 q 308 890 308 918 q 277 826 308 850 q 190 801 246 801 l 132 801 l 147 693 l 183 693 q 319 588 319 693 q 288 525 319 549 q 207 501 257 501 q 136 512 167 501 q 60 549 106 522 l 0 450 q 105 404 46 422 q 219 386 164 386 q 349 413 293 386 q 434 485 404 439 q 464 589 464 532 q 431 695 464 650 q 358 749 399 740 q 424 803 396 763 q 453 892 453 844 q 396 1020 453 969 q 235 1071 339 1071 m 293 -186 l 1058 972 l 892 972 l 128 -186 l 293 -186 m 608 4 l 624 -110 l 911 -110 l 911 -228 l 1053 -228 l 1053 -110 l 1161 -110 l 1172 4 l 1053 4 l 1053 446 l 954 446 l 608 4 m 911 4 l 753 4 l 911 204 l 911 4 z "},"℮":{"ha":707,"x_min":39,"x_max":669,"o":"m 669 342 q 593 593 669 494 q 368 692 517 692 q 192 647 267 692 q 78 523 118 603 q 39 338 39 443 q 135 78 39 174 q 415 -17 232 -17 q 664 61 551 -17 l 617 175 q 515 130 557 144 q 418 115 472 115 q 203 296 224 115 l 669 296 l 669 342 m 206 400 q 256 517 215 475 q 364 558 297 558 q 468 518 429 558 q 519 400 507 478 l 206 400 z "},"∂":{"ha":772,"x_min":39,"x_max":735,"o":"m 160 1042 q 456 883 325 988 q 660 644 586 779 q 735 361 735 508 q 693 162 735 247 q 572 29 651 76 q 385 -18 493 -18 q 201 26 279 -18 q 81 151 124 71 q 39 338 39 231 q 81 522 39 442 q 201 647 124 603 q 381 692 278 692 q 456 682 413 692 q 106 928 336 833 l 160 1042 m 385 117 q 522 179 469 117 q 574 336 574 242 q 547 511 574 431 q 388 558 479 558 q 252 496 304 558 q 199 338 200 433 q 249 178 199 239 q 385 117 300 117 z "},"∏":{"ha":907,"x_min":122,"x_max":785,"o":"m 275 824 l 629 824 l 629 0 l 785 0 l 785 944 l 122 944 l 122 0 l 275 0 l 275 824 z "},"∑":{"ha":667,"x_min":42,"x_max":639,"o":"m 44 822 l 289 478 l 42 122 l 42 0 l 639 0 l 615 122 l 208 122 l 432 453 l 432 507 l 214 822 l 583 822 l 560 944 l 44 944 l 44 822 z "},"−":{"ha":664,"x_min":42,"x_max":622,"o":"m 53 318 l 622 318 l 607 442 l 42 442 l 53 318 z "},"√":{"ha":840,"x_min":14,"x_max":826,"o":"m 174 446 l 14 440 l 247 0 l 417 -6 l 826 981 l 669 986 l 326 164 l 174 446 z "},"∞":{"ha":1142,"x_min":39,"x_max":1104,"o":"m 335 646 q 183 605 250 646 q 77 494 115 564 q 39 342 39 425 q 77 192 39 257 q 183 90 115 126 q 338 53 251 53 q 463 87 406 53 q 560 176 519 121 q 672 86 608 118 q 807 54 735 54 q 960 94 892 54 q 1066 204 1028 135 q 1104 358 1104 274 q 1066 508 1104 443 q 959 610 1028 574 q 804 647 890 647 q 679 614 736 647 q 582 525 622 581 q 469 614 533 582 q 335 646 406 646 m 631 329 q 696 463 649 407 q 804 519 743 519 q 920 474 875 519 q 965 361 965 428 q 920 235 965 288 q 804 183 875 183 q 699 216 747 185 q 622 299 651 247 l 631 329 m 513 372 q 447 236 493 292 q 338 181 401 181 q 222 226 267 181 q 178 339 178 272 q 223 464 178 413 q 339 515 268 515 q 442 483 394 514 q 519 403 490 453 l 513 372 z "},"∫":{"ha":544,"x_min":0,"x_max":544,"o":"m 349 836 q 435 953 349 953 q 500 938 463 953 l 544 1053 q 490 1078 525 1068 q 425 1088 456 1088 q 253 1026 314 1088 q 193 853 193 964 l 193 6 q 174 -81 193 -50 q 107 -112 154 -112 q 75 -108 93 -112 q 42 -97 57 -103 l 0 -212 q 53 -238 19 -228 q 118 -249 88 -249 q 289 -186 229 -249 q 349 -12 349 -124 l 349 836 z "},"≈":{"ha":725,"x_min":42,"x_max":683,"o":"m 564 592 q 543 547 561 561 q 504 531 525 532 q 361 560 440 531 q 228 589 275 589 q 42 428 42 589 l 160 403 q 181 448 161 433 q 221 463 200 463 q 368 435 292 463 q 496 404 442 404 q 627 438 571 404 q 683 565 683 472 l 564 592 m 564 322 q 543 277 561 292 q 504 261 525 263 q 361 290 440 261 q 228 321 278 321 q 98 285 154 321 q 42 158 42 250 l 160 135 q 181 178 161 164 q 221 192 200 192 q 368 164 292 192 q 496 133 442 133 q 626 168 569 133 q 683 296 683 203 l 564 322 z "},"≠":{"ha":710,"x_min":42,"x_max":668,"o":"m 42 553 l 56 436 l 322 436 l 249 272 l 42 272 l 56 156 l 197 156 l 122 -14 l 260 -21 l 340 156 l 668 156 l 656 272 l 393 272 l 464 436 l 668 436 l 656 553 l 515 553 l 589 718 l 449 722 l 372 553 l 42 553 z "},"≤":{"ha":494,"x_min":42,"x_max":467,"o":"m 467 569 l 438 699 l 42 475 l 42 375 l 438 153 l 467 282 l 214 425 l 467 569 m 53 0 l 464 0 l 457 111 l 43 111 l 53 0 z "},"≥":{"ha":496,"x_min":28,"x_max":454,"o":"m 28 569 l 282 425 l 28 282 l 60 153 l 454 375 l 454 475 l 60 699 l 28 569 m 39 0 l 450 0 l 442 111 l 29 111 l 39 0 z "},"‰":{"ha":1788,"x_min":39,"x_max":1750,"o":"m 499 -6 l 917 981 l 760 986 l 343 0 l 499 -6 m 265 975 q 153 946 206 975 q 70 863 101 917 q 39 739 39 808 q 70 614 39 667 q 153 533 101 561 q 265 504 204 504 q 377 533 325 504 q 460 616 429 563 q 492 739 492 669 q 461 865 492 811 q 378 947 431 918 q 265 975 326 975 m 265 860 q 332 828 306 860 q 358 739 358 797 q 331 649 358 681 q 265 618 303 618 q 199 649 225 618 q 174 740 174 681 q 201 828 174 797 q 265 860 228 860 m 999 469 q 885 441 938 469 q 802 359 833 413 q 771 235 771 306 q 802 109 771 163 q 885 28 833 56 q 999 0 938 0 q 1108 29 1057 0 q 1191 112 1160 58 q 1222 235 1222 165 q 1192 360 1222 307 q 1110 442 1161 414 q 999 469 1060 469 m 1524 469 q 1410 441 1463 469 q 1327 359 1358 413 q 1296 235 1296 306 q 1326 109 1296 163 q 1409 28 1357 56 q 1524 0 1461 0 q 1634 29 1582 0 q 1718 112 1686 58 q 1750 235 1750 165 q 1719 360 1750 307 q 1635 442 1688 414 q 1524 469 1583 469 m 999 356 q 1064 324 1038 356 q 1090 235 1090 292 q 1063 144 1090 176 q 999 113 1036 113 q 932 144 958 113 q 906 236 906 176 q 933 324 906 293 q 999 356 961 356 m 1524 356 q 1588 324 1563 356 q 1614 235 1614 292 q 1588 144 1614 176 q 1524 113 1561 113 q 1456 144 1482 113 q 1429 236 1429 176 q 1458 324 1429 293 q 1524 356 1486 356 z "},"⁄":{"ha":606,"x_min":14,"x_max":592,"o":"m 172 -6 l 592 981 l 432 986 l 14 0 l 172 -6 z "},"◊":{"ha":785,"x_min":42,"x_max":743,"o":"m 743 438 l 424 832 l 361 832 l 42 438 l 42 394 l 361 0 l 424 0 l 743 394 l 743 438 m 392 172 l 196 415 l 392 661 l 589 415 l 392 172 z "},"©":{"ha":1132,"x_min":39,"x_max":1093,"o":"m 1093 467 q 1028 731 1093 613 q 843 919 963 850 q 565 989 724 989 q 288 919 407 989 q 103 731 168 850 q 39 467 39 613 q 103 203 39 322 q 288 15 168 85 q 565 -54 407 -54 q 843 15 724 -54 q 1028 203 963 85 q 1093 467 1093 322 m 144 468 q 196 688 144 590 q 343 840 247 785 q 565 896 439 896 q 788 840 693 896 q 935 688 883 785 q 986 468 986 590 q 935 249 986 346 q 788 96 883 151 q 565 40 693 40 q 343 96 439 40 q 196 249 247 151 q 144 468 144 346 m 589 143 q 696 160 635 143 q 796 206 757 176 l 751 321 q 672 287 706 297 q 592 276 638 276 q 474 326 514 276 q 435 471 435 376 q 476 608 435 557 q 593 660 518 660 q 672 650 640 660 q 754 615 704 640 l 797 733 q 696 778 756 761 q 592 794 636 794 q 427 754 499 794 q 315 640 356 714 q 275 469 275 567 q 358 232 275 321 q 589 143 442 143 z "},"®":{"ha":1008,"x_min":39,"x_max":969,"o":"m 969 676 q 913 913 969 807 q 750 1078 856 1018 q 504 1139 644 1139 q 258 1078 364 1139 q 96 912 153 1017 q 39 676 39 807 q 96 444 39 549 q 259 278 153 339 q 504 217 365 217 q 750 278 644 217 q 913 444 856 339 q 969 676 969 549 m 138 678 q 182 870 138 786 q 309 1001 226 954 q 504 1049 392 1049 q 698 1001 615 1049 q 825 869 781 954 q 869 678 869 785 q 825 488 869 572 q 698 356 781 404 q 504 307 615 307 q 309 356 392 307 q 182 488 226 404 q 138 678 138 572 m 622 650 q 687 704 663 669 q 711 789 711 739 q 656 906 711 867 q 511 944 601 944 l 322 944 l 322 422 l 435 422 l 435 626 l 515 626 l 613 422 l 739 422 l 622 650 m 482 853 q 567 840 540 853 q 594 783 594 826 q 565 731 594 744 q 481 717 536 717 l 435 717 l 435 853 l 482 853 z "},"™":{"ha":1046,"x_min":14,"x_max":994,"o":"m 14 854 l 175 854 l 175 424 l 289 424 l 289 854 l 464 854 l 450 944 l 14 944 l 14 854 m 879 424 l 994 424 l 994 944 l 942 944 l 764 706 l 572 944 l 517 944 l 517 424 l 632 424 l 632 704 l 750 561 l 783 567 l 879 693 l 879 424 z "},"&":{"ha":942,"x_min":53,"x_max":903,"o":"m 679 900 q 433 967 551 967 q 285 931 349 967 q 186 837 221 896 q 151 707 151 778 q 192 574 151 632 q 91 451 129 524 q 53 300 53 378 q 101 128 53 199 q 231 21 149 57 q 417 -17 314 -15 q 704 83 596 -17 l 813 -15 l 903 99 l 792 197 q 857 464 849 313 l 719 519 q 674 304 714 397 l 433 525 q 339 625 367 583 q 311 714 311 667 q 344 797 311 763 q 435 831 378 831 q 530 817 490 831 q 626 776 569 804 l 679 900 m 593 185 q 417 122 522 122 q 274 168 332 122 q 215 303 215 214 q 236 394 217 351 q 289 467 256 436 q 333 422 308 444 l 593 185 z "},"@":{"ha":1061,"x_min":39,"x_max":1024,"o":"m 614 593 q 458 557 531 593 q 340 456 385 521 q 296 306 296 390 q 356 145 296 204 q 536 86 417 86 q 600 97 568 86 q 658 122 632 107 q 769 85 703 85 q 953 173 883 85 q 1024 425 1024 261 q 967 635 1024 542 q 810 781 910 728 q 585 833 710 833 q 298 763 422 833 q 106 572 174 692 q 39 308 39 451 q 103 76 39 178 q 274 -83 168 -26 q 494 -139 379 -139 q 644 -126 575 -139 q 778 -81 713 -114 l 739 39 q 628 1 689 13 q 508 -11 567 -11 q 344 28 419 -11 q 224 140 268 67 q 179 308 179 213 q 235 519 179 428 q 385 660 292 611 q 582 710 478 710 q 743 672 672 710 q 853 568 814 635 q 893 417 893 501 q 877 306 893 354 q 835 233 861 258 q 778 207 808 207 q 747 222 761 207 q 735 261 733 236 l 767 538 l 722 593 l 614 593 m 535 207 q 459 236 483 207 q 435 306 435 265 q 488 432 435 385 q 615 479 540 479 l 632 479 l 606 274 q 581 225 600 243 q 535 207 563 207 z "},"^":{"ha":615,"x_min":14,"x_max":601,"o":"m 601 199 l 360 542 l 257 542 l 14 199 l 174 199 l 307 389 l 442 199 l 601 199 z "},"~":{"ha":631,"x_min":42,"x_max":589,"o":"m 178 250 q 192 291 179 278 q 221 304 206 304 q 269 298 249 304 q 315 281 290 292 q 369 260 346 267 q 426 254 393 254 q 543 304 497 254 q 589 461 589 354 l 453 461 q 438 419 451 432 q 408 406 424 406 q 363 411 382 406 q 318 429 343 417 q 264 449 288 442 q 206 456 240 456 q 88 405 133 456 q 42 250 42 354 l 178 250 z "},"§":{"ha":822,"x_min":53,"x_max":783,"o":"m 783 356 q 756 245 783 294 q 678 161 729 196 q 688 92 688 132 q 647 -42 688 17 q 528 -133 607 -100 q 340 -165 450 -165 q 193 -141 281 -165 q 69 -90 106 -117 l 104 35 q 217 -8 151 11 q 339 -28 282 -28 q 479 3 431 -28 q 528 92 528 35 q 501 158 528 128 q 434 211 475 188 q 315 274 393 235 q 119 406 185 340 q 53 571 53 472 q 81 680 53 631 q 160 764 108 729 q 149 835 149 797 q 187 962 149 906 q 297 1051 225 1018 q 465 1083 368 1083 q 599 1064 531 1083 q 724 1017 667 1044 l 672 893 q 574 932 619 918 q 472 946 529 946 q 353 918 399 946 q 307 836 307 890 q 331 767 307 797 q 395 715 356 738 q 519 649 435 692 q 662 566 608 603 q 749 477 715 529 q 783 356 783 425 m 424 385 q 526 328 492 349 q 590 282 561 307 q 624 356 624 311 q 597 422 624 392 q 530 475 571 451 q 411 538 489 499 q 243 643 297 597 q 211 572 211 614 q 235 503 211 533 q 299 451 260 474 q 424 385 339 428 z "},"ª":{"ha":457,"x_min":39,"x_max":418,"o":"m 92 835 q 222 864 169 864 q 275 844 257 864 q 296 793 293 825 l 208 793 q 86 755 133 794 q 39 649 39 715 q 81 544 39 583 q 200 504 124 504 q 265 519 232 504 q 324 556 297 535 l 353 515 l 418 515 l 418 808 q 364 927 418 879 q 221 975 310 975 q 136 963 183 975 q 64 935 89 950 l 92 835 m 157 656 q 174 687 157 675 q 219 699 190 699 l 299 699 l 299 651 q 204 614 257 614 q 169 626 182 614 q 157 656 157 638 z "},"¬":{"ha":714,"x_min":14,"x_max":672,"o":"m 25 440 l 539 440 l 539 163 l 672 156 l 672 494 l 661 564 l 14 564 l 25 440 z "},"¶":{"ha":1229,"x_min":39,"x_max":1190,"o":"m 901 821 l 901 0 l 1058 0 l 1058 821 l 1190 821 l 1190 944 l 401 944 q 139 872 239 944 q 39 646 39 799 q 90 475 39 544 q 226 372 140 406 q 417 339 313 339 l 456 339 l 456 0 l 611 0 l 611 821 l 901 821 z "},"º":{"ha":533,"x_min":39,"x_max":496,"o":"m 265 975 q 101 911 163 975 q 39 739 39 847 q 98 567 39 631 q 261 504 157 504 q 431 567 367 504 q 496 738 496 631 q 434 911 496 847 q 265 975 372 975 m 268 864 q 360 738 360 864 q 335 644 360 675 q 264 614 310 614 q 197 645 219 614 q 174 739 174 676 q 199 833 174 803 q 268 864 225 864 z "},"Ģ":{"ha":874,"x_min":53,"x_max":807,"o":"m 665 132 q 519 113 593 113 q 362 156 431 113 q 254 281 293 200 q 215 468 215 361 q 260 666 215 583 q 379 790 304 749 q 544 832 454 832 q 635 824 601 832 q 744 793 669 817 l 793 906 q 667 949 742 933 q 542 964 593 964 q 291 901 403 964 q 116 724 179 838 q 53 467 53 610 q 110 219 53 331 q 274 44 167 108 q 524 -19 381 -19 q 678 -1 603 -19 q 807 49 754 18 l 807 506 l 476 506 l 464 386 l 665 386 l 665 132 m 526 -29 q 461 -58 489 -29 q 433 -122 433 -87 q 457 -185 433 -156 q 506 -214 481 -214 q 478 -266 499 -243 q 432 -300 457 -289 l 467 -374 q 576 -278 532 -343 q 619 -142 619 -214 q 592 -60 619 -92 q 526 -29 565 -29 z "},"Ķ":{"ha":890,"x_min":122,"x_max":876,"o":"m 278 311 l 278 0 l 122 0 l 122 944 l 278 944 l 278 528 l 699 965 l 811 875 l 482 526 l 876 0 l 685 0 l 375 415 l 278 311 m 483 -29 q 418 -58 446 -29 q 390 -122 390 -87 q 414 -185 390 -156 q 463 -214 438 -214 q 435 -266 456 -243 q 389 -300 414 -289 l 424 -374 q 533 -278 489 -343 q 576 -142 576 -214 q 549 -60 576 -92 q 483 -29 522 -29 z "},"Ļ":{"ha":735,"x_min":122,"x_max":721,"o":"m 278 944 l 122 944 l 122 0 l 721 0 l 699 122 l 278 122 l 278 944 m 494 -29 q 429 -58 457 -29 q 401 -122 401 -87 q 425 -185 401 -156 q 474 -214 449 -214 q 446 -266 467 -243 q 400 -300 425 -289 l 435 -374 q 544 -278 500 -343 q 588 -142 588 -214 q 560 -60 588 -92 q 494 -29 533 -29 z "},"Ņ":{"ha":1013,"x_min":122,"x_max":890,"o":"m 742 0 l 890 0 l 890 944 l 733 944 l 733 279 l 269 944 l 122 944 l 122 0 l 278 0 l 278 669 l 742 0 m 517 -29 q 451 -58 479 -29 q 424 -122 424 -87 q 447 -185 424 -156 q 496 -214 471 -214 q 468 -266 489 -243 q 422 -300 447 -289 l 457 -374 q 566 -278 522 -343 q 610 -142 610 -214 q 583 -60 610 -92 q 517 -29 556 -29 z "},"Ŗ":{"ha":856,"x_min":122,"x_max":842,"o":"m 278 0 l 278 368 l 392 368 q 468 372 440 368 l 674 0 l 842 0 l 607 411 q 725 508 681 444 q 769 660 769 572 q 668 873 769 801 q 404 944 567 944 l 122 944 l 122 0 l 278 0 m 401 814 q 553 776 500 814 q 606 653 606 739 q 549 533 606 571 q 399 496 492 496 l 278 496 l 278 814 l 401 814 m 469 -29 q 404 -58 432 -29 q 376 -122 376 -87 q 400 -185 376 -156 q 449 -214 424 -214 q 421 -266 442 -243 q 375 -300 400 -289 l 410 -374 q 519 -278 475 -343 q 563 -142 563 -214 q 535 -60 563 -92 q 469 -29 508 -29 z "},"Ț":{"ha":807,"x_min":14,"x_max":793,"o":"m 14 821 l 311 821 l 311 0 l 469 0 l 469 821 l 793 821 l 769 944 l 14 944 l 14 821 m 396 -29 q 331 -58 358 -29 q 303 -122 303 -87 q 326 -185 303 -156 q 375 -214 350 -214 q 347 -266 368 -243 q 301 -300 326 -289 l 336 -374 q 445 -278 401 -343 q 489 -142 489 -214 q 462 -60 489 -92 q 396 -29 435 -29 z "},"ģ":{"ha":769,"x_min":39,"x_max":681,"o":"m 371 760 q 305 792 332 760 q 278 872 278 824 q 322 1007 278 943 q 429 1104 365 1071 l 465 1029 q 419 996 440 1018 q 392 944 397 974 q 440 915 415 944 q 465 854 465 886 q 437 790 465 819 q 371 760 408 760 m 681 -46 q 590 -246 681 -172 q 340 -319 499 -319 q 210 -300 290 -319 q 85 -249 131 -281 l 132 -136 q 240 -179 194 -165 q 336 -193 285 -193 q 472 -153 419 -193 q 524 -44 524 -114 l 524 29 q 447 -6 486 7 q 375 -18 408 -18 q 197 26 272 -18 q 80 151 121 71 q 39 339 39 232 q 80 524 39 444 q 198 648 121 604 q 378 692 275 692 q 469 672 417 692 q 563 619 521 653 l 596 674 l 681 674 l 681 -46 m 378 117 q 454 130 419 117 q 524 172 489 143 l 524 503 q 456 545 490 532 q 378 558 421 558 q 247 497 294 558 q 199 340 199 436 q 247 178 199 239 q 378 117 294 117 z "},"ķ":{"ha":697,"x_min":94,"x_max":697,"o":"m 329 306 l 517 0 l 697 0 l 439 406 l 633 585 l 544 692 l 250 413 l 250 981 l 94 965 l 94 0 l 250 0 l 250 232 l 329 306 m 382 -29 q 317 -58 344 -29 q 289 -122 289 -87 q 313 -185 289 -156 q 361 -214 336 -214 q 333 -266 354 -243 q 288 -300 313 -289 l 322 -374 q 431 -278 388 -343 q 475 -142 475 -214 q 448 -60 475 -92 q 382 -29 421 -29 z "},"ļ":{"ha":343,"x_min":86,"x_max":274,"o":"m 94 965 l 94 0 l 250 0 l 250 981 l 94 965 m 181 -29 q 115 -58 143 -29 q 88 -122 88 -87 q 111 -185 88 -156 q 160 -214 135 -214 q 132 -266 153 -243 q 86 -300 111 -289 l 121 -374 q 230 -278 186 -343 q 274 -142 274 -214 q 247 -60 274 -92 q 181 -29 219 -29 z "},"ņ":{"ha":768,"x_min":81,"x_max":694,"o":"m 236 471 q 433 564 349 564 q 538 424 538 564 l 538 0 l 694 0 l 694 433 q 642 626 694 556 q 471 696 589 696 q 340 668 410 696 q 213 593 271 640 l 185 674 l 81 674 l 81 0 l 236 0 l 236 471 m 401 -29 q 336 -58 364 -29 q 308 -122 308 -87 q 332 -185 308 -156 q 381 -214 356 -214 q 353 -266 374 -243 q 307 -300 332 -289 l 342 -374 q 451 -278 407 -343 q 494 -142 494 -214 q 467 -60 494 -92 q 401 -29 440 -29 z "},"ŗ":{"ha":489,"x_min":68,"x_max":475,"o":"m 236 429 q 358 514 292 479 q 475 549 425 549 l 443 674 q 330 639 394 674 q 215 563 265 604 l 164 674 l 81 674 l 81 0 l 236 0 l 236 429 m 163 -29 q 97 -58 125 -29 q 69 -122 69 -87 q 93 -185 69 -156 q 142 -214 117 -214 q 114 -266 135 -243 q 68 -300 93 -289 l 103 -374 q 212 -278 168 -343 q 256 -142 256 -214 q 228 -60 256 -92 q 163 -29 201 -29 z "},"ț":{"ha":500,"x_min":18,"x_max":476,"o":"m 267 864 l 111 833 l 111 668 l 18 668 l 18 549 l 111 549 l 111 201 q 175 33 111 92 q 351 -25 239 -25 q 419 -15 382 -25 q 476 10 456 -4 l 433 125 q 364 108 396 108 q 291 141 315 108 q 267 228 267 174 l 267 549 l 436 549 l 389 668 l 267 668 l 267 864 m 306 -29 q 240 -58 268 -29 q 213 -122 213 -87 q 236 -185 213 -156 q 285 -214 260 -214 q 257 -266 278 -243 q 211 -300 236 -289 l 246 -374 q 355 -278 311 -343 q 399 -142 399 -214 q 372 -60 399 -92 q 306 -29 344 -29 z "},"அ":{"ha":1510,"x_min":39,"x_max":1389,"o":"m 1389 -175 l 1249 -175 l 1249 76 l 981 76 q 775 -126 913 -53 q 450 -200 638 -200 q 238 -169 332 -200 q 92 -85 144 -139 q 39 36 39 -32 q 88 144 39 104 q 235 185 138 185 l 871 185 q 890 315 890 247 q 858 472 890 403 q 765 581 825 542 q 625 619 706 619 q 557 613 592 619 q 634 553 606 593 q 663 461 663 513 q 610 329 663 381 q 474 278 557 278 q 333 328 389 278 q 278 457 278 379 q 322 601 278 538 q 446 701 367 665 q 625 738 525 738 q 841 683 747 738 q 986 532 935 628 q 1038 315 1038 436 q 1022 185 1038 250 l 1249 185 l 1249 713 l 1389 713 l 1389 -175 m 471 392 q 517 410 499 392 q 536 457 536 429 q 518 502 536 485 q 472 519 500 519 q 424 502 443 519 q 406 457 406 485 q 424 410 406 429 q 471 392 443 392 m 450 -82 q 665 -40 571 -82 q 815 76 758 1 l 231 76 q 196 65 207 76 q 185 36 185 54 q 218 -23 185 4 q 312 -66 251 -50 q 450 -82 372 -82 z "},"ஆ":{"ha":1792,"x_min":39,"x_max":1778,"o":"m 1532 147 q 1710 78 1642 147 q 1778 -101 1778 10 q 1708 -319 1778 -222 q 1513 -469 1638 -415 q 1231 -524 1389 -524 q 1051 -495 1129 -524 q 931 -417 974 -467 q 888 -304 888 -367 q 944 -178 888 -226 q 1096 -131 1001 -131 l 1125 -131 l 1125 -240 l 1096 -240 q 1047 -258 1067 -240 q 1028 -304 1028 -275 q 1085 -376 1028 -347 q 1231 -406 1143 -406 q 1438 -367 1347 -406 q 1580 -258 1529 -328 q 1631 -101 1631 -189 q 1600 -8 1631 -46 q 1517 29 1569 29 q 1424 -8 1460 29 q 1389 -100 1389 -44 l 1389 -175 l 1249 -175 l 1249 76 l 981 76 q 775 -126 913 -53 q 450 -200 638 -200 q 238 -169 332 -200 q 92 -85 144 -139 q 39 36 39 -32 q 88 144 39 104 q 235 185 138 185 l 871 185 q 890 315 890 247 q 858 472 890 403 q 765 581 825 542 q 625 619 706 619 q 557 613 592 619 q 634 553 606 593 q 663 461 663 513 q 610 329 663 381 q 474 278 557 278 q 333 328 389 278 q 278 457 278 379 q 322 601 278 538 q 446 701 367 665 q 625 738 525 738 q 841 683 747 738 q 986 532 935 628 q 1038 315 1038 436 q 1022 185 1038 250 l 1249 185 l 1249 713 l 1389 713 l 1389 106 q 1532 147 1450 147 m 471 392 q 517 410 499 392 q 536 457 536 429 q 518 502 536 485 q 472 519 500 519 q 424 502 443 519 q 406 457 406 485 q 424 410 406 429 q 471 392 443 392 m 450 -82 q 665 -40 571 -82 q 815 76 758 1 l 231 76 q 196 65 207 76 q 185 36 185 54 q 218 -23 185 4 q 312 -66 251 -50 q 450 -82 372 -82 z "},"ஐ":{"ha":1133,"x_min":67,"x_max":1067,"o":"m 994 140 q 1035 44 1022 88 q 1047 -44 1047 0 q 1014 -168 1047 -114 q 921 -253 981 -222 q 785 -285 861 -285 q 663 -260 715 -285 q 575 -189 610 -235 q 483 -260 539 -235 q 354 -285 426 -285 q 206 -252 272 -285 q 103 -162 140 -219 q 67 -32 67 -104 q 155 167 67 92 q 442 271 243 243 l 692 304 q 863 369 806 319 q 921 493 919 419 q 889 584 921 549 q 804 619 857 619 q 702 578 740 619 q 664 476 664 538 l 664 381 l 525 381 l 525 476 q 481 579 525 539 q 364 619 438 619 q 268 593 313 619 q 367 546 329 586 q 404 447 404 506 q 357 338 404 382 q 238 294 310 294 q 118 342 165 294 q 71 463 71 390 q 109 601 71 539 q 214 701 147 664 q 364 738 281 738 q 493 710 435 738 q 593 632 551 682 q 685 710 632 682 q 804 738 739 738 q 940 706 881 738 q 1033 619 1000 675 q 1067 493 1067 564 q 973 290 1067 371 q 692 183 879 208 l 442 150 q 265 88 317 133 q 213 -35 213 43 q 252 -129 213 -92 q 354 -167 292 -167 q 460 -126 418 -167 q 503 -24 503 -85 l 503 72 l 643 72 l 643 -24 q 683 -126 643 -85 q 785 -167 724 -167 q 872 -131 842 -167 q 901 -37 901 -94 q 889 41 901 -7 q 851 132 876 89 l 994 140 m 304 444 q 288 488 304 471 q 244 506 271 506 q 199 488 217 506 q 182 444 182 471 q 199 401 182 418 q 244 385 217 385 q 288 401 271 385 q 304 444 304 418 z "},"ஔ":{"ha":2881,"x_min":60,"x_max":2867,"o":"m 761 176 q 808 89 767 117 q 925 61 849 61 l 1035 61 l 1035 -49 l 925 -49 q 872 -46 906 -49 l 872 -64 q 837 -188 872 -133 q 736 -274 801 -243 q 583 -304 671 -304 q 428 -274 494 -304 q 325 -188 361 -243 q 289 -64 289 -133 l 289 0 l 429 0 l 429 -64 q 469 -151 429 -118 q 583 -185 510 -185 q 697 -151 657 -185 q 738 -64 738 -118 l 738 -1 q 659 82 686 31 q 632 197 632 133 l 632 374 l 760 374 q 788 299 761 328 q 856 271 814 271 q 918 303 894 271 q 942 388 942 335 q 892 508 942 454 q 758 592 843 561 q 565 622 672 622 q 323 572 425 622 q 190 438 221 521 q 300 475 236 475 q 433 427 381 475 q 485 306 485 379 q 431 178 485 228 q 292 129 376 129 q 122 197 185 129 q 60 372 60 264 q 124 563 60 478 q 302 694 188 647 q 565 742 417 742 q 834 696 715 742 q 1020 569 953 650 q 1088 388 1088 489 q 1023 218 1088 283 q 857 153 958 153 q 761 176 804 153 m 293 374 q 241 355 261 374 q 221 306 221 336 q 241 255 221 275 q 292 235 261 235 q 344 255 324 235 q 364 306 364 275 q 344 355 364 336 q 293 374 325 374 m 2613 603 l 2613 0 l 2474 0 l 2474 603 l 2161 603 l 2161 0 l 2021 0 l 2021 317 q 1978 472 2021 403 q 1858 581 1935 542 q 1685 619 1782 619 q 1511 582 1585 619 q 1399 478 1438 544 q 1360 329 1360 413 q 1396 194 1360 251 l 1396 200 q 1426 315 1396 264 q 1508 396 1456 367 q 1628 425 1561 425 q 1757 396 1700 425 q 1847 315 1814 367 q 1879 199 1879 263 q 1845 84 1879 135 q 1751 4 1811 33 q 1615 -25 1690 -25 q 1406 22 1497 -25 q 1265 149 1315 68 q 1214 329 1214 229 q 1272 540 1214 447 q 1437 685 1331 633 q 1685 738 1543 738 q 1874 701 1788 738 q 2021 599 1961 664 l 2021 713 l 2846 713 l 2867 603 l 2613 603 m 1629 314 q 1548 281 1581 314 q 1515 199 1515 249 q 1548 118 1515 150 q 1629 86 1581 86 q 1712 118 1679 86 q 1744 199 1744 150 q 1712 281 1744 249 q 1629 314 1679 314 z "},"ச":{"ha":976,"x_min":53,"x_max":939,"o":"m 689 317 l 689 285 q 647 125 689 196 q 528 15 606 54 q 346 -25 450 -25 q 192 4 258 -25 q 89 85 125 33 q 53 203 53 138 q 95 328 53 275 q 215 407 138 381 l 215 713 l 918 713 l 939 603 l 689 603 l 689 426 l 918 426 l 939 317 l 689 317 m 356 426 l 549 426 l 549 603 l 356 603 l 356 426 m 356 317 q 240 286 281 317 q 199 203 199 256 q 238 124 199 154 q 346 93 278 93 q 495 146 442 93 q 549 285 549 199 l 549 317 l 356 317 z "},"எ":{"ha":1243,"x_min":67,"x_max":1229,"o":"m 976 603 l 976 0 l 836 0 l 836 603 l 556 603 q 297 529 382 603 q 213 329 213 456 q 249 194 213 251 l 249 200 q 278 315 249 264 q 361 396 308 367 q 481 425 414 425 q 610 396 553 425 q 699 315 667 367 q 732 199 732 263 q 698 84 732 135 q 603 4 664 33 q 468 -25 543 -25 q 259 22 350 -25 q 117 149 168 68 q 67 329 67 229 q 121 528 67 442 q 282 664 175 615 q 543 713 389 713 l 1210 713 l 1229 603 l 976 603 m 482 314 q 401 281 433 314 q 368 199 368 249 q 401 118 368 150 q 482 86 433 86 q 565 118 532 86 q 597 199 597 150 q 565 281 597 249 q 482 314 532 314 z "},"ஏ":{"ha":1243,"x_min":67,"x_max":1229,"o":"m 976 603 l 976 17 q 959 -118 976 -71 q 882 -185 942 -165 l 363 -347 l 310 -240 l 765 -93 q 824 -47 811 -79 q 836 61 836 -14 l 836 603 l 556 603 q 297 529 382 603 q 213 329 213 456 q 249 194 213 251 l 249 200 q 278 315 249 264 q 361 396 308 367 q 481 425 414 425 q 610 396 553 425 q 699 315 667 367 q 732 199 732 263 q 698 84 732 135 q 603 4 664 33 q 468 -25 543 -25 q 259 22 350 -25 q 117 149 168 68 q 67 329 67 229 q 121 528 67 442 q 282 664 175 615 q 543 713 389 713 l 1210 713 l 1229 603 l 976 603 m 482 314 q 401 281 433 314 q 368 199 368 249 q 401 118 368 150 q 482 86 433 86 q 565 118 532 86 q 597 199 597 150 q 565 281 597 249 q 482 314 532 314 z "},"ஹ":{"ha":2294,"x_min":67,"x_max":2229,"o":"m 1903 738 q 2144 624 2058 738 q 2229 324 2229 510 q 2177 24 2229 153 q 2019 -178 2125 -106 q 1754 -251 1913 -251 l 410 -251 q 261 -273 314 -251 q 181 -337 208 -294 l 67 -269 q 183 -177 96 -211 q 401 -143 269 -143 l 1754 -143 q 2001 -17 1919 -143 q 2082 324 2082 110 q 2038 540 2082 460 q 1903 619 1994 619 q 1791 569 1831 619 q 1751 421 1751 518 l 1751 0 l 1611 0 l 1611 406 q 1572 559 1611 499 q 1460 619 1532 619 q 1326 424 1326 619 l 1326 0 l 800 0 l 800 110 q 874 354 874 221 q 789 546 874 472 q 550 619 704 619 q 372 582 449 619 q 253 478 294 544 q 213 329 213 413 q 249 194 213 251 l 249 200 q 278 315 249 264 q 361 396 308 367 q 481 425 414 425 q 610 396 553 425 q 699 315 667 367 q 732 199 732 263 q 698 84 732 135 q 603 4 664 33 q 468 -25 543 -25 q 259 22 350 -25 q 117 149 168 68 q 67 329 67 229 q 127 540 67 447 q 297 685 188 633 q 550 738 407 738 q 795 688 688 738 q 962 551 903 639 q 1021 354 1021 464 q 956 110 1021 222 l 1188 110 l 1188 438 q 1257 656 1188 574 q 1451 738 1326 738 q 1577 707 1521 738 q 1671 621 1633 676 q 1770 707 1710 676 q 1903 738 1831 738 m 482 314 q 401 281 433 314 q 368 199 368 249 q 401 118 368 150 q 482 86 433 86 q 565 118 532 86 q 597 199 597 150 q 565 281 597 249 q 482 314 532 314 z "},"இ":{"ha":1467,"x_min":39,"x_max":1346,"o":"m 758 988 q 1063 922 929 988 q 1272 740 1197 857 q 1346 478 1346 624 l 1346 -206 l 1206 -206 l 1206 475 q 1149 678 1206 589 q 991 819 1093 768 q 758 869 889 869 q 501 818 611 869 q 332 675 392 767 q 272 465 272 583 q 344 179 272 313 q 590 211 457 211 q 815 181 708 211 q 872 425 872 294 q 824 566 872 513 q 689 619 775 619 q 632 614 656 619 q 714 554 683 596 q 744 457 744 513 q 690 328 743 379 q 554 278 636 278 q 415 328 469 278 q 360 457 360 379 q 400 601 360 538 q 515 701 440 665 q 689 738 590 738 q 861 697 788 738 q 974 586 935 657 q 1013 425 1013 515 q 938 131 1013 269 q 1063 26 1018 88 q 1107 -107 1107 -36 q 1048 -228 1107 -181 q 896 -275 989 -275 q 581 -203 736 -275 q 250 -275 421 -275 q 98 -228 157 -275 q 39 -107 39 -181 q 87 26 39 -36 q 219 131 135 88 q 132 465 132 288 q 210 735 132 617 q 429 921 288 854 q 758 988 571 988 m 551 378 q 608 400 586 378 q 631 457 631 422 q 608 512 631 490 q 553 533 586 533 q 495 512 518 533 q 472 457 472 490 q 494 400 472 422 q 551 378 517 378 m 590 93 q 414 75 501 93 q 581 -71 486 -14 q 749 75 679 -12 q 590 93 669 93 m 268 -157 q 453 -128 363 -157 q 286 29 356 -58 q 185 -101 185 -25 q 208 -141 185 -125 q 268 -157 232 -157 m 961 -101 q 938 -31 961 -64 q 871 28 914 1 q 707 -129 803 -61 q 878 -157 793 -157 q 937 -141 913 -157 q 961 -101 961 -125 z "},"ஈ":{"ha":1089,"x_min":122,"x_max":1075,"o":"m 261 603 l 261 0 l 122 0 l 122 713 l 1054 713 l 1075 603 l 747 603 l 747 0 l 607 0 l 607 603 l 261 603 m 433 213 q 495 237 471 213 q 519 299 519 261 q 495 359 519 335 q 433 383 471 383 q 373 359 397 383 q 349 299 349 335 q 373 237 349 261 q 433 213 397 213 m 918 213 q 981 237 956 213 q 1006 299 1006 261 q 981 359 1006 335 q 918 383 956 383 q 859 359 883 383 q 835 299 835 335 q 858 237 835 261 q 918 213 882 213 z "},"ஜ":{"ha":1133,"x_min":67,"x_max":1067,"o":"m 846 135 q 1007 76 947 135 q 1067 -76 1067 18 q 1035 -181 1067 -135 q 944 -254 1003 -228 q 810 -281 886 -281 l 679 -281 l 679 -171 l 810 -171 q 889 -144 857 -171 q 921 -76 921 -117 q 898 -9 921 -35 q 840 17 875 17 q 748 -14 788 17 q 651 -110 708 -44 q 565 -200 603 -165 q 472 -260 526 -235 q 347 -285 417 -285 q 201 -252 265 -285 q 102 -162 138 -219 q 67 -32 67 -106 q 155 167 67 92 q 442 271 243 243 l 692 304 q 863 369 806 319 q 921 493 919 419 q 889 584 921 549 q 804 619 857 619 q 702 578 740 619 q 664 476 664 538 l 664 381 l 525 381 l 525 476 q 481 579 525 539 q 364 619 438 619 q 268 593 313 619 q 367 546 329 586 q 404 447 404 506 q 357 338 404 382 q 238 294 310 294 q 118 342 165 294 q 71 463 71 390 q 109 601 71 539 q 214 701 147 664 q 364 738 281 738 q 493 710 435 738 q 593 632 551 682 q 685 710 632 682 q 804 738 739 738 q 940 706 881 738 q 1033 619 1000 675 q 1067 493 1067 564 q 973 290 1067 371 q 692 183 879 208 l 442 150 q 266 89 318 133 q 213 -32 214 44 q 249 -128 213 -90 q 347 -167 285 -167 q 446 -134 401 -167 q 554 -33 490 -101 q 644 54 606 21 q 734 111 683 88 q 846 135 785 135 m 304 444 q 288 488 304 471 q 244 506 271 506 q 199 488 217 506 q 182 444 182 471 q 199 401 182 418 q 244 385 217 385 q 288 401 271 385 q 304 444 304 418 z "},"க":{"ha":1067,"x_min":53,"x_max":1029,"o":"m 729 426 q 949 363 869 426 q 1029 199 1029 300 q 992 83 1029 133 q 883 3 954 32 q 713 -25 811 -25 l 713 86 q 840 116 797 86 q 882 199 882 146 q 844 285 882 253 q 731 317 807 317 l 689 317 l 689 285 q 647 125 689 196 q 528 15 606 54 q 346 -25 450 -25 q 192 4 258 -25 q 89 85 125 33 q 53 203 53 138 q 95 328 53 275 q 215 407 138 381 l 215 713 l 918 713 l 939 603 l 689 603 l 689 426 l 729 426 m 356 426 l 549 426 l 549 603 l 356 603 l 356 426 m 356 317 q 240 286 281 317 q 199 203 199 256 q 238 124 199 154 q 346 93 278 93 q 495 146 442 93 q 549 285 549 199 l 549 317 l 356 317 z "},"ல":{"ha":1481,"x_min":67,"x_max":1414,"o":"m 1296 732 q 1384 527 1354 636 q 1414 329 1414 418 q 1337 71 1414 167 q 1113 -25 1260 -25 q 904 58 978 -25 q 831 290 831 142 l 831 354 q 751 547 831 476 q 535 618 672 618 q 362 581 435 618 q 251 478 289 543 q 213 329 213 413 q 250 192 213 250 l 250 200 q 280 315 250 264 q 363 394 310 365 q 481 424 415 424 q 610 394 553 424 q 699 314 667 365 q 732 199 732 263 q 698 84 732 135 q 603 4 664 33 q 468 -25 543 -25 q 259 22 350 -25 q 117 149 168 68 q 67 329 67 229 q 124 538 67 444 q 287 684 181 631 q 535 738 393 738 q 764 690 665 738 q 916 556 863 643 q 969 354 969 469 l 969 290 q 1007 144 969 193 q 1117 94 1044 94 q 1231 157 1194 94 q 1268 329 1268 219 q 1238 525 1268 417 q 1154 713 1208 633 l 1296 732 m 482 314 q 401 281 433 314 q 368 199 368 249 q 401 118 368 150 q 482 86 433 86 q 565 118 532 86 q 597 199 597 150 q 565 281 597 249 q 482 314 532 314 z "},"ள":{"ha":1733,"x_min":67,"x_max":1719,"o":"m 1465 603 l 1465 0 l 1326 0 l 1326 603 l 1014 603 l 1014 0 l 874 0 l 874 317 q 831 472 874 403 q 711 581 788 542 q 538 619 635 619 q 364 582 438 619 q 251 478 290 544 q 213 329 213 413 q 249 194 213 251 l 249 200 q 278 315 249 264 q 361 396 308 367 q 481 425 414 425 q 610 396 553 425 q 699 315 667 367 q 732 199 732 263 q 698 84 732 135 q 603 4 664 33 q 468 -25 543 -25 q 259 22 350 -25 q 117 149 168 68 q 67 329 67 229 q 125 540 67 447 q 290 685 183 633 q 538 738 396 738 q 727 701 640 738 q 874 599 814 664 l 874 713 l 1699 713 l 1719 603 l 1465 603 m 482 314 q 401 281 433 314 q 368 199 368 249 q 401 118 368 150 q 482 86 433 86 q 565 118 532 86 q 597 199 597 150 q 565 281 597 249 q 482 314 532 314 z "},"ழ":{"ha":1211,"x_min":122,"x_max":1144,"o":"m 671 -37 q 694 -115 671 -92 q 764 -139 718 -139 l 971 -139 l 992 -247 l 754 -247 q 638 -372 718 -324 q 457 -419 558 -419 q 306 -387 372 -419 q 201 -297 239 -356 q 164 -164 164 -239 l 304 -164 q 347 -262 304 -225 q 457 -300 390 -300 q 562 -276 519 -300 q 621 -211 604 -251 q 555 -150 579 -190 q 531 -56 531 -110 l 531 0 l 122 0 l 122 713 l 261 719 l 261 110 l 531 110 l 531 425 q 604 654 531 571 q 811 738 678 738 q 988 685 913 738 q 1104 539 1064 632 q 1144 326 1144 446 q 1067 88 1144 176 q 835 0 990 0 l 671 0 l 671 -37 m 835 110 q 963 166 926 110 q 999 326 999 222 q 950 539 999 458 q 811 619 901 619 q 671 421 671 619 l 671 110 l 835 110 z "},"ம":{"ha":1211,"x_min":122,"x_max":1144,"o":"m 811 738 q 988 685 913 738 q 1104 539 1064 632 q 1144 326 1144 446 q 1067 88 1144 176 q 835 0 990 0 l 122 0 l 122 713 l 261 719 l 261 110 l 531 110 l 531 425 q 604 654 531 571 q 811 738 678 738 m 835 110 q 963 166 926 110 q 999 326 999 222 q 950 539 999 458 q 811 619 901 619 q 671 421 671 619 l 671 110 l 835 110 z "},"ந":{"ha":1103,"x_min":122,"x_max":1038,"o":"m 764 485 q 907 441 844 485 q 1003 320 969 397 q 1038 144 1038 243 q 994 -60 1038 29 q 869 -201 951 -150 q 678 -251 788 -251 l 465 -251 q 317 -273 369 -251 q 235 -337 264 -294 l 122 -269 q 456 -143 185 -143 l 678 -143 q 835 -63 779 -143 q 892 144 892 17 q 856 303 892 243 q 753 364 819 364 q 658 324 696 364 q 621 225 621 285 l 621 0 l 482 0 l 482 603 l 261 603 l 261 0 l 122 0 l 122 713 l 854 713 l 875 603 l 621 603 l 621 438 q 764 485 683 485 z "},"ங":{"ha":1419,"x_min":122,"x_max":1297,"o":"m 1297 0 l 482 0 l 482 110 l 685 110 q 819 153 775 110 q 864 269 864 196 q 833 361 864 324 q 750 399 801 399 q 657 362 693 399 q 621 271 621 325 l 621 217 l 482 217 l 482 603 l 261 603 l 261 0 l 122 0 l 122 713 l 854 713 l 875 603 l 621 603 l 621 476 q 765 518 685 518 q 942 449 875 518 q 1010 269 1010 381 q 954 110 1010 174 l 1158 110 l 1158 713 l 1297 713 l 1297 0 z "},"ண":{"ha":2438,"x_min":67,"x_max":2424,"o":"m 2171 603 l 2171 0 l 2031 0 l 2031 603 l 1907 603 q 1746 575 1821 603 q 1842 425 1808 508 q 1875 247 1875 342 q 1806 51 1875 126 q 1622 -25 1738 -25 q 1488 10 1546 -25 q 1398 106 1429 44 q 1367 247 1367 168 q 1408 428 1367 343 q 1522 578 1449 514 q 1335 619 1435 619 q 1139 572 1226 619 q 1259 423 1217 507 q 1301 247 1301 339 q 1232 51 1301 126 q 1047 -25 1163 -25 q 913 10 971 -25 q 823 106 854 44 q 792 247 792 168 q 825 418 792 336 q 919 565 858 500 q 649 619 799 619 q 418 581 517 619 q 266 474 319 542 q 213 319 213 406 q 249 188 213 243 l 249 200 q 278 315 249 264 q 361 396 308 367 q 481 425 414 425 q 610 396 553 425 q 699 315 667 367 q 732 199 732 263 q 698 84 732 135 q 603 4 664 33 q 468 -25 543 -25 q 259 19 350 -25 q 117 142 168 64 q 67 319 67 221 q 139 534 67 439 q 343 683 211 629 q 649 738 475 738 q 848 715 753 738 q 1022 650 943 692 q 1335 738 1160 738 q 1643 656 1510 738 q 1907 713 1764 713 l 2403 713 l 2424 603 l 2171 603 m 1729 247 q 1702 388 1729 322 q 1626 504 1675 453 q 1543 390 1572 456 q 1514 247 1514 324 q 1542 135 1514 178 q 1622 93 1569 93 q 1702 135 1675 93 q 1729 247 1729 178 m 1047 93 q 1127 135 1100 93 q 1154 247 1154 178 q 1123 381 1154 318 q 1033 493 1092 443 q 964 381 989 443 q 939 247 939 318 q 967 135 939 178 q 1047 93 994 93 m 482 314 q 401 281 433 314 q 368 199 368 249 q 401 118 368 150 q 482 86 433 86 q 565 118 532 86 q 597 199 597 150 q 565 281 597 249 q 482 314 532 314 z "},"ன":{"ha":1864,"x_min":67,"x_max":1850,"o":"m 1597 603 l 1597 0 l 1457 0 l 1457 603 l 1332 603 q 1147 565 1233 603 q 1261 418 1221 500 q 1301 247 1301 336 q 1232 51 1301 126 q 1047 -25 1163 -25 q 913 10 971 -25 q 823 106 854 44 q 792 247 792 168 q 827 417 792 338 q 928 560 863 497 q 649 619 806 619 q 418 581 517 619 q 266 474 319 542 q 213 319 213 406 q 249 188 213 243 l 249 200 q 278 315 249 264 q 361 396 308 367 q 481 425 414 425 q 610 396 553 425 q 699 315 667 367 q 732 199 732 263 q 698 84 732 135 q 603 4 664 33 q 468 -25 543 -25 q 259 19 350 -25 q 117 142 168 64 q 67 319 67 221 q 139 534 67 439 q 343 683 211 629 q 649 738 475 738 q 856 713 757 738 q 1039 642 956 688 q 1332 713 1172 713 l 1829 713 l 1850 603 l 1597 603 m 1047 93 q 1127 135 1100 93 q 1154 247 1154 178 q 1124 379 1154 317 q 1038 490 1093 442 q 965 381 990 443 q 939 247 939 318 q 967 135 939 178 q 1047 93 994 93 m 482 314 q 401 281 433 314 q 368 199 368 249 q 401 118 368 150 q 482 86 433 86 q 565 118 532 86 q 597 199 597 150 q 565 281 597 249 q 482 314 532 314 z "},"ஞ":{"ha":1778,"x_min":94,"x_max":1711,"o":"m 1438 485 q 1640 397 1568 485 q 1711 171 1711 308 q 1616 -114 1711 8 q 1343 -303 1521 -236 q 924 -369 1165 -369 q 487 -293 675 -369 q 197 -76 299 -217 q 94 250 94 64 q 151 513 94 381 q 296 726 207 644 l 439 713 q 296 510 351 638 q 240 247 240 383 q 326 -16 240 97 q 567 -190 413 -129 q 924 -251 722 -251 q 1263 -201 1118 -251 q 1487 -55 1408 -150 q 1565 171 1565 40 q 1533 312 1565 258 q 1432 365 1501 365 q 1336 322 1375 365 q 1297 218 1297 279 l 1297 0 l 1158 0 l 1158 603 l 913 603 q 655 529 739 603 q 571 329 571 456 q 607 194 571 251 l 607 200 q 637 315 607 264 q 719 396 667 367 q 839 425 772 425 q 968 396 911 425 q 1057 315 1025 367 q 1089 199 1089 263 q 1055 84 1089 135 q 961 4 1021 33 q 826 -25 901 -25 q 617 22 708 -25 q 474 149 525 68 q 424 329 424 229 q 478 528 424 442 q 639 664 532 615 q 900 713 746 713 l 1531 713 l 1551 603 l 1297 603 l 1297 436 q 1438 485 1360 485 m 840 314 q 758 281 790 314 q 726 199 726 249 q 758 118 726 150 q 840 86 790 86 q 923 118 890 86 q 956 199 956 150 q 923 281 956 249 q 840 314 890 314 z "},"ஒ":{"ha":1147,"x_min":60,"x_max":1088,"o":"m 761 176 q 808 89 767 117 q 925 61 849 61 l 1035 61 l 1035 -49 l 925 -49 q 872 -46 906 -49 l 872 -64 q 837 -188 872 -133 q 736 -274 801 -243 q 583 -304 671 -304 q 428 -274 494 -304 q 325 -188 361 -243 q 289 -64 289 -133 l 289 0 l 429 0 l 429 -64 q 469 -151 429 -118 q 583 -185 510 -185 q 697 -151 657 -185 q 738 -64 738 -118 l 738 -1 q 659 82 686 31 q 632 197 632 133 l 632 374 l 760 374 q 788 299 761 328 q 856 271 814 271 q 918 303 894 271 q 942 388 942 335 q 892 508 942 454 q 758 592 843 561 q 565 622 672 622 q 323 572 425 622 q 190 438 221 521 q 300 475 236 475 q 433 427 381 475 q 485 306 485 379 q 431 178 485 228 q 292 129 376 129 q 122 197 185 129 q 60 372 60 264 q 124 563 60 478 q 302 694 188 647 q 565 742 417 742 q 834 696 715 742 q 1020 569 953 650 q 1088 388 1088 489 q 1023 218 1088 283 q 857 153 958 153 q 761 176 804 153 m 293 374 q 241 355 261 374 q 221 306 221 336 q 241 255 221 275 q 292 235 261 235 q 344 255 324 235 q 364 306 364 275 q 344 355 364 336 q 293 374 325 374 z "},"ௐ":{"ha":1161,"x_min":60,"x_max":1088,"o":"m 761 176 q 808 89 767 117 q 925 61 849 61 l 1035 61 l 1035 -49 l 925 -49 q 872 -46 906 -49 l 872 -64 q 837 -188 872 -133 q 736 -274 801 -243 q 583 -304 671 -304 q 428 -274 494 -304 q 325 -188 361 -243 q 289 -64 289 -133 l 289 0 l 429 0 l 429 -64 q 469 -151 429 -118 q 583 -185 510 -185 q 697 -151 657 -185 q 738 -64 738 -118 l 738 -1 q 659 82 686 31 q 632 197 632 133 l 632 374 l 760 374 q 788 299 761 328 q 856 271 814 271 q 918 303 894 271 q 942 388 942 335 q 892 508 942 454 q 758 592 843 561 q 565 622 672 622 q 323 572 425 622 q 190 438 221 521 q 300 475 236 475 q 433 427 381 475 q 485 306 485 379 q 431 178 485 228 q 292 129 376 129 q 122 197 185 129 q 60 372 60 264 q 124 563 60 478 q 302 694 188 647 q 565 742 417 742 q 834 696 715 742 q 1020 569 953 650 q 1088 388 1088 489 q 1023 218 1088 283 q 857 153 958 153 q 761 176 804 153 m 293 374 q 241 355 261 374 q 221 306 221 336 q 241 255 221 275 q 292 235 261 235 q 344 255 324 235 q 364 306 364 275 q 344 355 364 336 q 293 374 325 374 m 593 36 q 577 42 583 36 q 571 58 571 49 q 577 75 571 68 q 593 82 583 82 q 609 75 603 82 q 615 58 615 68 q 609 42 615 49 q 593 36 603 36 m 547 -76 l 576 -76 l 576 -33 q 590 6 576 -10 q 628 21 604 21 q 672 2 657 21 q 688 -47 688 -17 q 671 -93 688 -75 q 625 -111 654 -111 l 511 -111 l 511 17 l 547 18 l 547 -76 m 628 -76 q 647 -68 640 -76 q 653 -47 653 -60 q 631 -11 653 -11 q 614 -35 614 -11 l 614 -76 l 628 -76 z "},"ஓ":{"ha":1147,"x_min":60,"x_max":1088,"o":"m 761 176 q 808 89 767 117 q 925 61 849 61 l 1035 61 l 1035 -49 l 925 -49 q 872 -44 894 -49 l 872 -64 q 832 -187 872 -132 q 719 -273 792 -242 q 557 -304 647 -304 q 405 -278 472 -304 q 299 -207 338 -253 q 261 -104 261 -161 q 318 22 261 -26 q 469 71 375 71 l 499 71 l 499 -37 l 469 -37 q 423 -57 442 -37 q 404 -104 404 -76 q 447 -162 404 -139 q 557 -185 490 -185 q 687 -151 636 -185 q 738 -64 738 -117 l 738 -1 q 659 82 686 32 q 632 197 632 132 l 632 374 l 760 374 q 788 299 761 328 q 856 271 814 271 q 918 303 894 271 q 942 388 942 335 q 892 508 942 454 q 758 592 843 561 q 565 622 672 622 q 323 572 425 622 q 190 438 221 521 q 300 475 236 475 q 433 427 381 475 q 485 306 485 379 q 431 178 485 228 q 292 129 376 129 q 122 197 185 129 q 60 372 60 264 q 124 563 60 478 q 302 694 188 647 q 565 742 417 742 q 834 696 715 742 q 1020 569 953 650 q 1088 388 1088 489 q 1023 218 1088 283 q 857 153 958 153 q 761 176 804 153 m 293 374 q 241 355 261 374 q 221 306 221 336 q 241 255 221 275 q 292 235 261 235 q 344 255 324 235 q 364 306 364 275 q 344 355 364 336 q 293 374 325 374 z "},"ப":{"ha":1024,"x_min":122,"x_max":903,"o":"m 122 0 l 122 713 l 261 719 l 261 110 l 763 110 l 763 713 l 903 713 l 903 0 l 122 0 z "},"ர":{"ha":981,"x_min":122,"x_max":967,"o":"m 714 17 q 708 -76 714 -40 q 682 -139 703 -111 q 618 -185 661 -167 l 225 -347 l 172 -231 l 503 -93 q 561 -42 549 -74 q 574 61 574 -11 l 574 603 l 261 603 l 261 0 l 122 0 l 122 713 l 946 713 l 967 603 l 714 603 l 714 17 z "},"ற":{"ha":1215,"x_min":108,"x_max":1150,"o":"m 822 738 q 1065 624 979 738 q 1150 324 1150 510 q 1098 24 1150 153 q 939 -178 1046 -106 q 674 -251 832 -251 l 451 -251 q 303 -273 356 -251 q 221 -337 250 -294 l 108 -269 q 224 -177 138 -211 q 443 -143 311 -143 l 674 -143 q 921 -17 839 -143 q 1003 324 1003 110 q 959 540 1003 460 q 822 619 915 619 q 710 569 750 619 q 671 421 671 518 l 671 0 l 531 0 l 531 406 q 492 559 531 499 q 379 619 453 619 q 280 569 313 619 q 247 424 247 518 l 247 0 l 108 0 l 108 438 q 177 656 108 574 q 371 738 246 738 q 497 707 440 738 q 590 621 553 676 q 690 707 629 676 q 822 738 750 738 z "},"ஸ":{"ha":1904,"x_min":67,"x_max":1838,"o":"m 1719 732 q 1808 527 1778 636 q 1838 329 1838 418 q 1761 71 1838 167 q 1538 -25 1685 -25 q 1328 58 1401 -25 q 1254 290 1254 140 l 1254 436 q 1225 570 1254 522 q 1128 618 1196 618 q 1011 545 1053 618 q 969 354 969 472 l 969 0 l 831 0 l 831 354 q 751 547 831 476 q 535 618 672 618 q 362 581 435 618 q 251 478 289 543 q 213 329 213 413 q 250 192 213 250 l 250 200 q 280 315 250 264 q 363 394 310 365 q 481 424 415 424 q 610 394 553 424 q 699 314 667 365 q 732 199 732 263 q 698 84 732 135 q 603 4 664 33 q 468 -25 543 -25 q 259 22 350 -25 q 117 149 168 68 q 67 329 67 229 q 124 538 67 444 q 287 684 181 631 q 535 738 393 738 q 749 697 656 738 q 899 581 843 656 q 993 697 933 656 q 1132 738 1053 738 q 1328 657 1261 738 q 1394 442 1394 576 l 1394 290 q 1431 144 1394 193 q 1540 94 1468 94 q 1654 157 1618 94 q 1690 329 1690 219 q 1661 526 1690 418 q 1576 713 1632 633 l 1719 732 m 482 314 q 401 281 433 314 q 368 199 368 249 q 401 118 368 150 q 482 86 433 86 q 565 118 532 86 q 597 199 597 150 q 565 281 597 249 q 482 314 532 314 z "},"ஶ":{"ha":1538,"x_min":108,"x_max":1471,"o":"m 1160 713 q 1394 624 1317 713 q 1471 388 1471 536 q 1431 174 1471 268 q 1315 28 1390 81 q 1138 -25 1239 -25 q 930 58 1004 -25 q 856 288 856 140 l 856 603 l 678 603 l 678 278 q 602 56 678 136 q 393 -25 526 -25 q 184 56 260 -25 q 108 278 108 136 l 108 713 l 247 719 l 247 281 q 393 93 247 93 q 538 281 538 93 l 538 713 l 1160 713 m 1138 93 q 1276 174 1228 93 q 1324 388 1324 254 q 1288 547 1324 492 q 1160 603 1253 603 l 997 603 l 997 293 q 1138 93 997 93 z "},"ஷ":{"ha":2006,"x_min":67,"x_max":1885,"o":"m 1578 0 l 1578 -337 l 1438 -337 l 1438 0 l 800 0 l 800 110 q 874 354 874 221 q 789 546 874 472 q 550 619 704 619 q 372 582 449 619 q 253 478 294 544 q 213 329 213 413 q 249 194 213 251 l 249 200 q 278 315 249 264 q 361 396 308 367 q 481 425 414 425 q 610 396 553 425 q 699 315 667 367 q 732 199 732 263 q 698 84 732 135 q 603 4 664 33 q 468 -25 543 -25 q 259 22 350 -25 q 117 149 168 68 q 67 329 67 229 q 127 540 67 447 q 297 685 188 633 q 550 738 407 738 q 795 688 688 738 q 962 551 903 639 q 1021 354 1021 464 q 1003 226 1021 289 q 956 110 986 163 l 1438 110 l 1438 271 q 1374 268 1396 268 q 1220 299 1288 268 q 1115 385 1153 331 q 1076 508 1076 440 q 1147 674 1076 611 q 1332 738 1217 738 q 1510 674 1443 738 q 1578 507 1578 610 l 1578 442 q 1673 513 1631 471 q 1744 603 1715 554 l 1885 603 l 1885 0 l 1578 0 m 1374 386 q 1438 392 1410 386 l 1438 500 q 1410 587 1438 554 q 1332 619 1382 619 q 1252 589 1281 619 q 1224 508 1224 558 q 1265 422 1224 457 q 1374 386 1306 386 m 1744 410 q 1578 306 1671 340 l 1578 110 l 1744 110 l 1744 410 m 482 314 q 401 281 433 314 q 368 199 368 249 q 401 118 368 150 q 482 86 433 86 q 565 118 532 86 q 597 199 597 150 q 565 281 597 249 q 482 314 532 314 z "},"த":{"ha":1093,"x_min":53,"x_max":1042,"o":"m 710 426 q 881 385 806 426 q 999 271 957 344 q 1042 106 1042 197 q 991 -78 1042 3 q 849 -206 940 -160 q 644 -253 758 -253 l 394 -253 q 247 -274 300 -253 q 167 -339 194 -296 l 53 -271 q 169 -178 82 -212 q 388 -143 256 -143 l 644 -143 q 774 -111 717 -143 q 863 -22 831 -79 q 894 106 894 35 q 843 257 894 197 q 711 317 792 317 l 689 317 l 689 285 q 647 125 689 196 q 528 15 606 54 q 346 -25 450 -25 q 192 4 258 -25 q 89 85 125 33 q 53 203 53 138 q 95 328 53 275 q 215 407 138 381 l 215 713 l 918 713 l 939 603 l 689 603 l 689 426 l 710 426 m 356 426 l 549 426 l 549 603 l 356 603 l 356 426 m 356 317 q 240 286 281 317 q 199 203 199 256 q 238 124 199 154 q 346 93 278 93 q 495 146 442 93 q 549 285 549 199 l 549 317 l 356 317 z "},"ட":{"ha":1008,"x_min":122,"x_max":994,"o":"m 261 719 l 122 713 l 122 0 l 994 0 l 974 110 l 261 110 l 261 719 z "},"உ":{"ha":1388,"x_min":39,"x_max":1374,"o":"m 1374 0 l 103 0 l 103 110 l 411 110 q 563 144 497 110 q 664 240 628 179 q 700 379 700 301 q 668 503 700 449 q 578 588 636 557 q 443 619 519 619 q 261 568 338 619 l 274 568 q 425 514 367 568 q 483 376 483 460 q 455 276 483 321 q 376 205 426 231 q 264 179 326 179 q 102 238 165 179 q 39 389 39 297 q 92 567 39 488 q 237 692 144 647 q 443 738 329 738 q 653 691 561 738 q 796 563 744 644 q 847 379 847 482 q 815 228 847 297 q 724 110 783 158 l 1374 110 l 1374 0 m 360 376 q 332 447 360 419 q 261 475 304 475 q 190 447 218 475 q 163 376 163 419 q 190 307 163 335 q 261 279 218 279 q 332 307 304 279 q 360 376 360 335 z "},"ஊ":{"ha":2288,"x_min":39,"x_max":2274,"o":"m 2274 0 l 103 0 l 103 110 l 411 110 q 563 144 497 110 q 664 240 628 179 q 700 379 700 301 q 668 503 700 449 q 578 588 636 557 q 443 619 519 619 q 261 568 338 619 l 274 568 q 425 514 367 568 q 483 376 483 460 q 455 276 483 321 q 376 205 426 231 q 264 179 326 179 q 102 238 165 179 q 39 389 39 297 q 92 567 39 488 q 237 692 144 647 q 443 738 329 738 q 653 691 561 738 q 796 563 744 644 q 847 379 847 482 q 815 228 847 297 q 722 110 782 160 l 2274 110 l 2274 0 m 1260 163 q 1094 197 1167 163 q 979 291 1021 231 q 938 426 938 351 q 983 585 938 515 q 1110 695 1028 656 q 1299 735 1192 735 q 1434 710 1371 735 q 1543 639 1497 685 l 1543 713 l 2197 713 l 2218 603 l 2035 603 l 2035 182 l 1894 182 l 1894 603 l 1683 603 l 1683 182 l 1543 182 l 1543 401 q 1512 512 1543 463 q 1424 589 1481 561 q 1299 617 1368 617 q 1142 563 1203 617 q 1082 426 1082 510 q 1099 349 1082 385 q 1150 465 1100 421 q 1276 510 1200 510 q 1413 463 1360 510 q 1467 342 1467 417 q 1409 214 1467 265 q 1260 163 1351 163 m 360 376 q 332 447 360 419 q 261 475 304 475 q 190 447 218 475 q 163 376 163 419 q 190 307 163 335 q 261 279 218 279 q 332 307 304 279 q 360 376 360 335 m 1274 413 q 1219 392 1240 413 q 1197 340 1197 372 q 1219 287 1197 308 q 1274 265 1240 265 q 1325 287 1304 265 q 1346 340 1346 308 q 1326 392 1346 372 q 1274 413 1306 413 z "},"வ":{"ha":1492,"x_min":67,"x_max":1371,"o":"m 1371 0 l 800 0 l 800 110 q 874 354 874 221 q 790 547 874 474 q 550 619 706 619 q 372 582 449 619 q 253 478 294 544 q 213 329 213 413 q 249 194 213 251 l 249 200 q 279 315 249 264 q 363 396 310 367 q 481 425 415 425 q 610 396 553 425 q 699 315 667 367 q 732 199 732 263 q 698 84 732 135 q 603 4 664 33 q 468 -25 543 -25 q 259 22 350 -25 q 117 149 168 68 q 67 329 67 229 q 127 540 67 447 q 297 685 188 633 q 550 738 407 738 q 795 688 688 738 q 962 551 903 639 q 1021 354 1021 464 q 1003 226 1021 289 q 956 110 986 163 l 1231 110 l 1231 713 l 1371 713 l 1371 0 m 482 314 q 401 281 433 314 q 368 199 368 249 q 401 118 368 150 q 482 86 433 86 q 565 118 532 86 q 597 199 597 150 q 565 281 597 249 q 482 314 532 314 z "},"ஃ":{"ha":947,"x_min":67,"x_max":882,"o":"m 474 400 q 559 422 519 400 q 623 482 599 444 q 647 564 647 519 q 623 649 647 611 q 559 710 599 688 q 474 732 519 732 q 388 710 428 732 q 324 649 349 688 q 300 564 300 611 q 324 482 300 519 q 388 422 349 444 q 474 400 428 400 m 474 501 q 426 519 444 501 q 407 565 407 538 q 426 613 407 594 q 474 631 444 631 q 520 613 501 631 q 539 565 539 594 q 520 519 539 538 q 474 501 501 501 m 239 -19 q 325 3 285 -19 q 390 63 365 25 q 414 146 414 100 q 390 230 414 192 q 325 290 365 268 q 239 313 285 313 q 155 290 194 313 q 91 230 115 268 q 67 146 67 192 q 91 63 67 100 q 155 3 115 25 q 239 -19 194 -19 m 707 -19 q 793 3 753 -19 q 858 63 833 25 q 882 146 882 100 q 858 230 882 192 q 793 290 833 268 q 707 313 753 313 q 622 290 663 313 q 558 230 582 268 q 533 146 533 192 q 558 63 533 100 q 622 3 582 25 q 707 -19 663 -19 m 239 82 q 192 100 211 82 q 174 146 174 118 q 192 193 174 174 q 239 213 211 213 q 287 193 268 213 q 306 146 306 174 q 287 100 306 118 q 239 82 268 82 m 707 82 q 660 100 679 82 q 642 146 642 118 q 660 193 642 174 q 707 213 679 213 q 755 193 736 213 q 774 146 774 174 q 755 100 774 118 q 707 82 736 82 z "},"ய":{"ha":1326,"x_min":108,"x_max":1204,"o":"m 1204 0 l 563 0 l 563 44 q 389 -25 490 -25 q 181 56 254 -25 q 108 278 108 136 l 108 713 l 247 719 l 247 281 q 283 140 247 188 q 393 93 318 93 q 519 152 476 93 q 563 310 563 211 l 563 713 l 703 713 l 703 110 l 1064 110 l 1064 713 l 1204 713 l 1204 0 z "},"௮":{"ha":1510,"x_min":39,"x_max":1389,"o":"m 1389 -175 l 1249 -175 l 1249 76 l 981 76 q 775 -126 913 -53 q 450 -200 638 -200 q 238 -169 332 -200 q 92 -85 144 -139 q 39 36 39 -32 q 88 144 39 104 q 235 185 138 185 l 360 185 q 294 285 318 228 q 271 407 271 342 q 318 577 271 501 q 449 695 365 653 q 638 738 532 738 q 848 683 757 738 q 988 533 939 629 q 1038 315 1038 436 q 1021 185 1038 247 l 1249 185 l 1249 713 l 1389 713 l 1389 -175 m 869 185 q 890 315 890 246 q 823 535 890 451 q 638 619 756 619 q 481 560 543 619 q 418 407 418 500 q 472 247 418 308 q 607 185 525 185 l 869 185 m 450 -82 q 664 -40 571 -82 q 814 76 757 1 l 231 76 q 196 65 207 76 q 185 36 185 54 q 218 -23 185 4 q 312 -66 251 -50 q 450 -82 372 -82 z "},"௫":{"ha":1854,"x_min":94,"x_max":1732,"o":"m 1593 426 q 1509 715 1593 592 q 1272 906 1425 839 q 915 974 1118 974 q 557 890 710 974 q 322 660 404 807 q 240 324 240 513 q 310 29 240 160 q 513 -175 381 -101 q 826 -249 646 -249 q 1087 -199 974 -249 q 1263 -61 1200 -150 q 1325 144 1325 28 q 1289 303 1325 243 q 1188 364 1253 364 q 1092 324 1131 364 q 1054 225 1054 285 l 1054 0 l 915 0 l 915 603 l 681 603 l 681 0 l 540 0 l 540 713 l 1288 713 l 1308 603 l 1054 603 l 1054 438 q 1197 485 1117 485 q 1342 441 1279 485 q 1438 320 1404 397 q 1472 144 1472 243 q 1390 -124 1472 -7 q 1162 -305 1308 -240 q 826 -369 1015 -369 q 438 -280 604 -369 q 183 -32 272 -190 q 94 326 94 126 q 195 723 94 549 q 482 996 296 897 q 915 1094 668 1094 q 1342 1012 1157 1094 q 1630 778 1528 929 q 1732 429 1732 628 l 1732 0 l 1593 0 l 1593 426 z "},"௪":{"ha":1228,"x_min":53,"x_max":1176,"o":"m 689 317 l 689 285 q 647 125 689 196 q 528 15 606 54 q 346 -25 450 -25 q 192 4 258 -25 q 89 85 125 33 q 53 203 53 138 q 95 328 53 275 q 215 407 138 381 l 215 713 l 918 713 l 939 603 l 689 603 l 689 426 l 1043 426 l 1043 713 l 1176 713 l 1176 317 l 689 317 m 356 426 l 549 426 l 549 603 l 356 603 l 356 426 m 356 317 q 240 286 281 317 q 199 203 199 256 q 238 124 199 154 q 346 93 278 93 q 495 146 442 93 q 549 285 549 199 l 549 317 l 356 317 z "},"௯":{"ha":1443,"x_min":53,"x_max":1406,"o":"m 1126 454 q 1269 422 1206 454 q 1369 331 1333 389 q 1406 201 1406 274 q 1393 97 1406 143 q 1353 -8 1381 50 l 1210 0 q 1246 101 1232 46 q 1260 201 1260 157 q 1224 299 1260 264 q 1126 335 1188 335 q 1093 333 1104 335 q 1163 161 1163 260 q 1106 28 1163 81 q 964 -25 1050 -25 q 823 28 879 -25 q 767 161 767 81 q 819 317 767 246 l 689 317 l 689 285 q 647 125 689 196 q 528 15 606 54 q 346 -25 450 -25 q 192 4 258 -25 q 89 85 125 33 q 53 203 53 138 q 95 328 53 275 q 215 407 138 381 l 215 713 l 918 713 l 939 603 l 689 603 l 689 426 l 869 426 q 947 417 913 426 q 1126 454 1031 454 m 356 426 l 549 426 l 549 603 l 356 603 l 356 426 m 356 317 q 240 286 281 317 q 199 203 199 256 q 238 124 199 154 q 346 93 278 93 q 495 146 442 93 q 549 285 549 199 l 549 317 l 356 317 m 1032 161 q 1014 235 1032 201 q 964 289 996 268 q 915 233 932 265 q 897 161 897 200 q 916 106 897 128 q 964 83 935 83 q 1013 106 993 83 q 1032 161 1032 128 z "},"௧":{"ha":1067,"x_min":53,"x_max":1029,"o":"m 729 426 q 949 363 869 426 q 1029 199 1029 300 q 992 83 1029 133 q 883 3 954 32 q 713 -25 811 -25 l 713 86 q 840 116 797 86 q 882 199 882 146 q 844 285 882 253 q 731 317 807 317 l 689 317 l 689 285 q 647 125 689 196 q 528 15 606 54 q 346 -25 450 -25 q 192 4 258 -25 q 89 85 125 33 q 53 203 53 138 q 95 328 53 275 q 215 407 138 381 l 215 713 l 918 713 l 939 603 l 689 603 l 689 426 l 729 426 m 356 426 l 549 426 l 549 603 l 356 603 l 356 426 m 356 317 q 240 286 281 317 q 199 203 199 256 q 238 124 199 154 q 346 93 278 93 q 495 146 442 93 q 549 285 549 199 l 549 317 l 356 317 z "},"௭":{"ha":1103,"x_min":69,"x_max":981,"o":"m 981 0 l 840 0 l 840 603 l 558 603 q 301 529 385 603 q 217 329 217 456 q 251 196 217 251 l 251 200 q 281 315 251 264 q 365 396 311 367 q 485 425 418 425 q 613 396 556 425 q 702 315 669 367 q 735 199 735 263 q 701 84 735 135 q 606 4 667 33 q 471 -25 546 -25 q 263 22 354 -25 q 120 149 171 68 q 69 329 69 229 q 124 528 69 442 q 285 664 178 615 q 546 713 392 713 l 981 713 l 981 0 m 486 314 q 403 281 436 314 q 371 199 371 249 q 403 118 371 150 q 486 86 436 86 q 569 118 536 86 q 601 199 601 150 q 569 281 601 249 q 486 314 536 314 z "},"௬":{"ha":1528,"x_min":53,"x_max":1514,"o":"m 1514 0 l 1096 0 l 1096 110 q 1196 142 1161 110 q 1231 225 1231 174 q 1199 303 1231 272 q 1117 333 1168 333 q 1014 293 1053 333 q 975 192 975 253 l 975 0 l 836 0 l 836 192 q 689 317 836 313 l 689 285 q 647 125 689 196 q 528 15 606 54 q 346 -25 450 -25 q 192 4 258 -25 q 89 85 125 33 q 53 203 53 138 q 95 328 53 275 q 215 407 138 381 l 215 713 l 918 713 l 939 603 l 689 603 l 689 426 q 906 356 828 425 q 1000 426 943 401 q 1126 451 1057 451 q 1258 423 1201 451 q 1347 344 1315 394 q 1378 232 1378 294 q 1336 110 1378 163 l 1514 110 l 1514 0 m 356 426 l 549 426 l 549 603 l 356 603 l 356 426 m 346 93 q 495 146 442 93 q 549 285 549 199 l 549 317 l 356 317 q 240 286 281 317 q 199 203 199 256 q 238 124 199 154 q 346 93 278 93 z "},"௩":{"ha":1185,"x_min":122,"x_max":1171,"o":"m 1171 0 l 482 0 l 482 110 l 685 110 q 819 153 775 110 q 864 269 864 196 q 833 361 864 324 q 750 399 801 399 q 657 362 693 399 q 621 271 621 325 l 621 217 l 482 217 l 482 603 l 261 603 l 261 0 l 122 0 l 122 713 l 854 713 l 875 603 l 621 603 l 621 476 q 765 518 685 518 q 942 449 875 518 q 1010 269 1010 381 q 953 110 1010 174 l 1171 110 l 1171 0 z "},"௨":{"ha":1093,"x_min":39,"x_max":1079,"o":"m 1079 0 l 103 0 l 103 110 l 411 110 q 563 144 497 110 q 664 240 628 179 q 700 379 700 301 q 668 503 700 449 q 578 588 636 557 q 443 619 519 619 q 261 568 338 619 l 274 568 q 425 514 367 568 q 483 376 483 460 q 455 276 483 321 q 376 205 426 231 q 264 179 326 179 q 102 238 165 179 q 39 389 39 297 q 92 567 39 488 q 237 692 144 647 q 443 738 329 738 q 653 691 561 738 q 796 563 744 644 q 847 379 847 482 q 815 228 847 297 q 724 110 783 158 l 1079 110 l 1079 0 m 360 376 q 332 447 360 419 q 261 475 304 475 q 190 447 218 475 q 163 376 163 419 q 190 307 163 335 q 261 279 218 279 q 332 307 304 279 q 360 376 360 335 z "},"௦":{"ha":985,"x_min":67,"x_max":919,"o":"m 492 738 q 710 688 613 738 q 863 553 807 639 q 919 357 918 467 q 863 160 918 247 q 710 24 807 74 q 492 -25 613 -25 q 274 24 371 -25 q 122 160 178 74 q 67 357 67 247 q 122 552 67 465 q 275 688 178 639 q 492 738 372 738 m 492 93 q 635 127 572 93 q 735 221 699 161 q 772 357 772 281 q 735 492 772 432 q 635 585 699 551 q 492 619 572 619 q 349 585 413 619 q 249 492 286 551 q 213 357 213 432 q 249 221 213 281 q 349 127 286 161 q 492 93 413 93 z "},"௱":{"ha":1422,"x_min":108,"x_max":1408,"o":"m 1156 0 l 1015 0 l 1015 603 l 703 603 l 703 0 l 563 0 l 563 403 q 519 560 563 501 q 393 619 476 619 q 283 572 318 619 q 247 432 247 525 l 247 0 l 108 0 l 108 435 q 181 657 108 576 q 389 738 254 738 q 563 667 489 738 l 563 713 l 1388 713 l 1408 603 l 1156 603 l 1156 0 z "},"௰":{"ha":1158,"x_min":67,"x_max":1093,"o":"m 975 732 q 1063 527 1033 636 q 1093 329 1093 418 q 1017 71 1093 167 q 794 -25 942 -25 q 579 67 658 -25 q 488 -1 542 22 q 364 -25 433 -25 q 142 70 217 -25 q 67 329 67 165 q 96 527 67 418 q 183 732 125 636 l 326 713 q 242 526 271 633 q 213 329 213 418 q 249 157 213 219 q 363 94 285 94 q 472 144 435 94 q 508 290 508 193 l 508 469 l 649 469 l 649 290 q 686 144 649 193 q 796 94 724 94 q 910 157 874 94 q 946 329 946 219 q 917 526 946 418 q 832 713 888 633 l 975 732 z "},"௲":{"ha":1558,"x_min":53,"x_max":1519,"o":"m 1244 207 q 1388 173 1325 207 q 1485 78 1450 139 q 1519 -57 1519 18 q 1481 -203 1519 -139 q 1371 -305 1442 -268 q 1207 -342 1300 -342 l 994 -342 q 869 -356 913 -342 q 808 -396 826 -369 l 710 -322 q 798 -253 735 -275 q 985 -232 861 -232 l 1207 -232 q 1333 -183 1286 -232 q 1381 -57 1381 -133 q 1347 49 1381 7 q 1254 90 1313 90 l 1238 90 l 1238 88 q 1157 -90 1238 -26 q 953 -154 1076 -154 q 775 -102 840 -154 q 710 31 710 -50 q 773 158 710 110 q 940 207 836 207 l 1099 207 l 1099 317 l 689 317 l 689 285 q 647 125 689 196 q 528 15 606 54 q 346 -25 450 -25 q 192 4 258 -25 q 89 85 125 33 q 53 203 53 138 q 95 328 53 275 q 215 407 138 381 l 215 713 l 918 713 l 939 603 l 689 603 l 689 426 l 1457 426 l 1472 317 l 1238 317 l 1238 207 l 1244 207 m 356 426 l 549 426 l 549 603 l 356 603 l 356 426 m 356 317 q 240 286 281 317 q 199 203 199 256 q 238 124 199 154 q 346 93 278 93 q 495 146 442 93 q 549 285 549 199 l 549 317 l 356 317 m 953 -36 q 1056 -3 1015 -36 q 1099 90 1097 31 l 940 90 q 878 73 900 90 q 856 28 856 56 q 882 -17 856 3 q 953 -36 908 -36 z "},"௹":{"ha":1579,"x_min":94,"x_max":1514,"o":"m 1239 485 q 1383 441 1321 485 q 1480 320 1446 397 q 1514 144 1514 243 q 1431 -125 1514 -8 q 1197 -306 1347 -242 q 856 -369 1047 -369 q 451 -275 624 -369 q 187 -8 279 -181 q 94 393 94 164 q 193 815 94 626 q 472 1112 292 1004 q 888 1219 653 1219 q 1182 1183 1057 1219 q 1374 1081 1307 1146 q 1440 933 1440 1015 q 1391 815 1440 861 q 1265 768 1342 768 q 1139 815 1189 768 q 1089 933 1089 863 q 1106 1011 1089 976 q 1156 1068 1124 1046 q 899 1099 1050 1099 q 552 1007 701 1099 q 322 754 403 915 q 240 392 240 593 q 315 53 240 199 q 528 -170 389 -92 q 856 -249 667 -249 q 1122 -200 1006 -249 q 1302 -62 1238 -151 q 1367 144 1367 26 q 1331 303 1367 243 q 1229 364 1294 364 q 1133 325 1171 364 q 1096 225 1096 286 l 1096 0 l 957 0 l 957 603 l 694 603 l 694 0 l 554 0 l 554 713 l 1329 713 l 1350 603 l 1096 603 l 1096 438 q 1239 485 1158 485 m 1265 865 q 1315 884 1296 865 q 1335 932 1335 903 q 1315 981 1335 961 q 1265 1000 1296 1000 q 1217 981 1236 1000 q 1197 932 1197 961 q 1217 884 1197 903 q 1265 865 1236 865 z "},"௺":{"ha":1461,"x_min":122,"x_max":1461,"o":"m 1461 765 l 1075 765 l 1075 874 q 1145 903 1119 874 q 1171 979 1171 933 q 1129 1067 1171 1033 q 1018 1100 1088 1100 q 958 1096 988 1100 q 1024 932 1024 1022 q 968 798 1024 850 q 828 746 913 746 q 685 798 742 746 q 629 932 629 850 q 704 1099 629 1021 q 668 1100 693 1100 q 519 1046 575 1100 q 463 906 463 992 q 513 767 463 821 q 642 713 564 713 l 854 713 l 875 603 l 621 603 l 621 438 q 764 485 683 485 q 907 441 844 485 q 1003 320 969 397 q 1038 144 1038 243 q 994 -60 1038 29 q 869 -201 951 -150 q 678 -251 788 -251 l 465 -251 q 317 -273 369 -251 q 235 -337 264 -294 l 122 -269 q 456 -143 185 -143 l 678 -143 q 835 -63 779 -143 q 892 144 892 17 q 856 303 892 243 q 753 364 819 364 q 658 324 696 364 q 621 225 621 285 l 621 0 l 482 0 l 482 603 l 261 603 l 261 0 l 122 0 l 122 713 l 386 713 q 315 906 315 794 q 360 1067 315 996 q 484 1179 404 1139 q 668 1219 564 1219 q 838 1185 760 1219 q 1024 1219 922 1219 q 1176 1188 1108 1219 q 1281 1102 1243 1157 q 1319 979 1319 1047 q 1286 874 1319 925 l 1461 874 l 1461 765 m 893 932 q 833 1057 893 1013 q 760 932 760 1013 q 779 878 760 900 q 828 857 799 857 q 874 878 856 857 q 893 932 893 900 z "},"௴":{"ha":1783,"x_min":122,"x_max":1783,"o":"m 1783 765 l 1397 765 l 1397 874 q 1468 903 1442 874 q 1494 979 1494 933 q 1452 1067 1494 1033 q 1340 1100 1410 1100 q 1281 1096 1310 1100 q 1346 932 1346 1022 q 1290 798 1346 850 q 1150 746 1235 746 q 1008 798 1064 746 q 951 932 951 850 q 1026 1099 951 1021 q 990 1100 1015 1100 q 841 1046 897 1100 q 785 906 785 992 q 813 796 785 843 q 890 729 842 749 q 1076 591 1008 700 q 1144 326 1144 482 q 1067 88 1144 176 q 835 0 990 0 l 122 0 l 122 713 l 261 719 l 261 110 l 531 110 l 531 425 q 575 614 531 538 q 703 719 619 690 q 639 906 639 799 q 683 1067 639 996 q 806 1179 726 1139 q 990 1219 886 1219 q 1160 1185 1082 1219 q 1347 1219 1247 1219 q 1499 1188 1432 1219 q 1603 1102 1565 1157 q 1640 979 1640 1047 q 1608 874 1640 922 l 1783 874 l 1783 765 m 1215 932 q 1156 1057 1215 1013 q 1082 932 1082 1011 q 1101 878 1082 900 q 1150 857 1121 857 q 1197 878 1178 857 q 1215 932 1215 900 m 999 326 q 950 539 999 458 q 811 619 901 619 q 671 421 671 619 l 671 110 l 835 110 q 963 166 926 110 q 999 326 999 222 z "},"௸":{"ha":2692,"x_min":67,"x_max":2569,"o":"m 2263 0 l 2263 -337 l 2124 -337 l 2124 0 l 1485 0 l 1485 110 q 1526 247 1513 176 q 1540 376 1540 318 q 1479 553 1540 486 q 1300 619 1418 619 q 1132 578 1211 619 q 1257 426 1213 511 q 1301 247 1301 340 q 1232 51 1301 126 q 1047 -25 1163 -25 q 913 10 971 -25 q 823 106 854 44 q 792 247 792 168 q 826 417 792 336 q 919 565 860 499 q 649 619 799 619 q 418 581 517 619 q 266 474 319 542 q 213 319 213 406 q 249 188 213 243 l 249 200 q 278 315 249 264 q 361 396 308 367 q 481 425 414 425 q 610 396 553 425 q 699 315 667 367 q 732 199 732 263 q 698 84 732 135 q 603 4 664 33 q 468 -25 543 -25 q 259 19 350 -25 q 117 142 168 64 q 67 319 67 221 q 139 534 67 439 q 343 683 211 629 q 649 738 475 738 q 1021 651 853 738 q 1155 715 1083 693 q 1300 738 1226 738 q 1509 692 1422 738 q 1641 564 1596 646 q 1686 376 1686 482 q 1632 110 1686 250 l 2124 110 l 2124 272 q 2058 268 2092 268 q 1906 299 1972 268 q 1801 385 1839 331 q 1763 508 1763 440 q 1833 674 1763 611 q 2017 738 1903 738 q 2195 674 2128 738 q 2263 507 2263 610 l 2263 440 q 2429 603 2369 501 l 2569 603 l 2569 0 l 2263 0 m 2058 386 q 2124 392 2096 386 l 2124 500 q 2096 587 2124 554 q 2017 619 2068 619 q 1938 589 1965 619 q 1910 508 1910 558 q 1950 422 1910 457 q 2058 386 1990 386 m 1047 93 q 1127 135 1100 93 q 1154 247 1154 178 q 1122 383 1154 319 q 1031 496 1090 446 q 963 382 988 446 q 939 247 939 318 q 967 135 939 178 q 1047 93 994 93 m 2429 408 q 2263 306 2354 340 l 2263 110 l 2429 110 l 2429 408 m 482 314 q 401 281 433 314 q 368 199 368 249 q 401 118 368 150 q 482 86 433 86 q 565 118 532 86 q 597 199 597 150 q 565 281 597 249 q 482 314 532 314 z "},"௳":{"ha":1244,"x_min":67,"x_max":1231,"o":"m 1231 0 l 800 0 l 800 110 q 874 354 874 221 q 789 546 874 472 q 550 619 704 619 q 372 582 449 619 q 253 478 294 544 q 213 329 213 413 q 249 194 213 251 l 249 200 q 278 315 249 264 q 361 396 308 367 q 481 425 414 425 q 610 396 553 425 q 699 315 667 367 q 732 199 732 263 q 698 84 732 135 q 603 4 664 33 q 468 -25 543 -25 q 259 22 350 -25 q 117 149 168 68 q 67 329 67 229 q 127 540 67 447 q 297 685 188 633 q 550 738 407 738 q 795 688 688 738 q 962 551 903 639 q 1021 354 1021 464 q 1003 226 1021 289 q 956 110 986 163 l 1231 110 l 1231 0 m 482 314 q 401 281 433 314 q 368 199 368 249 q 401 118 368 150 q 482 86 433 86 q 565 118 532 86 q 597 199 597 150 q 565 281 597 249 q 482 314 532 314 z "},"௶":{"ha":1413,"x_min":122,"x_max":1290,"o":"m 893 -225 q 739 -414 861 -343 q 438 -485 617 -485 q 270 -460 342 -485 q 160 -391 199 -435 q 122 -290 122 -347 q 182 -165 122 -212 q 347 -117 242 -117 l 763 -117 l 763 0 l 122 0 l 122 713 l 261 719 l 261 110 l 763 110 l 763 713 l 903 713 l 903 -117 l 1151 -117 l 1151 713 l 1290 713 l 1290 -225 l 893 -225 m 438 -365 q 632 -328 551 -365 q 744 -225 713 -290 l 349 -225 q 288 -242 307 -225 q 268 -290 268 -260 q 313 -345 268 -325 q 438 -365 358 -365 z "},"௷":{"ha":1951,"x_min":67,"x_max":1938,"o":"m 1938 0 l 1551 0 l 1551 110 q 1622 140 1596 110 q 1649 214 1649 169 q 1607 302 1649 269 q 1486 335 1565 335 q 1417 329 1446 335 q 1488 161 1488 258 q 1431 28 1488 81 q 1290 -25 1375 -25 q 1148 27 1204 -25 q 1092 161 1092 79 q 1150 317 1092 247 l 1142 317 l 976 317 l 976 0 l 836 0 l 836 603 l 556 603 q 297 529 382 603 q 213 329 213 456 q 249 194 213 251 l 249 200 q 278 315 249 264 q 361 396 308 367 q 481 425 414 425 q 610 396 553 425 q 699 315 667 367 q 732 199 732 263 q 698 84 732 135 q 603 4 664 33 q 468 -25 543 -25 q 259 22 350 -25 q 117 149 168 68 q 67 329 67 229 q 121 528 67 442 q 282 664 175 615 q 543 713 389 713 l 1210 713 l 1229 603 l 976 603 l 976 426 l 1154 426 q 1275 410 1221 426 q 1493 454 1375 454 q 1653 424 1585 454 q 1758 338 1721 393 q 1794 214 1794 283 q 1763 110 1794 157 l 1938 110 l 1938 0 m 482 314 q 401 281 433 314 q 368 199 368 249 q 401 118 368 150 q 482 86 433 86 q 565 118 532 86 q 597 199 597 150 q 565 281 597 249 q 482 314 532 314 m 1357 161 q 1290 283 1357 243 q 1224 161 1224 236 q 1242 108 1224 129 q 1290 86 1261 86 q 1338 108 1319 86 q 1357 161 1357 129 z "},"௵":{"ha":2536,"x_min":94,"x_max":2469,"o":"m 2194 485 q 2339 441 2276 485 q 2435 320 2401 397 q 2469 144 2469 243 q 2380 -138 2469 -19 q 2122 -320 2290 -257 q 1722 -383 1954 -383 l 871 -383 q 459 -308 635 -383 q 189 -94 283 -233 q 94 236 94 46 q 151 507 94 368 q 296 726 208 646 l 439 713 q 297 505 353 639 q 240 233 240 371 q 317 -35 240 79 q 537 -212 394 -150 q 871 -274 679 -274 l 1722 -274 q 2043 -224 1908 -274 q 2250 -79 2178 -174 q 2322 144 2322 15 q 2286 303 2322 243 q 2185 364 2250 364 q 2090 324 2128 364 q 2051 225 2051 285 l 2051 0 l 1913 0 l 1913 603 l 1682 603 l 1682 0 l 1157 0 l 1157 110 q 1232 354 1232 224 q 1148 547 1232 474 q 908 619 1064 619 q 730 582 807 619 q 612 478 653 544 q 571 329 571 413 q 607 194 571 251 l 607 200 q 637 315 607 264 q 719 396 667 367 q 839 425 772 425 q 968 396 911 425 q 1057 315 1025 367 q 1089 199 1089 263 q 1055 84 1089 135 q 961 4 1021 33 q 826 -25 901 -25 q 617 22 708 -25 q 474 149 525 68 q 424 329 424 229 q 484 540 424 447 q 655 685 544 633 q 908 738 765 738 q 1153 688 1046 738 q 1320 551 1261 639 q 1379 354 1379 464 q 1362 226 1379 289 q 1314 110 1344 163 l 1542 110 l 1542 713 l 2285 713 l 2306 603 l 2051 603 l 2051 438 q 2194 485 2117 485 m 840 314 q 758 281 790 314 q 726 199 726 249 q 758 118 726 150 q 840 86 790 86 q 923 118 890 86 q 956 199 956 150 q 923 281 956 249 q 840 314 890 314 z "},"ௗ":{"ha":1733,"x_min":67,"x_max":1719,"o":"m 1465 603 l 1465 0 l 1326 0 l 1326 603 l 1014 603 l 1014 0 l 874 0 l 874 317 q 831 472 874 403 q 711 581 788 542 q 538 619 635 619 q 364 582 438 619 q 251 478 290 544 q 213 329 213 413 q 249 194 213 251 l 249 200 q 278 315 249 264 q 361 396 308 367 q 481 425 414 425 q 610 396 553 425 q 699 315 667 367 q 732 199 732 263 q 698 84 732 135 q 603 4 664 33 q 468 -25 543 -25 q 259 22 350 -25 q 117 149 168 68 q 67 329 67 229 q 125 540 67 447 q 290 685 183 633 q 538 738 396 738 q 728 701 642 738 q 874 599 814 664 l 874 713 l 1699 713 l 1719 603 l 1465 603 m 482 314 q 401 281 433 314 q 368 199 368 249 q 401 118 368 150 q 482 86 433 86 q 565 118 532 86 q 597 199 597 150 q 565 281 597 249 q 482 314 532 314 z "},"ா":{"ha":953,"x_min":122,"x_max":939,"o":"m 546 0 l 546 603 l 261 603 l 261 0 l 122 0 l 122 713 l 918 713 l 939 603 l 686 603 l 686 0 l 546 0 z "},"ை":{"ha":1753,"x_min":67,"x_max":1686,"o":"m 1300 738 q 1509 692 1422 738 q 1641 564 1596 646 q 1686 376 1686 482 q 1657 183 1686 289 q 1569 -19 1628 78 l 1426 0 q 1511 184 1482 79 q 1540 376 1540 289 q 1479 553 1540 486 q 1300 619 1418 619 q 1132 578 1211 619 q 1257 426 1213 511 q 1301 247 1301 340 q 1232 51 1301 126 q 1047 -25 1163 -25 q 913 10 971 -25 q 823 106 854 44 q 792 247 792 168 q 826 417 792 336 q 919 565 860 499 q 649 619 799 619 q 418 581 517 619 q 266 474 319 542 q 213 319 213 406 q 249 188 213 243 l 249 200 q 278 315 249 264 q 361 396 308 367 q 481 425 414 425 q 610 396 553 425 q 699 315 667 367 q 732 199 732 263 q 698 84 732 135 q 603 4 664 33 q 468 -25 543 -25 q 259 19 350 -25 q 117 142 168 64 q 67 319 67 221 q 139 534 67 439 q 343 683 211 629 q 649 738 475 738 q 1021 651 853 738 q 1155 715 1083 693 q 1300 738 1226 738 m 1047 93 q 1127 135 1100 93 q 1154 247 1154 178 q 1122 383 1154 319 q 1031 496 1090 446 q 963 382 988 446 q 939 247 939 318 q 967 135 939 178 q 1047 93 994 93 m 482 314 q 401 281 433 314 q 368 199 368 249 q 401 118 368 150 q 482 86 433 86 q 565 118 532 86 q 597 199 597 150 q 565 281 597 249 q 482 314 532 314 z "},"ௌ":{"ha":3574,"x_min":74,"x_max":3560,"o":"m 563 938 q 804 880 700 938 q 965 717 908 822 q 1021 474 1021 611 l 1021 0 l 881 0 l 881 474 q 795 726 881 632 q 563 819 710 819 q 381 772 458 819 q 261 640 303 725 q 219 447 219 556 q 263 233 219 319 q 337 372 274 318 q 492 425 400 425 q 620 396 564 425 q 708 315 676 367 q 739 199 739 264 q 705 84 739 135 q 610 4 671 33 q 475 -25 550 -25 q 268 35 360 -25 q 125 203 176 96 q 74 447 74 310 q 134 700 74 589 q 306 874 194 811 q 563 938 417 938 m 489 314 q 408 281 440 314 q 375 199 375 249 q 408 118 375 150 q 489 86 440 86 q 572 118 539 86 q 604 199 604 150 q 572 281 604 249 q 489 314 539 314 m 3306 603 l 3306 0 l 3167 0 l 3167 603 l 2854 603 l 2854 0 l 2714 0 l 2714 317 q 2671 472 2714 403 q 2551 581 2628 542 q 2378 619 2475 619 q 2204 582 2278 619 q 2092 478 2131 544 q 2053 329 2053 413 q 2089 194 2053 251 l 2089 200 q 2119 315 2089 264 q 2201 396 2149 367 q 2321 425 2254 425 q 2450 396 2393 425 q 2540 315 2507 367 q 2572 199 2572 263 q 2538 84 2572 135 q 2444 4 2504 33 q 2308 -25 2383 -25 q 2099 22 2190 -25 q 1958 149 2008 68 q 1907 329 1907 229 q 1965 540 1907 447 q 2130 685 2024 633 q 2378 738 2236 738 q 2568 701 2482 738 q 2714 599 2654 664 l 2714 713 l 3539 713 l 3560 603 l 3306 603 m 2322 314 q 2241 281 2274 314 q 2208 199 2208 249 q 2241 118 2208 150 q 2322 86 2274 86 q 2405 118 2372 86 q 2438 199 2438 150 q 2405 281 2438 249 q 2322 314 2372 314 m 1472 638 q 1501 649 1490 638 q 1513 678 1513 660 q 1501 708 1513 696 q 1472 719 1490 719 q 1443 708 1454 719 q 1432 678 1432 696 q 1443 649 1432 660 q 1472 638 1454 638 m 1349 697 q 1319 686 1331 697 q 1308 657 1308 675 q 1319 628 1308 639 q 1349 617 1331 617 q 1378 628 1367 617 q 1389 657 1389 639 q 1378 686 1389 675 q 1349 697 1367 697 m 1597 617 q 1626 628 1615 617 q 1638 657 1638 639 q 1626 686 1638 675 q 1597 697 1615 697 q 1568 686 1579 697 q 1557 657 1557 675 q 1568 628 1557 639 q 1597 617 1579 617 m 1243 628 q 1213 616 1225 628 q 1201 586 1201 604 q 1213 557 1201 568 q 1243 546 1225 546 q 1272 557 1261 546 q 1283 586 1283 568 q 1272 616 1283 604 q 1243 628 1261 628 m 1703 546 q 1733 557 1721 546 q 1744 586 1744 568 q 1733 616 1744 604 q 1703 628 1721 628 q 1674 616 1685 628 q 1663 586 1663 604 q 1674 557 1663 568 q 1703 546 1685 546 m 1176 518 q 1147 506 1158 518 q 1135 476 1135 494 q 1147 447 1135 458 q 1176 436 1158 436 q 1206 447 1194 436 q 1217 476 1217 458 q 1206 506 1217 494 q 1176 518 1194 518 m 1769 436 q 1799 447 1788 436 q 1810 476 1810 458 q 1799 506 1810 494 q 1769 518 1788 518 q 1740 506 1751 518 q 1729 476 1729 494 q 1740 447 1729 458 q 1769 436 1751 436 m 1157 399 q 1127 387 1139 399 q 1115 357 1115 375 q 1127 328 1115 339 q 1157 318 1139 318 q 1186 328 1175 318 q 1197 357 1197 339 q 1186 387 1197 375 q 1157 399 1175 399 m 1789 318 q 1819 328 1807 318 q 1831 357 1831 339 q 1819 387 1831 375 q 1789 399 1807 399 q 1760 387 1771 399 q 1749 357 1749 375 q 1760 328 1749 339 q 1789 318 1771 318 m 1176 282 q 1147 271 1158 282 q 1135 242 1135 260 q 1147 213 1135 224 q 1176 201 1158 201 q 1206 213 1194 201 q 1217 242 1217 224 q 1206 271 1217 260 q 1176 282 1194 282 m 1769 201 q 1799 213 1788 201 q 1810 242 1810 224 q 1799 271 1810 260 q 1769 282 1788 282 q 1740 271 1751 282 q 1729 242 1729 260 q 1740 213 1729 224 q 1769 201 1751 201 m 1242 171 q 1212 160 1224 171 q 1200 131 1200 149 q 1212 101 1200 113 q 1242 90 1224 90 q 1271 101 1260 90 q 1282 131 1282 113 q 1271 160 1282 149 q 1242 171 1260 171 m 1704 90 q 1734 101 1722 90 q 1746 131 1746 113 q 1734 160 1746 149 q 1704 171 1722 171 q 1675 160 1686 171 q 1664 131 1664 149 q 1675 101 1664 113 q 1704 90 1686 90 m 1349 103 q 1319 91 1331 103 q 1308 61 1308 79 q 1319 32 1308 43 q 1349 21 1331 21 q 1378 32 1367 21 q 1389 61 1389 43 q 1378 91 1389 79 q 1349 103 1367 103 m 1597 21 q 1626 32 1615 21 q 1638 61 1638 43 q 1626 91 1638 79 q 1597 103 1615 103 q 1568 91 1579 103 q 1557 61 1557 79 q 1568 32 1557 43 q 1597 21 1579 21 m 1472 0 q 1501 11 1490 0 q 1513 40 1513 22 q 1501 70 1513 58 q 1472 82 1490 82 q 1443 70 1454 82 q 1432 40 1432 58 q 1443 11 1432 22 q 1472 0 1454 0 z "},"ெ":{"ha":1136,"x_min":67,"x_max":1014,"o":"m 556 938 q 797 880 693 938 q 958 717 901 822 q 1014 474 1014 611 l 1014 0 l 874 0 l 874 474 q 788 726 874 632 q 556 819 703 819 q 374 772 451 819 q 254 640 296 725 q 213 447 213 556 q 256 233 213 319 q 330 372 267 318 q 485 425 393 425 q 613 396 557 425 q 701 315 669 367 q 732 199 732 264 q 698 84 732 135 q 603 4 664 33 q 468 -25 543 -25 q 261 35 353 -25 q 118 203 169 96 q 67 447 67 310 q 127 700 67 589 q 299 874 188 811 q 556 938 410 938 m 482 314 q 401 281 433 314 q 368 199 368 249 q 401 118 368 150 q 482 86 433 86 q 565 118 532 86 q 597 199 597 150 q 565 281 597 249 q 482 314 532 314 z "},"ே":{"ha":953,"x_min":67,"x_max":888,"o":"m 665 404 q 824 348 761 404 q 888 206 888 292 q 849 87 888 139 q 735 5 810 35 q 561 -25 661 -25 q 304 37 417 -25 q 129 208 192 99 q 67 457 67 318 q 129 704 67 594 q 304 876 192 814 q 561 938 417 938 q 735 908 661 938 q 849 826 810 878 q 888 707 888 774 q 824 565 888 621 q 665 508 761 508 q 515 565 574 508 q 457 708 457 621 q 500 821 457 774 q 292 708 369 807 q 213 457 215 608 q 292 205 215 304 q 500 92 369 106 q 457 204 457 139 q 515 348 457 292 q 665 404 574 404 m 669 619 q 734 644 708 619 q 760 710 760 669 q 735 774 760 749 q 671 799 710 799 q 606 774 632 799 q 581 710 581 749 q 606 645 581 671 q 669 619 631 619 m 669 293 q 606 267 631 293 q 581 203 581 242 q 606 139 581 164 q 671 114 632 114 q 735 139 710 114 q 760 203 760 164 q 734 267 760 242 q 669 293 708 293 z "},"ி":{"ha":383,"x_min":-521,"x_max":261,"o":"m -179 1107 q 53 1055 -47 1107 q 207 910 153 1003 q 261 699 261 817 l 261 0 l 122 0 l 122 699 q 41 909 122 829 q -179 989 -40 989 q -328 951 -275 989 q -382 850 -382 914 q -347 750 -382 788 q -243 713 -311 713 l -217 713 l -215 613 l -243 613 q -445 678 -371 613 q -521 850 -519 744 q -479 983 -521 925 q -360 1074 -437 1042 q -179 1107 -283 1107 z "},"ொ":{"ha":2778,"x_min":67,"x_max":2736,"o":"m 556 938 q 797 880 693 938 q 958 717 901 822 q 1014 474 1014 611 l 1014 0 l 874 0 l 874 474 q 788 726 874 632 q 556 819 703 819 q 374 772 451 819 q 254 640 296 725 q 213 447 213 556 q 256 233 213 319 q 330 372 267 318 q 485 425 393 425 q 613 396 557 425 q 701 315 669 367 q 732 199 732 264 q 698 84 732 135 q 603 4 664 33 q 468 -25 543 -25 q 261 35 353 -25 q 118 203 169 96 q 67 447 67 310 q 127 700 67 589 q 299 874 188 811 q 556 938 410 938 m 482 314 q 401 281 433 314 q 368 199 368 249 q 401 118 368 150 q 482 86 433 86 q 565 118 532 86 q 597 199 597 150 q 565 281 597 249 q 482 314 532 314 m 2343 0 l 2343 603 l 2058 603 l 2058 0 l 1919 0 l 1919 713 l 2715 713 l 2736 603 l 2483 603 l 2483 0 l 2343 0 m 1460 638 q 1489 649 1478 638 q 1500 678 1500 660 q 1489 708 1500 696 q 1460 719 1478 719 q 1431 708 1442 719 q 1419 678 1419 696 q 1431 649 1419 660 q 1460 638 1442 638 m 1336 697 q 1307 686 1318 697 q 1296 657 1296 675 q 1307 628 1296 639 q 1336 617 1318 617 q 1365 628 1354 617 q 1376 657 1376 639 q 1365 686 1376 675 q 1336 697 1354 697 m 1585 617 q 1614 628 1603 617 q 1625 657 1625 639 q 1614 686 1625 675 q 1585 697 1603 697 q 1556 686 1567 697 q 1544 657 1544 675 q 1556 628 1544 639 q 1585 617 1567 617 m 1231 628 q 1201 616 1213 628 q 1189 586 1189 604 q 1201 557 1189 568 q 1231 546 1213 546 q 1260 557 1249 546 q 1271 586 1271 568 q 1260 616 1271 604 q 1231 628 1249 628 m 1690 546 q 1720 557 1708 546 q 1732 586 1732 568 q 1720 616 1732 604 q 1690 628 1708 628 q 1661 616 1672 628 q 1650 586 1650 604 q 1661 557 1650 568 q 1690 546 1672 546 m 1164 518 q 1134 506 1146 518 q 1122 476 1122 494 q 1134 447 1122 458 q 1164 436 1146 436 q 1193 447 1182 436 q 1204 476 1204 458 q 1193 506 1204 494 q 1164 518 1182 518 m 1757 436 q 1786 447 1775 436 q 1797 476 1797 458 q 1786 506 1797 494 q 1757 518 1775 518 q 1728 506 1739 518 q 1717 476 1717 494 q 1728 447 1717 458 q 1757 436 1739 436 m 1144 399 q 1115 387 1126 399 q 1103 357 1103 375 q 1115 328 1103 339 q 1144 318 1126 318 q 1174 328 1163 318 q 1185 357 1185 339 q 1174 387 1185 375 q 1144 399 1163 399 m 1776 318 q 1806 328 1794 318 q 1818 357 1818 339 q 1806 387 1818 375 q 1776 399 1794 399 q 1747 387 1758 399 q 1736 357 1736 375 q 1747 328 1736 339 q 1776 318 1758 318 m 1164 282 q 1134 271 1146 282 q 1122 242 1122 260 q 1134 213 1122 224 q 1164 201 1146 201 q 1193 213 1182 201 q 1204 242 1204 224 q 1193 271 1204 260 q 1164 282 1182 282 m 1757 201 q 1786 213 1775 201 q 1797 242 1797 224 q 1786 271 1797 260 q 1757 282 1775 282 q 1728 271 1739 282 q 1717 242 1717 260 q 1728 213 1717 224 q 1757 201 1739 201 m 1229 171 q 1199 160 1211 171 q 1188 131 1188 149 q 1199 101 1188 113 q 1229 90 1211 90 q 1258 101 1247 90 q 1269 131 1269 113 q 1258 160 1269 149 q 1229 171 1247 171 m 1692 90 q 1722 101 1710 90 q 1733 131 1733 113 q 1722 160 1733 149 q 1692 171 1710 171 q 1663 160 1674 171 q 1651 131 1651 149 q 1663 101 1651 113 q 1692 90 1674 90 m 1336 103 q 1307 91 1318 103 q 1296 61 1296 79 q 1307 32 1296 43 q 1336 21 1318 21 q 1365 32 1354 21 q 1376 61 1376 43 q 1365 91 1376 79 q 1336 103 1354 103 m 1585 21 q 1614 32 1603 21 q 1625 61 1625 43 q 1614 91 1625 79 q 1585 103 1603 103 q 1556 91 1567 103 q 1544 61 1544 79 q 1556 32 1544 43 q 1585 21 1567 21 m 1460 0 q 1489 11 1478 0 q 1500 40 1500 22 q 1489 70 1500 58 q 1460 82 1478 82 q 1431 70 1442 82 q 1419 40 1419 58 q 1431 11 1419 22 q 1460 0 1442 0 z "},"ோ":{"ha":2654,"x_min":67,"x_max":2613,"o":"m 665 404 q 824 348 761 404 q 888 206 888 292 q 849 87 888 139 q 735 5 810 35 q 561 -25 661 -25 q 304 37 417 -25 q 129 208 192 99 q 67 457 67 318 q 129 704 67 594 q 304 876 192 814 q 561 938 417 938 q 735 908 661 938 q 849 826 810 878 q 888 707 888 774 q 824 565 888 621 q 665 508 761 508 q 515 565 574 508 q 457 708 457 621 q 500 821 457 774 q 292 708 369 807 q 213 457 215 608 q 292 205 215 304 q 500 92 369 106 q 457 204 457 139 q 515 348 457 292 q 665 404 574 404 m 669 619 q 734 644 708 619 q 760 710 760 669 q 735 774 760 749 q 671 799 710 799 q 606 774 632 799 q 581 710 581 749 q 606 645 581 671 q 669 619 631 619 m 669 293 q 606 267 631 293 q 581 203 581 242 q 606 139 581 164 q 671 114 632 114 q 735 139 710 114 q 760 203 760 164 q 734 267 760 242 q 669 293 708 293 m 2219 0 l 2219 603 l 1935 603 l 1935 0 l 1796 0 l 1796 713 l 2592 713 l 2613 603 l 2360 603 l 2360 0 l 2219 0 m 1326 638 q 1356 649 1344 638 q 1367 678 1367 660 q 1356 708 1367 696 q 1326 719 1344 719 q 1297 708 1308 719 q 1286 678 1286 696 q 1297 649 1286 660 q 1326 638 1308 638 m 1203 697 q 1174 686 1185 697 q 1163 657 1163 675 q 1174 628 1163 639 q 1203 617 1185 617 q 1232 628 1221 617 q 1243 657 1243 639 q 1232 686 1243 675 q 1203 697 1221 697 m 1451 617 q 1481 628 1469 617 q 1492 657 1492 639 q 1481 686 1492 675 q 1451 697 1469 697 q 1422 686 1433 697 q 1411 657 1411 675 q 1422 628 1411 639 q 1451 617 1433 617 m 1097 628 q 1067 616 1079 628 q 1056 586 1056 604 q 1067 557 1056 568 q 1097 546 1079 546 q 1126 557 1115 546 q 1138 586 1138 568 q 1126 616 1138 604 q 1097 628 1115 628 m 1557 546 q 1587 557 1575 546 q 1599 586 1599 568 q 1587 616 1599 604 q 1557 628 1575 628 q 1528 616 1539 628 q 1517 586 1517 604 q 1528 557 1517 568 q 1557 546 1539 546 m 1031 518 q 1001 506 1013 518 q 989 476 989 494 q 1001 447 989 458 q 1031 436 1013 436 q 1060 447 1049 436 q 1071 476 1071 458 q 1060 506 1071 494 q 1031 518 1049 518 m 1624 436 q 1653 447 1642 436 q 1664 476 1664 458 q 1653 506 1664 494 q 1624 518 1642 518 q 1594 506 1606 518 q 1583 476 1583 494 q 1594 447 1583 458 q 1624 436 1606 436 m 1011 399 q 981 387 993 399 q 969 357 969 375 q 981 328 969 339 q 1011 318 993 318 q 1040 328 1029 318 q 1051 357 1051 339 q 1040 387 1051 375 q 1011 399 1029 399 m 1643 318 q 1673 328 1661 318 q 1685 357 1685 339 q 1673 387 1685 375 q 1643 399 1661 399 q 1614 387 1625 399 q 1603 357 1603 375 q 1614 328 1603 339 q 1643 318 1625 318 m 1031 282 q 1001 271 1013 282 q 989 242 989 260 q 1001 213 989 224 q 1031 201 1013 201 q 1060 213 1049 201 q 1071 242 1071 224 q 1060 271 1071 260 q 1031 282 1049 282 m 1624 201 q 1653 213 1642 201 q 1664 242 1664 224 q 1653 271 1664 260 q 1624 282 1642 282 q 1594 271 1606 282 q 1583 242 1583 260 q 1594 213 1583 224 q 1624 201 1606 201 m 1096 171 q 1066 160 1078 171 q 1054 131 1054 149 q 1066 101 1054 113 q 1096 90 1078 90 q 1125 101 1114 90 q 1136 131 1136 113 q 1125 160 1136 149 q 1096 171 1114 171 m 1558 90 q 1588 101 1576 90 q 1600 131 1600 113 q 1588 160 1600 149 q 1558 171 1576 171 q 1529 160 1540 171 q 1518 131 1518 149 q 1529 101 1518 113 q 1558 90 1540 90 m 1203 103 q 1174 91 1185 103 q 1163 61 1163 79 q 1174 32 1163 43 q 1203 21 1185 21 q 1232 32 1221 21 q 1243 61 1243 43 q 1232 91 1243 79 q 1203 103 1221 103 m 1451 21 q 1481 32 1469 21 q 1492 61 1492 43 q 1481 91 1492 79 q 1451 103 1469 103 q 1422 91 1433 103 q 1411 61 1411 79 q 1422 32 1411 43 q 1451 21 1433 21 m 1326 0 q 1356 11 1344 0 q 1367 40 1367 22 q 1356 70 1367 58 q 1326 82 1344 82 q 1297 70 1308 82 q 1286 40 1286 58 q 1297 11 1286 22 q 1326 0 1308 0 z "},"ு":{"ha":656,"x_min":-261,"x_max":617,"o":"m 354 713 q 489 684 429 713 q 583 604 549 656 q 617 489 617 553 q 585 373 617 425 q 496 292 553 321 q 367 263 439 263 q 244 292 299 263 q 158 372 189 321 q 126 488 126 424 q 161 603 126 551 l -261 603 l -261 713 l 354 713 m 368 374 q 451 406 418 374 q 483 489 483 439 q 451 571 483 539 q 368 603 418 603 q 286 571 318 603 q 254 489 254 539 q 286 406 254 439 q 368 374 318 374 z "},"ூ":{"ha":954,"x_min":-261,"x_max":917,"o":"m 521 850 q 724 802 633 850 q 865 669 814 754 q 917 479 917 585 q 858 278 917 367 q 694 139 800 189 q 454 89 589 89 l 363 89 l 363 199 l 454 199 q 619 235 547 199 q 730 335 690 271 q 769 479 769 399 q 738 612 769 553 q 649 704 706 671 q 519 738 592 738 q 393 711 450 738 q 553 641 490 703 q 617 489 617 579 q 585 374 617 425 q 499 295 554 324 q 372 267 443 267 q 249 297 303 267 q 164 381 194 328 q 133 503 133 435 q 147 603 133 550 l -261 603 l -261 713 l 204 713 q 338 814 256 778 q 521 850 419 850 m 483 489 q 449 572 483 540 q 353 603 415 603 l 281 603 q 258 504 258 556 q 290 412 258 447 q 374 376 322 376 q 453 408 422 376 q 483 489 483 439 z "},"ஂ":{"ha":0,"x_min":-174,"x_max":175,"o":"m 0 886 q 86 908 46 886 q 151 968 126 931 q 175 1050 175 1006 q 151 1135 175 1097 q 86 1196 126 1174 q 0 1218 46 1218 q -85 1196 -44 1218 q -149 1135 -125 1174 q -174 1050 -174 1097 q -149 968 -174 1006 q -85 908 -125 931 q 0 886 -44 886 m 0 988 q -47 1006 -29 988 q -65 1051 -65 1024 q -47 1099 -65 1081 q 0 1118 -29 1118 q 48 1099 29 1118 q 67 1051 67 1079 q 48 1006 67 1024 q 0 988 29 988 z "},"்":{"ha":0,"x_min":-85,"x_max":88,"o":"m 0 886 q 63 912 38 886 q 88 972 88 938 q 63 1033 88 1008 q 0 1058 38 1058 q -60 1033 -36 1058 q -85 972 -85 1008 q -60 911 -85 936 q 0 886 -36 886 z "},"ீ":{"ha":0,"x_min":-574,"x_max":119,"o":"m -208 1219 q -45 1184 -121 1219 q 75 1088 31 1149 q 119 956 119 1026 q 69 829 119 879 q -58 779 19 779 q -187 826 -136 779 q -239 944 -239 872 q -213 1035 -239 994 q -142 1094 -187 1075 q -208 1100 -169 1100 q -367 1046 -307 1100 q -426 906 -426 992 q -376 767 -426 821 q -247 713 -325 713 l -247 606 q -415 644 -340 606 q -531 751 -489 682 q -574 906 -574 819 q -528 1067 -574 996 q -399 1179 -482 1139 q -208 1219 -315 1219 m -58 876 q -10 896 -29 876 q 8 944 8 915 q -10 992 8 972 q -58 1011 -29 1011 q -107 992 -87 1011 q -126 944 -126 972 q -107 896 -126 915 q -58 876 -87 876 z "}}}
